<svg xmlns="http://www.w3.org/2000/svg" version="1.1" width="13.266420cm" height="11.026140cm" viewBox="0 0 13.266420cm 11.026140cm">
<title>SVG Picture created as ergodash-User_Eco2.svg date 2023/08/13 10:04:29 </title>
  <desc>Picture generated by PCBNEW </desc>
<g style="fill:#000000; fill-opacity:1.000000;stroke:#000000; stroke-opacity:1.000000; stroke-linecap:round; stroke-linejoin:round;" transform="translate(0 0) scale(1 1)">
</g>
<g style="fill:#000000; fill-opacity:0.0;  stroke:#000000; stroke-width:0.0; stroke-opacity:1;  stroke-linecap:round; stroke-linejoin:round;">
</g>
<g style="fill:#D8C852; fill-opacity:0.0;  stroke:#D8C852; stroke-width:0.0; stroke-opacity:1;  stroke-linecap:round; stroke-linejoin:round;">
</g>
<g style="fill:#D8C852; fill-opacity:0.0;  stroke:#D8C852; stroke-width:0.5669295; stroke-opacity:1;  stroke-linecap:round; stroke-linejoin:round;">
<path d="M60.52102428332 105.700225745 L7.60760428332 105.700225745 " />
<path d="M7.60760428332 105.700225745 L7.60760428332 52.786805745 " />
<path d="M68.08008428332 45.227745745 L68.08008428332 113.259285745 " />
<path d="M68.08008428332 113.259285745 L0.04854428332 113.259285745 " />
<path d="M7.60760428332 52.786805745 L60.52102428332 52.786805745 " />
<path d="M60.52102428332 52.786805745 L60.52102428332 105.700225745 " />
<path d="M0.04854428332 113.259285745 L0.04854428332 45.227745745 " />
<path d="M0.04854428332 45.227745745 L68.08008428332 45.227745745 " />
<path d="M60.52102428332 177.700272245 L7.60760428332 177.700272245 " />
<path d="M7.60760428332 177.700272245 L7.60760428332 124.786852245 " />
<path d="M60.52102428332 124.786852245 L60.52102428332 177.700272245 " />
<path d="M7.60760428332 124.786852245 L60.52102428332 124.786852245 " />
<path d="M68.08008428332 185.259332245 L0.04854428332 185.259332245 " />
<path d="M0.04854428332 117.227792245 L68.08008428332 117.227792245 " />
<path d="M68.08008428332 117.227792245 L68.08008428332 185.259332245 " />
<path d="M0.04854428332 185.259332245 L0.04854428332 117.227792245 " />
<path d="M0.04854428332 257.259378745 L0.04854428332 189.22783874499999 " />
<path d="M60.52102428332 196.786898745 L60.52102428332 249.700318745 " />
<path d="M7.60760428332 196.786898745 L60.52102428332 196.786898745 " />
<path d="M60.52102428332 249.700318745 L7.60760428332 249.700318745 " />
<path d="M7.60760428332 249.700318745 L7.60760428332 196.786898745 " />
<path d="M68.08008428332 257.259378745 L0.04854428332 257.259378745 " />
<path d="M68.08008428332 189.22783874499999 L68.08008428332 257.259378745 " />
<path d="M0.04854428332 189.22783874499999 L68.08008428332 189.22783874499999 " />
<path d="M72.04859078332 99.22778062 L140.08013078332 99.22778062 " />
<path d="M140.08013078332 167.25932062 L72.04859078332 167.25932062 " />
<path d="M79.60765078332 106.78684061999999 L132.52107078332 106.78684061999999 " />
<path d="M72.04859078332 167.25932062 L72.04859078332 99.22778062 " />
<path d="M132.52107078332 106.78684061999999 L132.52107078332 159.70026062 " />
<path d="M79.60765078332 159.70026062 L79.60765078332 106.78684061999999 " />
<path d="M132.52107078332 159.70026062 L79.60765078332 159.70026062 " />
<path d="M140.08013078332 99.22778062 L140.08013078332 167.25932062 " />
<path d="M132.52107078332 178.78688712 L132.52107078332 231.70030712 " />
<path d="M140.08013078332 239.25936712 L72.04859078332 239.25936712 " />
<path d="M72.04859078332 239.25936712 L72.04859078332 171.22782712 " />
<path d="M79.60765078332 231.70030712 L79.60765078332 178.78688712 " />
<path d="M79.60765078332 178.78688712 L132.52107078332 178.78688712 " />
<path d="M140.08013078332 171.22782712 L140.08013078332 239.25936712 " />
<path d="M72.04859078332 171.22782712 L140.08013078332 171.22782712 " />
<path d="M132.52107078332 231.70030712 L79.60765078332 231.70030712 " />
<path d="M151.60769728332 25.7867883075 L204.52111728332 25.7867883075 " />
<path d="M144.04863728332 86.2592683075 L144.04863728332 18.2277283075 " />
<path d="M212.08017728332 18.2277283075 L212.08017728332 86.2592683075 " />
<path d="M151.60769728332 78.7002083075 L151.60769728332 25.7867883075 " />
<path d="M204.52111728332 25.7867883075 L204.52111728332 78.7002083075 " />
<path d="M204.52111728332 78.7002083075 L151.60769728332 78.7002083075 " />
<path d="M212.08017728332 86.2592683075 L144.04863728332 86.2592683075 " />
<path d="M144.04863728332 18.2277283075 L212.08017728332 18.2277283075 " />
<path d="M212.08017728332 158.2593148075 L144.04863728332 158.2593148075 " />
<path d="M144.04863728332 158.2593148075 L144.04863728332 90.2277748075 " />
<path d="M144.04863728332 90.2277748075 L212.08017728332 90.2277748075 " />
<path d="M204.52111728332 97.7868348075 L204.52111728332 150.7002548075 " />
<path d="M151.60769728332 150.7002548075 L151.60769728332 97.7868348075 " />
<path d="M212.08017728332 90.2277748075 L212.08017728332 158.2593148075 " />
<path d="M204.52111728332 150.7002548075 L151.60769728332 150.7002548075 " />
<path d="M151.60769728332 97.7868348075 L204.52111728332 97.7868348075 " />
<path d="M151.60769728332 222.70030130749998 L151.60769728332 169.7868813075 " />
<path d="M151.60769728332 169.7868813075 L204.52111728332 169.7868813075 " />
<path d="M212.08017728332 162.2278213075 L212.08017728332 230.2593613075 " />
<path d="M212.08017728332 230.2593613075 L144.04863728332 230.2593613075 " />
<path d="M144.04863728332 162.2278213075 L212.08017728332 162.2278213075 " />
<path d="M204.52111728332 169.7868813075 L204.52111728332 222.70030130749998 " />
<path d="M204.52111728332 222.70030130749998 L151.60769728332 222.70030130749998 " />
<path d="M144.04863728332 230.2593613075 L144.04863728332 162.2278213075 " />
<path d="M216.04868378332 95.25927412 L216.04868378332 27.22773412 " />
<path d="M276.52116378332 87.70021412 L223.60774378332 87.70021412 " />
<path d="M223.60774378332 34.786794119999996 L276.52116378332 34.786794119999996 " />
<path d="M284.08022378332 95.25927412 L216.04868378332 95.25927412 " />
<path d="M216.04868378332 27.22773412 L284.08022378332 27.22773412 " />
<path d="M223.60774378332 87.70021412 L223.60774378332 34.786794119999996 " />
<path d="M276.52116378332 34.786794119999996 L276.52116378332 87.70021412 " />
<path d="M284.08022378332 27.22773412 L284.08022378332 95.25927412 " />
<path d="M284.08022378332 99.22778062 L284.08022378332 167.25932062 " />
<path d="M276.52116378332 106.78684061999999 L276.52116378332 159.70026062 " />
<path d="M223.60774378332 106.78684061999999 L276.52116378332 106.78684061999999 " />
<path d="M284.08022378332 167.25932062 L216.04868378332 167.25932062 " />
<path d="M216.04868378332 99.22778062 L284.08022378332 99.22778062 " />
<path d="M223.60774378332 159.70026062 L223.60774378332 106.78684061999999 " />
<path d="M276.52116378332 159.70026062 L223.60774378332 159.70026062 " />
<path d="M216.04868378332 167.25932062 L216.04868378332 99.22778062 " />
<path d="M284.08022378332 171.22782712 L284.08022378332 239.25936712 " />
<path d="M276.52116378332 178.78688712 L276.52116378332 231.70030712 " />
<path d="M216.04868378332 239.25936712 L216.04868378332 171.22782712 " />
<path d="M276.52116378332 231.70030712 L223.60774378332 231.70030712 " />
<path d="M223.60774378332 231.70030712 L223.60774378332 178.78688712 " />
<path d="M284.08022378332 239.25936712 L216.04868378332 239.25936712 " />
<path d="M223.60774378332 178.78688712 L276.52116378332 178.78688712 " />
<path d="M216.04868378332 171.22782712 L284.08022378332 171.22782712 " />
<path d="M380.14541086475 232.74769803266 L425.96977809743 259.20440803266 " />
<path d="M402.27987681346 315.35464398137 L343.36283214872 281.33887398137 " />
<path d="M353.68870086475 278.57206526534 L380.14541086475 232.74769803266 " />
<path d="M425.96977809743 259.20440803266 L399.51306809743 305.02877526534 " />
<path d="M436.29564681346 256.43759931663 L402.27987681346 315.35464398137 " />
<path d="M399.51306809743 305.02877526534 L353.68870086475 278.57206526534 " />
<path d="M343.36283214872 281.33887398137 L377.37860214872 222.42182931663 " />
<path d="M377.37860214872 222.42182931663 L436.29564681346 256.43759931663 " />
<path d="M301.40832568304 324.01983256976 L249.29877769827 314.83151167501 " />
<path d="M252.35549526295 253.96512905840999 L319.35348120962 265.77868125492 " />
<path d="M310.59664657779 271.91028458499 L301.40832568304 324.01983256976 " />
<path d="M258.48709859302 262.72196369024 L310.59664657779 271.91028458499 " />
<path d="M319.35348120962 265.77868125492 L307.53992901311 332.77666720159 " />
<path d="M249.29877769827 314.83151167501 L258.48709859302 262.72196369024 " />
<path d="M240.54194306643998 320.96311500508 L252.35549526295 253.96512905840999 " />
<path d="M307.53992901311 332.77666720159 L240.54194306643998 320.96311500508 " />
<path d="M317.68867761475 340.92675120534 L344.14538761475 295.10238397266 " />
<path d="M341.37857889872 284.77651525663 L400.29562356345997 318.79228525663 " />
<path d="M366.27985356346 377.70932992137 L307.36280889872 343.69355992137 " />
<path d="M389.96975484743 321.55909397266 L363.51304484743 367.38346120534 " />
<path d="M344.14538761475 295.10238397266 L389.96975484743 321.55909397266 " />
<path d="M400.29562356345997 318.79228525663 L366.27985356346 377.70932992137 " />
<path d="M363.51304484743 367.38346120534 L317.68867761475 340.92675120534 " />
<path d="M307.36280889872 343.69355992137 L341.37857889872 284.77651525663 " />
<path d="M178.04550963332 248.01653813 L230.95892963332 248.01653813 " />
<path d="M238.51798963331998 240.45747813 L238.51798963331998 308.48901813 " />
<path d="M238.51798963331998 308.48901813 L170.48644963332 308.48901813 " />
<path d="M170.48644963332 240.45747813 L238.51798963331998 240.45747813 " />
<path d="M178.04550963332 300.92995813 L178.04550963332 248.01653813 " />
<path d="M230.95892963332 300.92995813 L178.04550963332 300.92995813 " />
<path d="M170.48644963332 308.48901813 L170.48644963332 240.45747813 " />
<path d="M230.95892963332 248.01653813 L230.95892963332 300.92995813 " />
<path d="M420.60648896435 320.25834982551 L450.95637943145 276.91421600566997 " />
<path d="M463.95062278419 350.60824029261 L420.60648896435 320.25834982551 " />
<path d="M494.30051325129 307.26410647277 L463.95062278419 350.60824029261 " />
<path d="M504.8282315465 305.40778653374 L465.80694272322 361.13595858781997 " />
<path d="M450.95637943145 276.91421600566997 L494.30051325129 307.26410647277 " />
<path d="M465.80694272322 361.13595858781997 L410.07877066914 322.11466976454 " />
<path d="M449.10005949242 266.38649771046 L504.8282315465 305.40778653374 " />
<path d="M410.07877066914 322.11466976454 L449.10005949242 266.38649771046 " />
<path d="M407.80245801792 325.36629769131997 L463.530630072 364.3875865146 " />
<path d="M379.30888748985 379.23814980637 L409.65877795695 335.89401598653 " />
<path d="M424.50934124872 420.11575856868 L368.78116919464 381.0944697454 " />
<path d="M422.65302130969 409.58804027346997 L379.30888748985 379.23814980637 " />
<path d="M453.00291177679 366.24390645363 L422.65302130969 409.58804027346997 " />
<path d="M368.78116919464 381.0944697454 L407.80245801792 325.36629769131997 " />
<path d="M409.65877795695 335.89401598653 L453.00291177679 366.24390645363 " />
<path d="M463.530630072 364.3875865146 L424.50934124872 420.11575856868 " />
<path d="M72.04859078332 27.22773412 L72.04859078332 95.25927412 " />
<path d="M79.60765078332 87.70021412 L132.52107078332 87.70021412 " />
<path d="M72.04859078332 95.25927412 L140.08013078332 95.25927412 " />
<path d="M79.60765078332 34.786794119999996 L79.60765078332 87.70021412 " />
<path d="M132.52107078332 34.786794119999996 L79.60765078332 34.786794119999996 " />
<path d="M140.08013078332 27.22773412 L72.04859078332 27.22773412 " />
<path d="M132.52107078332 87.70021412 L132.52107078332 34.786794119999996 " />
<path d="M140.08013078332 95.25927412 L140.08013078332 27.22773412 " />
<path d="M348.52121028332 43.7867999325 L295.60779028332 43.7867999325 " />
<path d="M295.60779028332 43.7867999325 L295.60779028332 96.7002199325 " />
<path d="M295.60779028332 96.7002199325 L348.52121028332 96.7002199325 " />
<path d="M348.52121028332 96.7002199325 L348.52121028332 43.7867999325 " />
<path d="M356.08027028332 104.2592799325 L356.08027028332 36.2277399325 " />
<path d="M288.04873028331997 36.2277399325 L288.04873028331997 104.2592799325 " />
<path d="M288.04873028331997 104.2592799325 L356.08027028332 104.2592799325 " />
<path d="M356.08027028332 36.2277399325 L288.04873028331997 36.2277399325 " />
<path d="M348.52121028332 168.7002664325 L348.52121028332 115.7868464325 " />
<path d="M288.04873028331997 176.2593264325 L356.08027028332 176.2593264325 " />
<path d="M356.08027028332 176.2593264325 L356.08027028332 108.2277864325 " />
<path d="M295.60779028332 168.7002664325 L348.52121028332 168.7002664325 " />
<path d="M288.04873028331997 108.2277864325 L288.04873028331997 176.2593264325 " />
<path d="M295.60779028332 115.7868464325 L295.60779028332 168.7002664325 " />
<path d="M348.52121028332 115.7868464325 L295.60779028332 115.7868464325 " />
<path d="M356.08027028332 108.2277864325 L288.04873028331997 108.2277864325 " />
<path d="M356.08027028332 248.25937293249999 L356.08027028332 180.2278329325 " />
<path d="M288.04873028331997 248.25937293249999 L356.08027028332 248.25937293249999 " />
<path d="M348.52121028332 240.7003129325 L348.52121028332 187.7868929325 " />
<path d="M348.52121028332 187.7868929325 L295.60779028332 187.7868929325 " />
<path d="M356.08027028332 180.2278329325 L288.04873028331997 180.2278329325 " />
<path d="M295.60779028332 240.7003129325 L348.52121028332 240.7003129325 " />
<path d="M295.60779028332 187.7868929325 L295.60779028332 240.7003129325 " />
<path d="M288.04873028331997 180.2278329325 L288.04873028331997 248.25937293249999 " />
</g>
<g style="fill:#000000; fill-opacity:0.0;  stroke:#000000; stroke-width:0.5669295; stroke-opacity:1;  stroke-linecap:round; stroke-linejoin:round;">
</g>
<g style="fill:#D0D2CD; fill-opacity:0.0;  stroke:#D0D2CD; stroke-width:0.5669295; stroke-opacity:1;  stroke-linecap:round; stroke-linejoin:round;">
<path d="M284.14447579332 0.28346475 L336.78107545706 4.11330785336 " />
<path d="M2.8199891605766267 27.498891861622123 A3.43575906932 3.43575906932 0.0 0.0 0.0 0.2847534847132522 30.90898122420819" />
<path d="M240.44011496918 321.00474652803 L306.52935450218 344.72098357704 " />
<path d="M170.36360356973 257.46957352642 L170.36360356973 304.85175341872997 " />
<path d="M142.06438403332 0.28346475 L251.50445471332 0.28346475 " />
<path d="M340.56060545706 7.89283785336 L340.56529963332 40.14238813 " />
<path d="M499.42549945677416 313.35095839455664 A9.59997596376 9.59997596376 0.0 0.0 0.0 497.0681385643022 299.9808649215382" />
<path d="M142.06438403332 0.28346475 L2.81997914407 27.498854925019998 " />
<path d="M497.0681383458 299.98086523358 L436.15645806215 256.42632119911 " />
<path d="M356.04410018122 209.99446633 L356.04410018122 43.8880535412 " />
<path d="M173.71851849235 308.54905218452 L240.44011496918 321.00474652803 " />
<path d="M340.56529963332 40.14238813 L351.90388963332 40.14238813 " />
<path d="M415.95597005538 414.24213839735 L368.88074469202 381.21559990237 " />
<path d="M170.36381544687094 304.8517533452522 A3.71621153391 3.71621153391 0.0 0.0 0.0 173.71851862570315 308.54905082018524" />
<path d="M436.15645806215 256.42632119911 L356.04410018122 209.99446633 " />
<path d="M368.88074469202 381.21559990237 L306.52935450218 344.72098357704 " />
<path d="M0.28475356973 30.90898122188 L0.28475356973 253.69004352642 " />
<path d="M429.48078004999 413.05886960166 L499.42566931719 313.35107733307 " />
<path d="M415.9560368449702 414.2420587997452 A9.60006667248 9.60006667248 0.0 0.0 0.0 429.48077999006176 413.0588695513734" />
<path d="M0.2847119952703939 253.69004352700205 A3.77958291342 3.77958291342 0.0 0.0 0.0 4.06428356973 257.46957352640106" />
<path d="M4.06428356973 257.46957352642 L170.36360356973 257.46957352642 " />
<path d="M251.50445471332 0.28346475 L284.14447579332 0.28346475 " />
<path d="M356.04400573952626 43.8880630126984 A4.160884577 4.160884577 0.0 0.0 0.0 351.90388963332 40.14238813" />
<path d="M340.56071884268783 7.89283785472063 A3.7794846456399998 3.7794846456399998 0.0 0.0 0.0 336.78107545706 4.113307856693545" />
</g> 
</svg>