M48
; DRILL file {KiCad (6.0.7)} date Mon Aug  7 10:14:58 2023
; FORMAT={-:-/ absolute / inch / decimal}
; #@! TF.CreationDate,2023-08-07T10:14:58+01:00
; #@! TF.GenerationSoftware,Kicad,Pcbnew,(6.0.7)
; #@! TF.FileFunction,MixedPlating,1,2
FMAT,2
INCH
; #@! TA.AperFunction,Plated,PTH,ViaDrill
T1C0.0157
; #@! TA.AperFunction,Plated,PTH,ComponentDrill
T2C0.0157
; #@! TA.AperFunction,Plated,PTH,ComponentDrill
T3C0.0197
; #@! TA.AperFunction,Plated,PTH,ComponentDrill
T4C0.0236
; #@! TA.AperFunction,Plated,PTH,ComponentDrill
T5C0.0300
; #@! TA.AperFunction,Plated,PTH,ComponentDrill
T6C0.0315
; #@! TA.AperFunction,Plated,PTH,ComponentDrill
T7C0.0320
; #@! TA.AperFunction,Plated,PTH,ComponentDrill
T8C0.0390
; #@! TA.AperFunction,Plated,PTH,ComponentDrill
T9C0.0512
; #@! TA.AperFunction,Plated,PTH,ComponentDrill
T10C0.0591
; #@! TA.AperFunction,Plated,PTH,ComponentDrill
T11C0.0596
; #@! TA.AperFunction,NonPlated,NPTH,ComponentDrill
T12C0.0472
; #@! TA.AperFunction,NonPlated,NPTH,ComponentDrill
T13C0.0669
; #@! TA.AperFunction,NonPlated,NPTH,ComponentDrill
T14C0.0748
; #@! TA.AperFunction,NonPlated,NPTH,ComponentDrill
T15C0.1575
; #@! TA.AperFunction,NonPlated,NPTH,ComponentDrill
T16C0.1969
%
G90
G05
T1
X4.675Y-3.275
X5.06Y-3.31
X5.1Y-3.06
X5.185Y-2.63
X5.19Y-3.1
X5.19Y-3.235
X5.265Y-3.03
X5.265Y-3.7893
X5.485Y-2.95
X5.515Y-3.1393
X5.54Y-4.735
X5.675Y-2.465
X5.675Y-2.6
X5.805Y-3.725
X5.81Y-2.985
X5.81Y-3.115
X5.86Y-2.98
X6.05Y-2.85
X6.165Y-4.255
X6.225Y-2.95
X6.226Y-4.8299
X6.345Y-3.725
X6.605Y-2.95
X6.6197Y-4.8693
X6.6223Y-4.718
X6.6223Y-4.788
X6.75Y-4.075
X6.795Y-4.7865
X7.0437Y-3.2726
X7.0948Y-4.7485
X7.2102Y-5.1055
X7.3558Y-4.6322
X7.4121Y-3.4588
X7.4275Y-3.0749
T2
X4.127Y-3.36
X4.1335Y-4.11
X4.2215Y-3.36
X4.228Y-4.11
X4.3713Y-2.6067
X4.3713Y-2.6917
X4.45Y-2.6067
X4.45Y-2.6917
X4.4973Y-4.4869
X4.4973Y-4.5814
X4.505Y-2.9708
X4.505Y-3.0992
X4.505Y-3.7158
X4.505Y-3.8442
X4.5287Y-2.6067
X4.5287Y-2.6917
X4.59Y-2.9708
X4.59Y-3.0992
X4.595Y-4.4658
X4.595Y-4.5942
X4.6Y-3.7158
X4.6Y-3.8442
X4.877Y-3.175
X4.877Y-3.925
X4.877Y-4.675
X4.877Y-4.765
X4.9715Y-3.175
X4.9715Y-3.925
X4.9715Y-4.675
X4.9715Y-4.765
X5.255Y-4.2967
X5.255Y-4.425
X5.265Y-3.3367
X5.265Y-3.465
X5.345Y-4.2967
X5.345Y-4.425
X5.622Y-4.58
X5.622Y-4.67
X5.627Y-3.08
X5.627Y-3.83
X5.7165Y-4.58
X5.7165Y-4.67
X5.7215Y-3.08
X5.7215Y-3.83
X5.995Y-3.8617
X5.995Y-3.99
X5.995Y-4.4827
X5.995Y-4.5772
X6.11Y-3.86
X6.11Y-3.9883
X6.2934Y-5.0907
X6.3157Y-4.9643
X6.377Y-3.175
X6.377Y-3.925
X6.3785Y-4.025
X6.4005Y-5.1138
X6.4228Y-4.9874
X6.4715Y-3.175
X6.4715Y-3.925
X6.473Y-4.025
X6.745Y-4.375
X6.745Y-4.5033
X6.75Y-3.68
X6.75Y-3.8083
X6.85Y-3.6817
X6.85Y-3.81
X6.85Y-4.3758
X6.85Y-4.5042
X6.941Y-4.966
X7.0134Y-5.0268
X7.1129Y-3.2419
X7.127Y-4.02
X7.127Y-4.115
X7.1322Y-3.3475
X7.1578Y-5.4116
X7.2215Y-4.02
X7.2215Y-4.115
X7.2267Y-3.3475
X7.2403Y-5.3133
X7.2413Y-3.2419
X7.5093Y-4.7768
X7.5665Y-4.8389
X7.57Y-4.7044
X7.649Y-4.7406
X7.6912Y-5.3204
X7.7636Y-5.3811
X7.8006Y-5.8376
X7.8613Y-5.7652
X7.8771Y-5.9033
X7.9596Y-5.805
X8.2732Y-5.2236
X8.334Y-5.1512
T3
X4.6606Y-2.47
X4.7394Y-2.47
T5
X4.0185Y-2.7038
X4.0187Y-2.6
X4.117Y-2.6
X4.117Y-2.7038
X4.2154Y-2.7038
X4.2156Y-2.6
X5.5716Y-2.31
X5.7684Y-2.31
X6.3116Y-2.31
X6.5084Y-2.31
T6
X3.9Y-2.5587
X3.975Y-3.36
X3.98Y-4.11
X4.2939Y-2.4893
X4.375Y-3.36
X4.38Y-4.11
X4.4973Y-4.3334
X4.4973Y-4.7334
X4.505Y-2.835
X4.505Y-3.235
X4.505Y-3.58
X4.505Y-3.98
X4.59Y-2.835
X4.59Y-3.235
X4.595Y-4.33
X4.595Y-4.73
X4.6Y-3.58
X4.6Y-3.98
X4.725Y-3.175
X4.725Y-3.925
X4.725Y-4.675
X4.725Y-4.765
X5.125Y-3.175
X5.125Y-3.925
X5.125Y-4.675
X5.125Y-4.765
X5.255Y-4.1608
X5.255Y-4.5608
X5.265Y-2.37
X5.265Y-2.77
X5.265Y-3.2008
X5.265Y-3.6008
X5.345Y-4.1608
X5.345Y-4.5608
X5.47Y-4.58
X5.47Y-4.67
X5.475Y-3.08
X5.475Y-3.83
X5.87Y-4.58
X5.87Y-4.67
X5.875Y-3.08
X5.875Y-3.83
X5.995Y-3.7258
X5.995Y-4.1258
X5.995Y-4.3292
X5.995Y-4.7292
X6.11Y-3.7242
X6.11Y-4.1242
X6.225Y-3.175
X6.225Y-3.925
X6.225Y-4.025
X6.2699Y-5.2245
X6.3393Y-4.8306
X6.377Y-5.2476
X6.4464Y-4.8536
X6.625Y-3.175
X6.625Y-3.925
X6.625Y-4.025
X6.745Y-4.2392
X6.745Y-4.6392
X6.75Y-3.5442
X6.75Y-3.9442
X6.8246Y-4.8684
X6.85Y-3.5458
X6.85Y-3.9458
X6.85Y-4.24
X6.85Y-4.64
X6.975Y-4.02
X6.975Y-4.115
X6.9771Y-3.2419
X6.9802Y-3.3475
X7.0705Y-5.5156
X7.131Y-5.1255
X7.3276Y-5.2092
X7.375Y-4.02
X7.375Y-4.115
X7.3771Y-3.2419
X7.3802Y-3.3475
X7.4116Y-4.8932
X7.4791Y-4.943
X7.5748Y-5.2227
X7.6687Y-4.5868
X7.7019Y-5.9552
X7.7363Y-4.6366
X7.7898Y-6.0074
X7.8812Y-5.4798
X7.959Y-5.6488
X8.0469Y-5.7009
X8.1755Y-5.34
X8.4327Y-5.0336
T7
X5.375Y-2.3
X5.375Y-2.4
X5.375Y-2.5
X5.375Y-2.6
X5.375Y-2.7
X5.375Y-2.8
X5.375Y-2.9
X5.375Y-3.0
X5.375Y-3.1
X5.375Y-3.2
X5.375Y-3.3
X5.375Y-3.4
X5.975Y-2.3
X5.975Y-2.4
X5.975Y-2.5
X5.975Y-2.6
X5.975Y-2.7
X5.975Y-2.8
X5.975Y-2.9
X5.975Y-3.0
X5.975Y-3.1
X5.975Y-3.2
X5.975Y-3.3
X5.975Y-3.4
X6.125Y-2.3
X6.125Y-2.4
X6.125Y-2.5
X6.125Y-2.6
X6.125Y-2.7
X6.125Y-2.8
X6.125Y-2.9
X6.125Y-3.0
X6.125Y-3.1
X6.125Y-3.2
X6.125Y-3.3
X6.125Y-3.4
X6.725Y-2.3
X6.725Y-2.4
X6.725Y-2.5
X6.725Y-2.6
X6.725Y-2.7
X6.725Y-2.8
X6.725Y-2.9
X6.725Y-3.0
X6.725Y-3.1
X6.725Y-3.2
X6.725Y-3.3
X6.725Y-3.4
T8
X4.125Y-3.2325
X4.125Y-3.9825
X4.125Y-4.7325
X4.225Y-3.2325
X4.225Y-3.9825
X4.225Y-4.7325
X4.875Y-3.045
X4.875Y-3.795
X4.875Y-4.545
X4.975Y-3.045
X4.975Y-3.795
X4.975Y-4.545
X5.625Y-2.9512
X5.625Y-3.7012
X5.625Y-4.4512
X5.725Y-2.9512
X5.725Y-3.7012
X5.725Y-4.4512
X5.9004Y-5.2661
X6.0004Y-5.2661
X6.375Y-3.045
X6.375Y-3.795
X6.375Y-4.545
X6.475Y-3.045
X6.475Y-3.795
X6.475Y-4.545
X6.6523Y-5.4513
X6.7508Y-5.4686
X7.125Y-3.1387
X7.125Y-3.8887
X7.125Y-4.6387
X7.225Y-3.1387
X7.225Y-3.8887
X7.225Y-4.6387
X7.3626Y-5.8057
X7.4492Y-5.8557
X7.7376Y-5.1562
X7.8242Y-5.2062
X7.9994Y-6.2249
X8.0814Y-6.2823
X8.4296Y-5.6105
X8.5115Y-5.6679
T9
X5.5322Y-2.4084
X5.8078Y-2.4084
X6.2722Y-2.4084
X6.5478Y-2.4084
T10
X4.025Y-2.9325
X4.025Y-3.6825
X4.025Y-4.4325
X4.325Y-2.9325
X4.325Y-3.6825
X4.325Y-4.4325
X4.775Y-2.745
X4.775Y-3.495
X4.775Y-4.245
X5.075Y-2.745
X5.075Y-3.495
X5.075Y-4.245
X5.525Y-2.6513
X5.525Y-3.4013
X5.525Y-4.1513
X5.8004Y-4.9661
X5.825Y-2.6513
X5.825Y-3.4013
X5.825Y-4.1513
X6.1004Y-4.9661
X6.275Y-2.745
X6.275Y-3.495
X6.275Y-4.245
X6.575Y-2.745
X6.575Y-3.495
X6.575Y-4.245
X6.6059Y-5.1385
X6.9014Y-5.1906
X7.025Y-2.8388
X7.025Y-3.5888
X7.025Y-4.3388
X7.325Y-2.8388
X7.325Y-3.5888
X7.325Y-4.3388
X7.426Y-5.4959
X7.6858Y-5.6459
X7.801Y-4.8464
X8.0608Y-4.9964
X8.0896Y-5.9218
X8.3353Y-6.0939
X8.5198Y-5.3074
X8.7655Y-5.4795
T12
X7.0348Y-2.3727
X7.0348Y-2.5302
X7.3104Y-2.3727
X7.3104Y-2.5302
T13
X3.975Y-3.0325
X3.975Y-3.7825
X3.975Y-4.5325
X4.375Y-3.0325
X4.375Y-3.7825
X4.375Y-4.5325
X4.725Y-2.845
X4.725Y-3.595
X4.725Y-4.345
X5.125Y-2.845
X5.125Y-3.595
X5.125Y-4.345
X5.475Y-2.7512
X5.475Y-3.5012
X5.475Y-4.2512
X5.7504Y-5.0661
X5.875Y-2.7512
X5.875Y-3.5012
X5.875Y-4.2512
X6.1504Y-5.0661
X6.225Y-2.845
X6.225Y-3.595
X6.225Y-4.345
X6.5393Y-5.2283
X6.625Y-2.845
X6.625Y-3.595
X6.625Y-4.345
X6.9332Y-5.2977
X6.975Y-2.9387
X6.975Y-3.6887
X6.975Y-4.4387
X7.3327Y-5.5575
X7.375Y-2.9387
X7.375Y-3.6887
X7.375Y-4.4387
X7.6791Y-5.7575
X7.7077Y-4.908
X7.9913Y-5.975
X8.0541Y-5.108
X8.3189Y-6.2045
X8.4215Y-5.3607
X8.7491Y-5.5901
T14
X3.9585Y-3.0325
X3.9585Y-3.7825
X3.9585Y-4.5325
X4.3915Y-3.0325
X4.3915Y-3.7825
X4.3915Y-4.5325
X4.7085Y-2.845
X4.7085Y-3.595
X4.7085Y-4.345
X5.1415Y-2.845
X5.1415Y-3.595
X5.1415Y-4.345
X5.4585Y-2.7512
X5.4585Y-3.5012
X5.4585Y-4.2512
X5.7339Y-5.0661
X5.8915Y-2.7512
X5.8915Y-3.5012
X5.8915Y-4.2512
X6.1669Y-5.0661
X6.2085Y-2.845
X6.2085Y-3.595
X6.2085Y-4.345
X6.523Y-5.2254
X6.6415Y-2.845
X6.6415Y-3.595
X6.6415Y-4.345
X6.9495Y-5.3006
X6.9585Y-2.9387
X6.9585Y-3.6887
X6.9585Y-4.4387
X7.3184Y-5.5492
X7.3915Y-2.9387
X7.3915Y-3.6887
X7.3915Y-4.4387
X7.6934Y-4.8997
X7.6934Y-5.7658
X7.9777Y-5.9656
X8.0684Y-5.1162
X8.3325Y-6.214
X8.4079Y-5.3512
X8.7627Y-5.5996
T15
X4.175Y-3.0325
X4.175Y-3.7825
X4.175Y-4.5325
X4.925Y-2.845
X4.925Y-3.595
X4.925Y-4.345
X5.675Y-2.7512
X5.675Y-3.5012
X5.675Y-4.2512
X5.9504Y-5.0661
X6.425Y-2.845
X6.425Y-3.595
X6.425Y-4.345
X6.7363Y-5.263
X7.175Y-2.9387
X7.175Y-3.6887
X7.175Y-4.4387
X7.5059Y-5.6575
X7.8809Y-5.008
X8.1551Y-6.0898
X8.5853Y-5.4754
T16
X4.5357Y-4.1723
X4.5511Y-3.4058
X5.055Y-2.43
X5.3Y-3.97
X6.9204Y-3.0953
X7.2664Y-4.9161
X8.037Y-5.4598
T4
G00X6.9226Y-2.2939
M15
G01X6.8871Y-2.2939
M16
G05
G00X6.9226Y-2.6089
M15
G01X6.8871Y-2.6089
M16
G05
G00X6.9816Y-2.4514
M15
G01X6.9462Y-2.4514
M16
G05
G00X7.1391Y-2.4514
M15
G01X7.1037Y-2.4514
M16
G05
G00X7.2572Y-2.4514
M15
G01X7.2218Y-2.4514
M16
G05
T11
G00X4.0758Y-2.8349
M15
G01X4.0758Y-2.8757
M16
G05
G00X4.0758Y-3.5849
M15
G01X4.0758Y-3.6257
M16
G05
G00X4.0758Y-4.3349
M15
G01X4.0758Y-4.3757
M16
G05
G00X4.2742Y-2.8349
M15
G01X4.2742Y-2.8757
M16
G05
G00X4.2742Y-3.5849
M15
G01X4.2742Y-3.6257
M16
G05
G00X4.2742Y-4.3349
M15
G01X4.2742Y-4.3757
M16
G05
G00X4.8258Y-2.6882
M15
G01X4.8258Y-2.6474
M16
G05
G00X4.8258Y-3.3974
M15
G01X4.8258Y-3.4382
M16
G05
G00X4.8258Y-4.1474
M15
G01X4.8258Y-4.1882
M16
G05
G00X5.0242Y-2.6882
M15
G01X5.0242Y-2.6474
M16
G05
G00X5.0242Y-3.3974
M15
G01X5.0242Y-3.4382
M16
G05
G00X5.0242Y-4.1474
M15
G01X5.0242Y-4.1882
M16
G05
G00X5.5758Y-2.5537
M15
G01X5.5758Y-2.5945
M16
G05
G00X5.5758Y-3.3037
M15
G01X5.5758Y-3.3445
M16
G05
G00X5.5758Y-4.0537
M15
G01X5.5758Y-4.0945
M16
G05
G00X5.7742Y-2.5537
M15
G01X5.7742Y-2.5945
M16
G05
G00X5.7742Y-3.3037
M15
G01X5.7742Y-3.3445
M16
G05
G00X5.7742Y-4.0537
M15
G01X5.7742Y-4.0945
M16
G05
G00X5.8512Y-4.8686
M15
G01X5.8512Y-4.9094
M16
G05
G00X6.0496Y-4.8686
M15
G01X6.0496Y-4.9094
M16
G05
G00X6.3258Y-2.6474
M15
G01X6.3258Y-2.6882
M16
G05
G00X6.3258Y-3.3974
M15
G01X6.3258Y-3.4382
M16
G05
G00X6.3258Y-4.1474
M15
G01X6.3258Y-4.1882
M16
G05
G00X6.5242Y-2.6474
M15
G01X6.5242Y-2.6882
M16
G05
G00X6.5242Y-3.3974
M15
G01X6.5242Y-3.4382
M16
G05
G00X6.5242Y-4.1474
M15
G01X6.5242Y-4.1882
M16
G05
G00X6.6729Y-5.0512
M15
G01X6.6658Y-5.0914
M16
G05
G00X6.8683Y-5.0856
M15
G01X6.8612Y-5.1258
M16
G05
G00X7.0758Y-2.782
M15
G01X7.0758Y-2.7412
M16
G05
G00X7.0758Y-3.532
M15
G01X7.0758Y-3.4912
M16
G05
G00X7.0758Y-4.282
M15
G01X7.0758Y-4.2412
M16
G05
G00X7.2742Y-2.782
M15
G01X7.2742Y-2.7412
M16
G05
G00X7.2742Y-3.532
M15
G01X7.2742Y-3.4912
M16
G05
G00X7.2742Y-4.282
M15
G01X7.2742Y-4.2412
M16
G05
G00X7.5188Y-5.4368
M15
G01X7.4983Y-5.4721
M16
G05
G00X7.6906Y-5.536
M15
G01X7.6702Y-5.5713
M16
G05
G00X7.8938Y-4.7873
M15
G01X7.8733Y-4.8226
M16
G05
G00X8.0656Y-4.8865
M15
G01X8.0452Y-4.9218
M16
G05
G00X8.1872Y-5.871
M15
G01X8.1638Y-5.9045
M16
G05
G00X8.3497Y-5.9848
M15
G01X8.3263Y-6.0183
M16
G05
G00X8.6174Y-5.2566
M15
G01X8.5939Y-5.2901
M16
G05
G00X8.7799Y-5.3705
M15
G01X8.7565Y-5.4039
M16
G05
T0
M30
