G04 #@! TF.GenerationSoftware,KiCad,Pcbnew,(6.0.7)*
G04 #@! TF.CreationDate,2023-08-18T09:51:37+01:00*
G04 #@! TF.ProjectId,edwardash,65647761-7264-4617-9368-2e6b69636164,0.1*
G04 #@! TF.SameCoordinates,Original*
G04 #@! TF.FileFunction,Soldermask,Top*
G04 #@! TF.FilePolarity,Negative*
%FSLAX46Y46*%
G04 Gerber Fmt 4.6, Leading zero omitted, Abs format (unit mm)*
G04 Created by KiCad (PCBNEW (6.0.7)) date 2023-08-18 09:51:37*
%MOMM*%
%LPD*%
G01*
G04 APERTURE LIST*
G04 Aperture macros list*
%AMRoundRect*
0 Rectangle with rounded corners*
0 $1 Rounding radius*
0 $2 $3 $4 $5 $6 $7 $8 $9 X,Y pos of 4 corners*
0 Add a 4 corners polygon primitive as box body*
4,1,4,$2,$3,$4,$5,$6,$7,$8,$9,$2,$3,0*
0 Add four circle primitives for the rounded corners*
1,1,$1+$1,$2,$3*
1,1,$1+$1,$4,$5*
1,1,$1+$1,$6,$7*
1,1,$1+$1,$8,$9*
0 Add four rect primitives between the rounded corners*
20,1,$1+$1,$2,$3,$4,$5,0*
20,1,$1+$1,$4,$5,$6,$7,0*
20,1,$1+$1,$6,$7,$8,$9,0*
20,1,$1+$1,$8,$9,$2,$3,0*%
%AMHorizOval*
0 Thick line with rounded ends*
0 $1 width*
0 $2 $3 position (X,Y) of the first rounded end (center of the circle)*
0 $4 $5 position (X,Y) of the second rounded end (center of the circle)*
0 Add line between two ends*
20,1,$1,$2,$3,$4,$5,0*
0 Add two circle primitives to create the rounded ends*
1,1,$1,$2,$3*
1,1,$1,$4,$5*%
G04 Aperture macros list end*
%ADD10C,2.000000*%
%ADD11HorizOval,2.000000X0.000000X0.000000X0.000000X0.000000X0*%
%ADD12O,2.000000X2.000000*%
%ADD13C,1.924000*%
%ADD14C,2.200000*%
%ADD15C,5.400000*%
%ADD16RoundRect,0.200000X-0.762000X-0.762000X0.762000X-0.762000X0.762000X0.762000X-0.762000X0.762000X0*%
%ADD17RoundRect,0.200000X0.700000X0.600000X-0.700000X0.600000X-0.700000X-0.600000X0.700000X-0.600000X0*%
%ADD18RoundRect,0.200000X-0.700000X-0.600000X0.700000X-0.600000X0.700000X0.600000X-0.700000X0.600000X0*%
%ADD19RoundRect,0.200000X-0.600000X0.700000X-0.600000X-0.700000X0.600000X-0.700000X0.600000X0.700000X0*%
%ADD20RoundRect,0.200000X0.921904X0.009675X-0.150559X0.909578X-0.921904X-0.009675X0.150559X-0.909578X0*%
%ADD21HorizOval,2.000000X0.000000X0.000000X0.000000X0.000000X0*%
%ADD22RoundRect,0.200000X-0.952500X-0.952500X0.952500X-0.952500X0.952500X0.952500X-0.952500X0.952500X0*%
%ADD23C,2.305000*%
%ADD24RoundRect,0.200000X-1.103429X-0.772629X0.772629X-1.103429X1.103429X0.772629X-0.772629X1.103429X0*%
%ADD25RoundRect,0.200000X0.098605X-1.127066X1.127066X0.098605X-0.098605X1.127066X-1.127066X-0.098605X0*%
%ADD26RoundRect,0.200000X-0.054603X-0.998508X0.973857X0.227163X0.054603X0.998508X-0.973857X-0.227163X0*%
%ADD27HorizOval,2.000000X0.000000X0.000000X0.000000X0.000000X0*%
%ADD28RoundRect,0.200000X-0.450000X-0.400000X0.450000X-0.400000X0.450000X0.400000X-0.450000X0.400000X0*%
%ADD29C,2.300000*%
%ADD30C,2.100000*%
%ADD31C,4.400000*%
%ADD32HorizOval,2.800000X0.578509X0.689440X-0.578509X-0.689440X0*%
%ADD33O,2.700000X3.737000*%
%ADD34HorizOval,2.800000X0.578509X-0.689440X-0.578509X0.689440X0*%
%ADD35HorizOval,2.800000X0.845723X0.307818X-0.845723X-0.307818X0*%
%ADD36HorizOval,2.700000X-0.259250X-0.449034X0.259250X0.449034X0*%
%ADD37HorizOval,2.800000X0.156283X-0.886327X-0.156283X0.886327X0*%
%ADD38HorizOval,2.800000X0.689440X0.578509X-0.689440X-0.578509X0*%
%ADD39HorizOval,2.700000X-0.090037X-0.510623X0.090037X0.510623X0*%
%ADD40HorizOval,2.800000X0.450000X-0.779423X-0.450000X0.779423X0*%
%ADD41HorizOval,2.700000X-0.297399X-0.424730X0.297399X0.424730X0*%
%ADD42HorizOval,2.800000X0.869333X0.232937X-0.869333X-0.232937X0*%
%ADD43HorizOval,2.800000X0.078440X-0.896575X-0.078440X0.896575X0*%
%ADD44RoundRect,0.200000X-1.301139X-0.348639X0.348639X-1.301139X1.301139X0.348639X-0.348639X1.301139X0*%
%ADD45RoundRect,0.200000X-1.326574X-0.233911X0.233911X-1.326574X1.326574X0.233911X-0.233911X1.326574X0*%
%ADD46RoundRect,0.200000X-0.009675X0.921904X-0.909578X-0.150559X0.009675X-0.921904X0.909578X0.150559X0*%
%ADD47HorizOval,2.000000X0.000000X0.000000X0.000000X0.000000X0*%
%ADD48RoundRect,0.200000X0.009675X-0.921904X0.909578X0.150559X-0.009675X0.921904X-0.909578X-0.150559X0*%
%ADD49RoundRect,0.200000X0.800000X-0.800000X0.800000X0.800000X-0.800000X0.800000X-0.800000X-0.800000X0*%
%ADD50RoundRect,0.200000X0.600000X-0.800000X0.600000X0.800000X-0.600000X0.800000X-0.600000X-0.800000X0*%
%ADD51RoundRect,0.200000X0.800000X0.600000X-0.800000X0.600000X-0.800000X-0.600000X0.800000X-0.600000X0*%
%ADD52RoundRect,0.200000X0.800000X0.800000X-0.800000X0.800000X-0.800000X-0.800000X0.800000X-0.800000X0*%
%ADD53RoundRect,0.200000X0.648928X-0.926765X0.926765X0.648928X-0.648928X0.926765X-0.926765X-0.648928X0*%
%ADD54RoundRect,0.200000X0.451966X-0.892035X0.729803X0.683657X-0.451966X0.892035X-0.729803X-0.683657X0*%
%ADD55HorizOval,2.000000X0.000000X0.000000X0.000000X0.000000X0*%
%ADD56C,1.610000*%
%ADD57O,2.600000X1.700000*%
%ADD58HorizOval,2.800000X-0.578509X0.689440X0.578509X-0.689440X0*%
%ADD59HorizOval,2.800000X-0.578509X-0.689440X0.578509X0.689440X0*%
G04 APERTURE END LIST*
D10*
X99060000Y-64992002D03*
D11*
X109065647Y-63227737D03*
D10*
X133731000Y-60198000D03*
D12*
X133731000Y-70358000D03*
D13*
X160314000Y-58674000D03*
X165314000Y-58674000D03*
D14*
X159314000Y-61174000D03*
X166314000Y-61174000D03*
D15*
X134620000Y-100838000D03*
X184567441Y-124867673D03*
X115598340Y-86506566D03*
X115207141Y-105976229D03*
D16*
X118380000Y-62738000D03*
X120380000Y-62738000D03*
D13*
X102070829Y-68676946D03*
X104570829Y-68676946D03*
X107070829Y-68676946D03*
D17*
X107225000Y-85344000D03*
D10*
X111125000Y-85344000D03*
D17*
X104825000Y-85344000D03*
D12*
X100965000Y-85344000D03*
D17*
X126275000Y-80645000D03*
D10*
X130175000Y-80645000D03*
D12*
X120015000Y-80645000D03*
D17*
X123875000Y-80645000D03*
X145325000Y-78232000D03*
D10*
X149225000Y-78232000D03*
D12*
X139065000Y-78232000D03*
D17*
X142925000Y-78232000D03*
X164375000Y-80645000D03*
D10*
X168275000Y-80645000D03*
D17*
X161975000Y-80645000D03*
D12*
X158115000Y-80645000D03*
D17*
X183558217Y-85027192D03*
D10*
X187458217Y-85027192D03*
D17*
X181158217Y-85027192D03*
D12*
X177298217Y-85027192D03*
D10*
X101092000Y-104394000D03*
D18*
X104992000Y-104394000D03*
D12*
X111252000Y-104394000D03*
D18*
X107392000Y-104394000D03*
D10*
X130175000Y-99695000D03*
D17*
X126275000Y-99695000D03*
D12*
X120015000Y-99695000D03*
D17*
X123875000Y-99695000D03*
D10*
X149225000Y-97282000D03*
D17*
X145325000Y-97282000D03*
X142925000Y-97282000D03*
D12*
X139065000Y-97282000D03*
D17*
X164375000Y-99695000D03*
D10*
X168275000Y-99695000D03*
D17*
X161975000Y-99695000D03*
D12*
X158115000Y-99695000D03*
D17*
X183425000Y-102108000D03*
D10*
X187325000Y-102108000D03*
D12*
X177165000Y-102108000D03*
D17*
X181025000Y-102108000D03*
D19*
X114230584Y-113968374D03*
D10*
X114230584Y-110068374D03*
D12*
X114230584Y-120228374D03*
D19*
X114230584Y-116368374D03*
D10*
X130175000Y-118745000D03*
D17*
X126275000Y-118745000D03*
X123875000Y-118745000D03*
D12*
X120015000Y-118745000D03*
D17*
X183425000Y-104521000D03*
D10*
X187325000Y-104521000D03*
D17*
X181025000Y-104521000D03*
D12*
X177165000Y-104521000D03*
D20*
X178140000Y-127680000D03*
D10*
X181127573Y-130186872D03*
D21*
X173344561Y-123656150D03*
D20*
X176301493Y-126137310D03*
D17*
X126275000Y-121031000D03*
D10*
X130175000Y-121031000D03*
D12*
X120015000Y-121031000D03*
D17*
X123875000Y-121031000D03*
X145198000Y-118618000D03*
D10*
X149098000Y-118618000D03*
D12*
X138938000Y-118618000D03*
D17*
X142798000Y-118618000D03*
D15*
X128397000Y-61722000D03*
D22*
X107315000Y-82105500D03*
D23*
X104775000Y-82105500D03*
D22*
X126365000Y-77343000D03*
D23*
X123825000Y-77343000D03*
D22*
X145415000Y-74961750D03*
D23*
X142875000Y-74961750D03*
D22*
X164465000Y-77343000D03*
D23*
X161925000Y-77343000D03*
D22*
X183515000Y-79724250D03*
D23*
X180975000Y-79724250D03*
D22*
X107315000Y-101155500D03*
D23*
X104775000Y-101155500D03*
D22*
X126365000Y-96393000D03*
D23*
X123825000Y-96393000D03*
D22*
X145415000Y-94011750D03*
D23*
X142875000Y-94011750D03*
D22*
X164465000Y-96393000D03*
D23*
X161925000Y-96393000D03*
D22*
X183515000Y-98774250D03*
D23*
X180975000Y-98774250D03*
D22*
X107315000Y-120205500D03*
D23*
X104775000Y-120205500D03*
D22*
X126365000Y-115443000D03*
D23*
X123825000Y-115443000D03*
D22*
X145415000Y-113061750D03*
D23*
X142875000Y-113061750D03*
D22*
X164465000Y-115443000D03*
D23*
X161925000Y-115443000D03*
D22*
X183515000Y-117824250D03*
D23*
X180975000Y-117824250D03*
D24*
X171470180Y-138903357D03*
D23*
X168968768Y-138462290D03*
D13*
X136525000Y-58420000D03*
X136525000Y-60960000D03*
X136525000Y-63500000D03*
X136525000Y-66040000D03*
X136525000Y-68580000D03*
X136525000Y-71120000D03*
X136525000Y-73660000D03*
X136525000Y-76200000D03*
X136525000Y-78740000D03*
X136525000Y-81280000D03*
X136525000Y-83820000D03*
X136525000Y-86360000D03*
X151765000Y-86360000D03*
X151765000Y-83820000D03*
X151765000Y-81280000D03*
X151765000Y-78740000D03*
X151765000Y-76200000D03*
X151765000Y-73660000D03*
X151765000Y-71120000D03*
X151765000Y-68580000D03*
X151765000Y-66040000D03*
X151765000Y-63500000D03*
X151765000Y-60960000D03*
X151765000Y-58420000D03*
D22*
X152410000Y-133760000D03*
D23*
X149870000Y-133760000D03*
D25*
X197861783Y-152586827D03*
D26*
X200079400Y-149943974D03*
D27*
X204392505Y-144803815D03*
D26*
X202174888Y-147446669D03*
D28*
X167222000Y-120730000D03*
X167222000Y-122630000D03*
X169222000Y-121680000D03*
D29*
X100545000Y-77025500D03*
D30*
X100965000Y-77025500D03*
D31*
X106045000Y-77025500D03*
D30*
X111125000Y-77025500D03*
D29*
X111545000Y-77025500D03*
D32*
X102684951Y-73949269D03*
D33*
X103525000Y-72525500D03*
X108565000Y-72525500D03*
D34*
X109405049Y-73949269D03*
D29*
X100545000Y-96075500D03*
D30*
X111125000Y-96075500D03*
D29*
X111545000Y-96075500D03*
D30*
X100965000Y-96075500D03*
D31*
X106045000Y-96075500D03*
D33*
X103525000Y-91575500D03*
D32*
X102684951Y-92999269D03*
D33*
X108565000Y-91575500D03*
D34*
X109405049Y-92999269D03*
D30*
X100965000Y-115125500D03*
D29*
X100545000Y-115125500D03*
X111545000Y-115125500D03*
D30*
X111125000Y-115125500D03*
D31*
X106045000Y-115125500D03*
D33*
X103525000Y-110625500D03*
D32*
X102684951Y-112049269D03*
D33*
X108565000Y-110625500D03*
D34*
X109405049Y-112049269D03*
D29*
X130595000Y-91313000D03*
D31*
X125095000Y-91313000D03*
D30*
X120015000Y-91313000D03*
D29*
X119595000Y-91313000D03*
D30*
X130175000Y-91313000D03*
D33*
X122575000Y-86813000D03*
D32*
X121734951Y-88236769D03*
D33*
X127615000Y-86813000D03*
D34*
X128455049Y-88236769D03*
D31*
X125095000Y-110363000D03*
D30*
X130175000Y-110363000D03*
X120015000Y-110363000D03*
D29*
X119595000Y-110363000D03*
X130595000Y-110363000D03*
D33*
X122575000Y-105863000D03*
D32*
X121734951Y-107286769D03*
D34*
X128455049Y-107286769D03*
D33*
X127615000Y-105863000D03*
D29*
X149645000Y-69881750D03*
D30*
X139065000Y-69881750D03*
D29*
X138645000Y-69881750D03*
D30*
X149225000Y-69881750D03*
D31*
X144145000Y-69881750D03*
D33*
X141625000Y-65381750D03*
D32*
X140784951Y-66805519D03*
D33*
X146665000Y-65381750D03*
D34*
X147505049Y-66805519D03*
D30*
X149225000Y-88931750D03*
X139065000Y-88931750D03*
D29*
X138645000Y-88931750D03*
X149645000Y-88931750D03*
D31*
X144145000Y-88931750D03*
D33*
X141625000Y-84431750D03*
D32*
X140784951Y-85855519D03*
D34*
X147505049Y-85855519D03*
D33*
X146665000Y-84431750D03*
D29*
X149645000Y-107981750D03*
D31*
X144145000Y-107981750D03*
D30*
X149225000Y-107981750D03*
X139065000Y-107981750D03*
D29*
X138645000Y-107981750D03*
D32*
X140784951Y-104905519D03*
D33*
X141625000Y-103481750D03*
D34*
X147505049Y-104905519D03*
D33*
X146665000Y-103481750D03*
D30*
X168275000Y-72263000D03*
D29*
X168695000Y-72263000D03*
D30*
X158115000Y-72263000D03*
D31*
X163195000Y-72263000D03*
D29*
X157695000Y-72263000D03*
D32*
X159834951Y-69186769D03*
D33*
X160675000Y-67763000D03*
X165715000Y-67763000D03*
D34*
X166555049Y-69186769D03*
D29*
X168695000Y-91313000D03*
X157695000Y-91313000D03*
D30*
X158115000Y-91313000D03*
X168275000Y-91313000D03*
D31*
X163195000Y-91313000D03*
D33*
X160675000Y-86813000D03*
D32*
X159834951Y-88236769D03*
D33*
X165715000Y-86813000D03*
D34*
X166555049Y-88236769D03*
D31*
X163195000Y-110363000D03*
D30*
X158115000Y-110363000D03*
X168275000Y-110363000D03*
D29*
X168695000Y-110363000D03*
X157695000Y-110363000D03*
D33*
X160675000Y-105863000D03*
D32*
X159834951Y-107286769D03*
D34*
X166555049Y-107286769D03*
D33*
X165715000Y-105863000D03*
D30*
X204573818Y-129742300D03*
X195775000Y-124662300D03*
D29*
X204937549Y-129952300D03*
D31*
X200174409Y-127202300D03*
D29*
X195411269Y-124452300D03*
D35*
X198802637Y-122858181D03*
D36*
X200242025Y-122045186D03*
D37*
X204622412Y-126218230D03*
D36*
X204606793Y-124565186D03*
D30*
X176104430Y-134562133D03*
X166098784Y-132797867D03*
D31*
X171101607Y-133680000D03*
D29*
X165685164Y-132724935D03*
X176518050Y-134635065D03*
D38*
X168326787Y-130067038D03*
D39*
X169401308Y-128810772D03*
D40*
X174944791Y-131233969D03*
D39*
X174364739Y-129685959D03*
D30*
X195048818Y-146240300D03*
D29*
X195412549Y-146450300D03*
X185886269Y-140950300D03*
D30*
X186250000Y-141160300D03*
D31*
X190649409Y-143700300D03*
D36*
X190717025Y-138543186D03*
D35*
X189277637Y-139356181D03*
D36*
X195081793Y-141063186D03*
D37*
X195097412Y-142716230D03*
D31*
X151140000Y-128680000D03*
D30*
X156220000Y-128680000D03*
D29*
X145640000Y-128680000D03*
X156640000Y-128680000D03*
D30*
X146060000Y-128680000D03*
D32*
X147779951Y-125603769D03*
D33*
X148620000Y-124180000D03*
X153660000Y-124180000D03*
D34*
X154500049Y-125603769D03*
D29*
X213561314Y-135920268D03*
D30*
X222227942Y-141988706D03*
D29*
X222571986Y-142229608D03*
D30*
X213905358Y-136161170D03*
D31*
X218066650Y-139074938D03*
D41*
X218583481Y-133943341D03*
D42*
X217078713Y-134627793D03*
D43*
X222583495Y-138482281D03*
D41*
X222712007Y-136834166D03*
D30*
X202978708Y-151766232D03*
D29*
X202634664Y-151525330D03*
X211645336Y-157834670D03*
D31*
X207140000Y-154680000D03*
D30*
X211301292Y-157593768D03*
D42*
X206152063Y-150232855D03*
D41*
X207656831Y-149548403D03*
D43*
X211656845Y-154087343D03*
D41*
X211785357Y-152439228D03*
D44*
X198734261Y-132236709D03*
D23*
X196534557Y-130966709D03*
D45*
X216193205Y-143964672D03*
D23*
X214112559Y-142507788D03*
D44*
X189209261Y-148734709D03*
D23*
X187009557Y-147464709D03*
D45*
X205266555Y-159569734D03*
D23*
X203185909Y-158112850D03*
D10*
X194785041Y-116504139D03*
D46*
X192278169Y-119491712D03*
D47*
X188254319Y-124287151D03*
D46*
X190735479Y-121330219D03*
D10*
X214189562Y-127853920D03*
D46*
X211682690Y-130841493D03*
D47*
X207658840Y-135636932D03*
D46*
X210140000Y-132680000D03*
D20*
X197196028Y-136680000D03*
D10*
X200183601Y-139186872D03*
D20*
X195357521Y-135137310D03*
D21*
X192400589Y-132656150D03*
D48*
X198134458Y-148275297D03*
D10*
X195627586Y-151262870D03*
D48*
X199677148Y-146436790D03*
D27*
X202158308Y-143479858D03*
D49*
X114427000Y-82169000D03*
D50*
X114427000Y-78719000D03*
D12*
X114427000Y-72009000D03*
D50*
X114427000Y-75459000D03*
X114427000Y-97642000D03*
D49*
X114427000Y-101092000D03*
D50*
X114427000Y-94382000D03*
D12*
X114427000Y-90932000D03*
D49*
X116713000Y-120142000D03*
D50*
X116713000Y-116692000D03*
X116713000Y-113432000D03*
D12*
X116713000Y-109982000D03*
D49*
X116586000Y-82169000D03*
D50*
X116586000Y-78719000D03*
X116586000Y-75459000D03*
D12*
X116586000Y-72009000D03*
D49*
X155194000Y-104754000D03*
D50*
X155194000Y-101304000D03*
D12*
X155194000Y-94594000D03*
D50*
X155194000Y-98044000D03*
X171450000Y-96732000D03*
D49*
X171450000Y-100182000D03*
D12*
X171450000Y-90022000D03*
D50*
X171450000Y-93472000D03*
X171323000Y-114385000D03*
D49*
X171323000Y-117835000D03*
D12*
X171323000Y-107675000D03*
D50*
X171323000Y-111125000D03*
D51*
X183928155Y-82343258D03*
D52*
X187378155Y-82343258D03*
D51*
X180668155Y-82343258D03*
D12*
X177218155Y-82343258D03*
D50*
X173990000Y-114406000D03*
D49*
X173990000Y-117856000D03*
D50*
X173990000Y-111146000D03*
D12*
X173990000Y-107696000D03*
D26*
X192187903Y-122909011D03*
D25*
X189970286Y-125551864D03*
D27*
X196501008Y-117768852D03*
D26*
X194283391Y-120411706D03*
D53*
X159254395Y-132702520D03*
D54*
X159853481Y-129304933D03*
D55*
X161018660Y-122696873D03*
D54*
X160419574Y-126094460D03*
D53*
X161974821Y-133288060D03*
D54*
X162573907Y-129890473D03*
D55*
X163739086Y-123282413D03*
D54*
X163140000Y-126680000D03*
D26*
X181807617Y-137453877D03*
D25*
X179590000Y-140096730D03*
D27*
X186120722Y-132313718D03*
D26*
X183903105Y-134956572D03*
D10*
X158115000Y-102235000D03*
D18*
X162015000Y-102235000D03*
X164415000Y-102235000D03*
D12*
X168275000Y-102235000D03*
D19*
X152273000Y-113861000D03*
D10*
X152273000Y-109961000D03*
D19*
X152273000Y-116261000D03*
D12*
X152273000Y-120121000D03*
D16*
X111030000Y-66209000D03*
X113030000Y-66209000D03*
X115030000Y-66209000D03*
X111030000Y-68368000D03*
X113030000Y-68368000D03*
X115030000Y-68368000D03*
D49*
X152273000Y-104796000D03*
D50*
X152273000Y-101346000D03*
X152273000Y-98086000D03*
D12*
X152273000Y-94636000D03*
D50*
X135763000Y-112395000D03*
D49*
X135763000Y-115845000D03*
D50*
X135763000Y-109135000D03*
D12*
X135763000Y-105685000D03*
D49*
X173990000Y-100224000D03*
D50*
X173990000Y-96774000D03*
X173990000Y-93514000D03*
D12*
X173990000Y-90064000D03*
D56*
X185682981Y-60266219D03*
X178682981Y-60266219D03*
X185682981Y-64266219D03*
X178682981Y-64266219D03*
D57*
X176882981Y-62266219D03*
X183882981Y-62266219D03*
X180882981Y-62266219D03*
X175382981Y-58266219D03*
X175382981Y-66266219D03*
D50*
X133477000Y-112395000D03*
D49*
X133477000Y-115845000D03*
D50*
X133477000Y-109135000D03*
D12*
X133477000Y-105685000D03*
D50*
X133731000Y-88011000D03*
D49*
X133731000Y-91461000D03*
D50*
X133731000Y-84751000D03*
D12*
X133731000Y-81301000D03*
D49*
X116840000Y-101092000D03*
D50*
X116840000Y-97642000D03*
X116840000Y-94382000D03*
D12*
X116840000Y-90932000D03*
D17*
X145198000Y-116332000D03*
D10*
X149098000Y-116332000D03*
D12*
X138938000Y-116332000D03*
D17*
X142798000Y-116332000D03*
D13*
X107076249Y-66040000D03*
X102076249Y-66040000D03*
D15*
X175778893Y-78619815D03*
X204140000Y-138680000D03*
D13*
X104570829Y-66040000D03*
X146518000Y-58674000D03*
X141518000Y-58674000D03*
D14*
X140518000Y-61174000D03*
X147518000Y-61174000D03*
D13*
X170815000Y-58420000D03*
X170815000Y-60960000D03*
X170815000Y-63500000D03*
X170815000Y-66040000D03*
X170815000Y-68580000D03*
X170815000Y-71120000D03*
X170815000Y-73660000D03*
X170815000Y-76200000D03*
X170815000Y-78740000D03*
X170815000Y-81280000D03*
X170815000Y-83820000D03*
X170815000Y-86360000D03*
X155575000Y-86360000D03*
X155575000Y-83820000D03*
X155575000Y-81280000D03*
X155575000Y-78740000D03*
X155575000Y-76200000D03*
X155575000Y-73660000D03*
X155575000Y-71120000D03*
X155575000Y-68580000D03*
X155575000Y-66040000D03*
X155575000Y-63500000D03*
X155575000Y-60960000D03*
X155575000Y-58420000D03*
D29*
X119595000Y-72263000D03*
D30*
X130175000Y-72263000D03*
D31*
X125095000Y-72263000D03*
D30*
X120015000Y-72263000D03*
D29*
X130595000Y-72263000D03*
D33*
X127615000Y-67763000D03*
D58*
X128455049Y-69186769D03*
D33*
X122575000Y-67763000D03*
D59*
X121734951Y-69186769D03*
D30*
X187325000Y-74644250D03*
X177165000Y-74644250D03*
D29*
X176745000Y-74644250D03*
D31*
X182245000Y-74644250D03*
D29*
X187745000Y-74644250D03*
D58*
X185605049Y-71568019D03*
D33*
X184765000Y-70144250D03*
D59*
X178884951Y-71568019D03*
D33*
X179725000Y-70144250D03*
D30*
X177165000Y-93694250D03*
D29*
X176745000Y-93694250D03*
D31*
X182245000Y-93694250D03*
D29*
X187745000Y-93694250D03*
D30*
X187325000Y-93694250D03*
D58*
X185605049Y-90618019D03*
D33*
X184765000Y-89194250D03*
D59*
X178884951Y-90618019D03*
D33*
X179725000Y-89194250D03*
D29*
X187745000Y-112744250D03*
D30*
X177165000Y-112744250D03*
D29*
X176745000Y-112744250D03*
D30*
X187325000Y-112744250D03*
D31*
X182245000Y-112744250D03*
D58*
X185605049Y-109668019D03*
D33*
X184765000Y-108244250D03*
D59*
X178884951Y-109668019D03*
D33*
X179725000Y-108244250D03*
M02*
