G04 #@! TF.GenerationSoftware,KiCad,Pcbnew,(6.0.7)*
G04 #@! TF.CreationDate,2023-08-06T12:32:10+01:00*
G04 #@! TF.ProjectId,ergodash,6572676f-6461-4736-982e-6b696361645f,0.1*
G04 #@! TF.SameCoordinates,Original*
G04 #@! TF.FileFunction,Legend,Bot*
G04 #@! TF.FilePolarity,Positive*
%FSLAX46Y46*%
G04 Gerber Fmt 4.6, Leading zero omitted, Abs format (unit mm)*
G04 Created by KiCad (PCBNEW (6.0.7)) date 2023-08-06 12:32:10*
%MOMM*%
%LPD*%
G01*
G04 APERTURE LIST*
G04 Aperture macros list*
%AMRoundRect*
0 Rectangle with rounded corners*
0 $1 Rounding radius*
0 $2 $3 $4 $5 $6 $7 $8 $9 X,Y pos of 4 corners*
0 Add a 4 corners polygon primitive as box body*
4,1,4,$2,$3,$4,$5,$6,$7,$8,$9,$2,$3,0*
0 Add four circle primitives for the rounded corners*
1,1,$1+$1,$2,$3*
1,1,$1+$1,$4,$5*
1,1,$1+$1,$6,$7*
1,1,$1+$1,$8,$9*
0 Add four rect primitives between the rounded corners*
20,1,$1+$1,$2,$3,$4,$5,0*
20,1,$1+$1,$4,$5,$6,$7,0*
20,1,$1+$1,$6,$7,$8,$9,0*
20,1,$1+$1,$8,$9,$2,$3,0*%
%AMHorizOval*
0 Thick line with rounded ends*
0 $1 width*
0 $2 $3 position (X,Y) of the first rounded end (center of the circle)*
0 $4 $5 position (X,Y) of the second rounded end (center of the circle)*
0 Add line between two ends*
20,1,$1,$2,$3,$4,$5,0*
0 Add two circle primitives to create the rounded ends*
1,1,$1,$2,$3*
1,1,$1,$4,$5*%
%AMRotRect*
0 Rectangle, with rotation*
0 The origin of the aperture is its center*
0 $1 length*
0 $2 width*
0 $3 Rotation angle, in degrees counterclockwise*
0 Add horizontal line*
21,1,$1,$2,0,0,$3*%
G04 Aperture macros list end*
%ADD10C,0.500000*%
%ADD11C,0.300000*%
%ADD12C,0.200000*%
%ADD13C,0.125000*%
%ADD14C,0.250000*%
%ADD15C,0.120000*%
%ADD16C,0.150000*%
%ADD17R,1.905000X1.905000*%
%ADD18C,1.905000*%
%ADD19RotRect,1.905000X1.905000X350.000000*%
%ADD20RotRect,1.905000X1.905000X330.000000*%
%ADD21RotRect,1.905000X1.905000X325.000000*%
%ADD22C,1.524000*%
%ADD23C,1.900000*%
%ADD24C,1.700000*%
%ADD25C,4.000000*%
%ADD26O,2.300000X3.337000*%
%ADD27HorizOval,2.400000X-0.578509X0.689440X0.578509X-0.689440X0*%
%ADD28HorizOval,2.400000X-0.578509X-0.689440X0.578509X0.689440X0*%
%ADD29C,2.000000*%
%ADD30HorizOval,2.000000X0.000000X0.000000X0.000000X0.000000X0*%
%ADD31O,2.000000X2.000000*%
%ADD32C,1.924000*%
%ADD33C,2.200000*%
%ADD34C,5.400000*%
%ADD35RoundRect,0.200000X-0.762000X-0.762000X0.762000X-0.762000X0.762000X0.762000X-0.762000X0.762000X0*%
%ADD36RoundRect,0.200000X0.700000X0.600000X-0.700000X0.600000X-0.700000X-0.600000X0.700000X-0.600000X0*%
%ADD37RoundRect,0.200000X-0.700000X-0.600000X0.700000X-0.600000X0.700000X0.600000X-0.700000X0.600000X0*%
%ADD38RoundRect,0.200000X-0.600000X0.700000X-0.600000X-0.700000X0.600000X-0.700000X0.600000X0.700000X0*%
%ADD39RoundRect,0.200000X0.921904X0.009675X-0.150559X0.909578X-0.921904X-0.009675X0.150559X-0.909578X0*%
%ADD40HorizOval,2.000000X0.000000X0.000000X0.000000X0.000000X0*%
%ADD41RoundRect,0.200000X-0.952500X-0.952500X0.952500X-0.952500X0.952500X0.952500X-0.952500X0.952500X0*%
%ADD42C,2.305000*%
%ADD43RoundRect,0.200000X-1.103429X-0.772629X0.772629X-1.103429X1.103429X0.772629X-0.772629X1.103429X0*%
%ADD44RoundRect,0.200000X0.098605X-1.127066X1.127066X0.098605X-0.098605X1.127066X-1.127066X-0.098605X0*%
%ADD45RoundRect,0.200000X-0.054603X-0.998508X0.973857X0.227163X0.054603X0.998508X-0.973857X-0.227163X0*%
%ADD46HorizOval,2.000000X0.000000X0.000000X0.000000X0.000000X0*%
%ADD47RoundRect,0.200000X-0.450000X-0.400000X0.450000X-0.400000X0.450000X0.400000X-0.450000X0.400000X0*%
%ADD48C,2.300000*%
%ADD49C,2.100000*%
%ADD50C,4.400000*%
%ADD51HorizOval,2.800000X0.578509X0.689440X-0.578509X-0.689440X0*%
%ADD52O,2.700000X3.737000*%
%ADD53HorizOval,2.800000X0.578509X-0.689440X-0.578509X0.689440X0*%
%ADD54HorizOval,2.800000X0.845723X0.307818X-0.845723X-0.307818X0*%
%ADD55HorizOval,2.700000X-0.259250X-0.449034X0.259250X0.449034X0*%
%ADD56HorizOval,2.800000X0.156283X-0.886327X-0.156283X0.886327X0*%
%ADD57HorizOval,2.800000X0.689440X0.578509X-0.689440X-0.578509X0*%
%ADD58HorizOval,2.700000X-0.090037X-0.510623X0.090037X0.510623X0*%
%ADD59HorizOval,2.800000X0.450000X-0.779423X-0.450000X0.779423X0*%
%ADD60HorizOval,2.700000X-0.297399X-0.424730X0.297399X0.424730X0*%
%ADD61HorizOval,2.800000X0.869333X0.232937X-0.869333X-0.232937X0*%
%ADD62HorizOval,2.800000X0.078440X-0.896575X-0.078440X0.896575X0*%
%ADD63RoundRect,0.200000X-1.301139X-0.348639X0.348639X-1.301139X1.301139X0.348639X-0.348639X1.301139X0*%
%ADD64RoundRect,0.200000X-1.326574X-0.233911X0.233911X-1.326574X1.326574X0.233911X-0.233911X1.326574X0*%
%ADD65RoundRect,0.200000X-0.009675X0.921904X-0.909578X-0.150559X0.009675X-0.921904X0.909578X0.150559X0*%
%ADD66HorizOval,2.000000X0.000000X0.000000X0.000000X0.000000X0*%
%ADD67RoundRect,0.200000X0.009675X-0.921904X0.909578X0.150559X-0.009675X0.921904X-0.909578X-0.150559X0*%
%ADD68RoundRect,0.200000X0.800000X-0.800000X0.800000X0.800000X-0.800000X0.800000X-0.800000X-0.800000X0*%
%ADD69RoundRect,0.200000X0.600000X-0.800000X0.600000X0.800000X-0.600000X0.800000X-0.600000X-0.800000X0*%
%ADD70RoundRect,0.200000X0.800000X0.600000X-0.800000X0.600000X-0.800000X-0.600000X0.800000X-0.600000X0*%
%ADD71RoundRect,0.200000X0.800000X0.800000X-0.800000X0.800000X-0.800000X-0.800000X0.800000X-0.800000X0*%
%ADD72RoundRect,0.200000X0.648928X-0.926765X0.926765X0.648928X-0.648928X0.926765X-0.926765X-0.648928X0*%
%ADD73RoundRect,0.200000X0.451966X-0.892035X0.729803X0.683657X-0.451966X0.892035X-0.729803X-0.683657X0*%
%ADD74HorizOval,2.000000X0.000000X0.000000X0.000000X0.000000X0*%
%ADD75C,1.610000*%
%ADD76O,2.600000X1.700000*%
%ADD77HorizOval,2.800000X-0.578509X0.689440X0.578509X-0.689440X0*%
%ADD78HorizOval,2.800000X-0.578509X-0.689440X0.578509X0.689440X0*%
G04 APERTURE END LIST*
D10*
X151003000Y-108585000D02*
X153543000Y-108458000D01*
X151003000Y-121539000D02*
X153543000Y-121412000D01*
X153543000Y-121412000D02*
X153543000Y-108458000D01*
X151003000Y-108585000D02*
X151003000Y-121539000D01*
D11*
X125018982Y-63483503D02*
X125018982Y-61983503D01*
X124376125Y-62126360D02*
X124304697Y-62054932D01*
X124161839Y-61983503D01*
X123804697Y-61983503D01*
X123661839Y-62054932D01*
X123590411Y-62126360D01*
X123518982Y-62269217D01*
X123518982Y-62412074D01*
X123590411Y-62626360D01*
X124447554Y-63483503D01*
X123518982Y-63483503D01*
X122018982Y-63340646D02*
X122090411Y-63412074D01*
X122304697Y-63483503D01*
X122447554Y-63483503D01*
X122661839Y-63412074D01*
X122804697Y-63269217D01*
X122876125Y-63126360D01*
X122947554Y-62840646D01*
X122947554Y-62626360D01*
X122876125Y-62340646D01*
X122804697Y-62197789D01*
X122661839Y-62054932D01*
X122447554Y-61983503D01*
X122304697Y-61983503D01*
X122090411Y-62054932D01*
X122018982Y-62126360D01*
X134568755Y-63793631D02*
X133068755Y-63793631D01*
X133211612Y-64436488D02*
X133140184Y-64507917D01*
X133068755Y-64650774D01*
X133068755Y-65007917D01*
X133140184Y-65150774D01*
X133211612Y-65222202D01*
X133354469Y-65293631D01*
X133497326Y-65293631D01*
X133711612Y-65222202D01*
X134568755Y-64365059D01*
X134568755Y-65293631D01*
X134425898Y-66793631D02*
X134497326Y-66722202D01*
X134568755Y-66507917D01*
X134568755Y-66365059D01*
X134497326Y-66150774D01*
X134354469Y-66007917D01*
X134211612Y-65936488D01*
X133925898Y-65865059D01*
X133711612Y-65865059D01*
X133425898Y-65936488D01*
X133283041Y-66007917D01*
X133140184Y-66150774D01*
X133068755Y-66365059D01*
X133068755Y-66507917D01*
X133140184Y-66722202D01*
X133211612Y-66793631D01*
X105602620Y-64643707D02*
X105342148Y-63166496D01*
X104733864Y-63418814D02*
X104651117Y-63360874D01*
X104498027Y-63315337D01*
X104146310Y-63377354D01*
X104018026Y-63472505D01*
X103960087Y-63555251D01*
X103914550Y-63708342D01*
X103939357Y-63849028D01*
X104046911Y-64047655D01*
X105039873Y-64742935D01*
X104125408Y-64904180D01*
X102623390Y-65023965D02*
X102706137Y-65081905D01*
X102929571Y-65115038D01*
X103070257Y-65090231D01*
X103268884Y-64982678D01*
X103384764Y-64817184D01*
X103430301Y-64664094D01*
X103451030Y-64370316D01*
X103413820Y-64159286D01*
X103293863Y-63890316D01*
X103198712Y-63762033D01*
X103033219Y-63646153D01*
X102809785Y-63613020D01*
X102669098Y-63637826D01*
X102470471Y-63745380D01*
X102412531Y-63828127D01*
X114786893Y-63386429D02*
X114929751Y-63315000D01*
X115144036Y-63315000D01*
X115358322Y-63386429D01*
X115501179Y-63529286D01*
X115572608Y-63672143D01*
X115644036Y-63957857D01*
X115644036Y-64172143D01*
X115572608Y-64457857D01*
X115501179Y-64600714D01*
X115358322Y-64743571D01*
X115144036Y-64815000D01*
X115001179Y-64815000D01*
X114786893Y-64743571D01*
X114715465Y-64672143D01*
X114715465Y-64172143D01*
X115001179Y-64172143D01*
D12*
X154684627Y-111789864D02*
X154732246Y-111904150D01*
X154779865Y-111942245D01*
X154875103Y-111980340D01*
X155017960Y-111980340D01*
X155113198Y-111942245D01*
X155160817Y-111904150D01*
X155208436Y-111827959D01*
X155208436Y-111523198D01*
X154208436Y-111523198D01*
X154208436Y-111789864D01*
X154256056Y-111866055D01*
X154303675Y-111904150D01*
X154398913Y-111942245D01*
X154494151Y-111942245D01*
X154589389Y-111904150D01*
X154637008Y-111866055D01*
X154684627Y-111789864D01*
X154684627Y-111523198D01*
X155208436Y-112666055D02*
X154684627Y-112666055D01*
X154589389Y-112627959D01*
X154541770Y-112551769D01*
X154541770Y-112399388D01*
X154589389Y-112323198D01*
X155160817Y-112666055D02*
X155208436Y-112589864D01*
X155208436Y-112399388D01*
X155160817Y-112323198D01*
X155065579Y-112285102D01*
X154970341Y-112285102D01*
X154875103Y-112323198D01*
X154827484Y-112399388D01*
X154827484Y-112589864D01*
X154779865Y-112666055D01*
X155160817Y-113389864D02*
X155208436Y-113313674D01*
X155208436Y-113161293D01*
X155160817Y-113085102D01*
X155113198Y-113047007D01*
X155017960Y-113008912D01*
X154732246Y-113008912D01*
X154637008Y-113047007D01*
X154589389Y-113085102D01*
X154541770Y-113161293D01*
X154541770Y-113313674D01*
X154589389Y-113389864D01*
X155208436Y-113732721D02*
X154208436Y-113732721D01*
X154827484Y-113808912D02*
X155208436Y-114037483D01*
X154541770Y-114037483D02*
X154922722Y-113732721D01*
X155208436Y-114494626D02*
X155160817Y-114418436D01*
X155065579Y-114380340D01*
X154208436Y-114380340D01*
X155208436Y-114799388D02*
X154541770Y-114799388D01*
X154208436Y-114799388D02*
X154256056Y-114761293D01*
X154303675Y-114799388D01*
X154256056Y-114837483D01*
X154208436Y-114799388D01*
X154303675Y-114799388D01*
X154541770Y-115523198D02*
X155351294Y-115523198D01*
X155446532Y-115485102D01*
X155494151Y-115447007D01*
X155541770Y-115370817D01*
X155541770Y-115256531D01*
X155494151Y-115180340D01*
X155160817Y-115523198D02*
X155208436Y-115447007D01*
X155208436Y-115294626D01*
X155160817Y-115218436D01*
X155113198Y-115180340D01*
X155017960Y-115142245D01*
X154732246Y-115142245D01*
X154637008Y-115180340D01*
X154589389Y-115218436D01*
X154541770Y-115294626D01*
X154541770Y-115447007D01*
X154589389Y-115523198D01*
X155208436Y-115904150D02*
X154208436Y-115904150D01*
X155208436Y-116247007D02*
X154684627Y-116247007D01*
X154589389Y-116208912D01*
X154541770Y-116132721D01*
X154541770Y-116018436D01*
X154589389Y-115942245D01*
X154637008Y-115904150D01*
X154541770Y-116513674D02*
X154541770Y-116818436D01*
X154208436Y-116627959D02*
X155065579Y-116627959D01*
X155160817Y-116666055D01*
X155208436Y-116742245D01*
X155208436Y-116818436D01*
X155208436Y-118113674D02*
X155208436Y-117656531D01*
X155208436Y-117885102D02*
X154208436Y-117885102D01*
X154351294Y-117808912D01*
X154446532Y-117732721D01*
X154494151Y-117656531D01*
X155208436Y-118456531D02*
X154208436Y-118456531D01*
X154827484Y-118532721D02*
X155208436Y-118761293D01*
X154541770Y-118761293D02*
X154922722Y-118456531D01*
D13*
X101859048Y-67134871D02*
X102025715Y-67634871D01*
X102192381Y-67134871D01*
D12*
X146502905Y-63170622D02*
X146502905Y-62170622D01*
X146198143Y-62170622D01*
X146121953Y-62218242D01*
X146083857Y-62265861D01*
X146045762Y-62361099D01*
X146045762Y-62503956D01*
X146083857Y-62599194D01*
X146121953Y-62646813D01*
X146198143Y-62694432D01*
X146502905Y-62694432D01*
X145702905Y-63170622D02*
X145702905Y-62503956D01*
X145702905Y-62694432D02*
X145664810Y-62599194D01*
X145626715Y-62551575D01*
X145550524Y-62503956D01*
X145474334Y-62503956D01*
X145093381Y-63170622D02*
X145169572Y-63123003D01*
X145207667Y-63075384D01*
X145245762Y-62980146D01*
X145245762Y-62694432D01*
X145207667Y-62599194D01*
X145169572Y-62551575D01*
X145093381Y-62503956D01*
X144979096Y-62503956D01*
X144902905Y-62551575D01*
X144864810Y-62599194D01*
X144826715Y-62694432D01*
X144826715Y-62980146D01*
X144864810Y-63075384D01*
X144902905Y-63123003D01*
X144979096Y-63170622D01*
X145093381Y-63170622D01*
X143874334Y-63170622D02*
X143874334Y-62170622D01*
X143607667Y-62884908D01*
X143341000Y-62170622D01*
X143341000Y-63170622D01*
X142960048Y-63170622D02*
X142960048Y-62503956D01*
X142960048Y-62170622D02*
X142998143Y-62218242D01*
X142960048Y-62265861D01*
X142921953Y-62218242D01*
X142960048Y-62170622D01*
X142960048Y-62265861D01*
X142236238Y-63123003D02*
X142312429Y-63170622D01*
X142464810Y-63170622D01*
X142541000Y-63123003D01*
X142579096Y-63075384D01*
X142617191Y-62980146D01*
X142617191Y-62694432D01*
X142579096Y-62599194D01*
X142541000Y-62551575D01*
X142464810Y-62503956D01*
X142312429Y-62503956D01*
X142236238Y-62551575D01*
X141893381Y-63170622D02*
X141893381Y-62503956D01*
X141893381Y-62694432D02*
X141855286Y-62599194D01*
X141817191Y-62551575D01*
X141741000Y-62503956D01*
X141664810Y-62503956D01*
X141283857Y-63170622D02*
X141360048Y-63123003D01*
X141398143Y-63075384D01*
X141436238Y-62980146D01*
X141436238Y-62694432D01*
X141398143Y-62599194D01*
X141360048Y-62551575D01*
X141283857Y-62503956D01*
X141169572Y-62503956D01*
X141093381Y-62551575D01*
X141055286Y-62599194D01*
X141017191Y-62694432D01*
X141017191Y-62980146D01*
X141055286Y-63075384D01*
X141093381Y-63123003D01*
X141169572Y-63170622D01*
X141283857Y-63170622D01*
D11*
X219412191Y-150017822D02*
X218866090Y-149635438D01*
X218031157Y-150329718D02*
X218811302Y-150875982D01*
X219958455Y-149237678D01*
X219178310Y-148691414D01*
X216626896Y-149346444D02*
X217774049Y-147708140D01*
X216681523Y-149268430D02*
X216782925Y-149455697D01*
X217094983Y-149674202D01*
X217305639Y-149705441D01*
X217438279Y-149682052D01*
X217625547Y-149580650D01*
X217953304Y-149112563D01*
X217984543Y-148901908D01*
X217961155Y-148769267D01*
X217859752Y-148582000D01*
X217547694Y-148363494D01*
X217337039Y-148332256D01*
X216767549Y-147817231D02*
X215690723Y-148690929D01*
X215924928Y-147692278D01*
X215066607Y-148253918D01*
X215519317Y-146943210D01*
X213428303Y-147106765D02*
X214029192Y-146248606D01*
X214216459Y-146147203D01*
X214427115Y-146178441D01*
X214739173Y-146396947D01*
X214840575Y-146584214D01*
X213482929Y-147028751D02*
X213584332Y-147216018D01*
X213974404Y-147489149D01*
X214185059Y-147520387D01*
X214372327Y-147418985D01*
X214481579Y-147262956D01*
X214512817Y-147052301D01*
X214411415Y-146865033D01*
X214021342Y-146591902D01*
X213919940Y-146404635D01*
X212648158Y-146560502D02*
X213412926Y-145468299D01*
X213194421Y-145780357D02*
X213225659Y-145569702D01*
X213202271Y-145437061D01*
X213100869Y-145249794D01*
X212944840Y-145140541D01*
X210931839Y-145358723D02*
X212078992Y-143720418D01*
X210986466Y-145280708D02*
X211087868Y-145467975D01*
X211399926Y-145686481D01*
X211610582Y-145717719D01*
X211743222Y-145694331D01*
X211930489Y-145592928D01*
X212258247Y-145124841D01*
X212289486Y-144914186D01*
X212266097Y-144781545D01*
X212164695Y-144594278D01*
X211852637Y-144375772D01*
X211641982Y-144344534D01*
X209449564Y-144320822D02*
X210050454Y-143462663D01*
X210237721Y-143361260D01*
X210448376Y-143392499D01*
X210760434Y-143611004D01*
X210861837Y-143798271D01*
X209504191Y-144242808D02*
X209605593Y-144430075D01*
X209995666Y-144703207D01*
X210206321Y-144734445D01*
X210393588Y-144633042D01*
X210502841Y-144477013D01*
X210534079Y-144266358D01*
X210432676Y-144079091D01*
X210042604Y-143805959D01*
X209941201Y-143618692D01*
X208802060Y-143751171D02*
X208591405Y-143719933D01*
X208279347Y-143501427D01*
X208177944Y-143314160D01*
X208209183Y-143103505D01*
X208263809Y-143025491D01*
X208451076Y-142924088D01*
X208661731Y-142955326D01*
X208895775Y-143119205D01*
X209106430Y-143150443D01*
X209293697Y-143049041D01*
X209348323Y-142971026D01*
X209379562Y-142760371D01*
X209278159Y-142573104D01*
X209044116Y-142409225D01*
X208833460Y-142377987D01*
X207343173Y-142845911D02*
X208490326Y-141207607D01*
X206641043Y-142354275D02*
X207241933Y-141496115D01*
X207429200Y-141394713D01*
X207639855Y-141425951D01*
X207873898Y-141589830D01*
X207975301Y-141777097D01*
X207998689Y-141909738D01*
X213274641Y-148488515D02*
X213118612Y-148379263D01*
X212907957Y-148348024D01*
X212775316Y-148371413D01*
X212588049Y-148472815D01*
X212291529Y-148730247D01*
X212018397Y-149120319D01*
X211877907Y-149487003D01*
X211846668Y-149697659D01*
X211870056Y-149830300D01*
X211971459Y-150017567D01*
X212127488Y-150126819D01*
X212338143Y-150158057D01*
X212470784Y-150134669D01*
X212658051Y-150033267D01*
X212954571Y-149775835D01*
X213227703Y-149385763D01*
X213368194Y-149019078D01*
X213399432Y-148808423D01*
X213376044Y-148675782D01*
X213274641Y-148488515D01*
X210988509Y-149096769D02*
X210855868Y-149120157D01*
X210879256Y-149252798D01*
X211011897Y-149229410D01*
X210988509Y-149096769D01*
X210879256Y-149252798D01*
X209240952Y-148105645D02*
X210177126Y-148761161D01*
X209709039Y-148433403D02*
X210856192Y-146795099D01*
X210848342Y-147138395D01*
X210895118Y-147403677D01*
X210996521Y-147590944D01*
D14*
X168235380Y-57435904D02*
X168235380Y-58007333D01*
X169235380Y-57721619D02*
X168235380Y-57721619D01*
X168235380Y-58245428D02*
X169235380Y-58912095D01*
X168235380Y-58912095D02*
X169235380Y-58245428D01*
X168235380Y-59483523D02*
X168235380Y-59578761D01*
X168283000Y-59674000D01*
X168330619Y-59721619D01*
X168425857Y-59769238D01*
X168616333Y-59816857D01*
X168854428Y-59816857D01*
X169044904Y-59769238D01*
X169140142Y-59721619D01*
X169187761Y-59674000D01*
X169235380Y-59578761D01*
X169235380Y-59483523D01*
X169187761Y-59388285D01*
X169140142Y-59340666D01*
X169044904Y-59293047D01*
X168854428Y-59245428D01*
X168616333Y-59245428D01*
X168425857Y-59293047D01*
X168330619Y-59340666D01*
X168283000Y-59388285D01*
X168235380Y-59483523D01*
X137755380Y-57308904D02*
X137755380Y-57880333D01*
X138755380Y-57594619D02*
X137755380Y-57594619D01*
X137755380Y-58118428D02*
X138755380Y-58785095D01*
X137755380Y-58785095D02*
X138755380Y-58118428D01*
X137755380Y-59356523D02*
X137755380Y-59451761D01*
X137803000Y-59547000D01*
X137850619Y-59594619D01*
X137945857Y-59642238D01*
X138136333Y-59689857D01*
X138374428Y-59689857D01*
X138564904Y-59642238D01*
X138660142Y-59594619D01*
X138707761Y-59547000D01*
X138755380Y-59451761D01*
X138755380Y-59356523D01*
X138707761Y-59261285D01*
X138660142Y-59213666D01*
X138564904Y-59166047D01*
X138374428Y-59118428D01*
X138136333Y-59118428D01*
X137945857Y-59166047D01*
X137850619Y-59213666D01*
X137803000Y-59261285D01*
X137755380Y-59356523D01*
D13*
X107001459Y-67121496D02*
X107049078Y-67097686D01*
X107120507Y-67097686D01*
X107191935Y-67121496D01*
X107239554Y-67169115D01*
X107263364Y-67216734D01*
X107287173Y-67311972D01*
X107287173Y-67383400D01*
X107263364Y-67478638D01*
X107239554Y-67526257D01*
X107191935Y-67573876D01*
X107120507Y-67597686D01*
X107072888Y-67597686D01*
X107001459Y-67573876D01*
X106977650Y-67550067D01*
X106977650Y-67383400D01*
X107072888Y-67383400D01*
X105035856Y-70448512D02*
X105202522Y-70210417D01*
X105321570Y-70448512D02*
X105321570Y-69948512D01*
X105131094Y-69948512D01*
X105083475Y-69972322D01*
X105059665Y-69996131D01*
X105035856Y-70043750D01*
X105035856Y-70115179D01*
X105059665Y-70162798D01*
X105083475Y-70186607D01*
X105131094Y-70210417D01*
X105321570Y-70210417D01*
X104559665Y-69972322D02*
X104607284Y-69948512D01*
X104678713Y-69948512D01*
X104750141Y-69972322D01*
X104797760Y-70019941D01*
X104821570Y-70067560D01*
X104845379Y-70162798D01*
X104845379Y-70234226D01*
X104821570Y-70329464D01*
X104797760Y-70377083D01*
X104750141Y-70424702D01*
X104678713Y-70448512D01*
X104631094Y-70448512D01*
X104559665Y-70424702D01*
X104535856Y-70400893D01*
X104535856Y-70234226D01*
X104631094Y-70234226D01*
X104154903Y-70186607D02*
X104083475Y-70210417D01*
X104059665Y-70234226D01*
X104035856Y-70281845D01*
X104035856Y-70353274D01*
X104059665Y-70400893D01*
X104083475Y-70424702D01*
X104131094Y-70448512D01*
X104321570Y-70448512D01*
X104321570Y-69948512D01*
X104154903Y-69948512D01*
X104107284Y-69972322D01*
X104083475Y-69996131D01*
X104059665Y-70043750D01*
X104059665Y-70091369D01*
X104083475Y-70138988D01*
X104107284Y-70162798D01*
X104154903Y-70186607D01*
X104321570Y-70186607D01*
X103936697Y-67585291D02*
X104198601Y-67251958D01*
X103936697Y-67251958D02*
X104198601Y-67585291D01*
X104317649Y-67251958D02*
X104508125Y-67251958D01*
X104389078Y-67085291D02*
X104389078Y-67513862D01*
X104412887Y-67561481D01*
X104460506Y-67585291D01*
X104508125Y-67585291D01*
X104674792Y-67585291D02*
X104674792Y-67251958D01*
X104674792Y-67347196D02*
X104698601Y-67299577D01*
X104722411Y-67275767D01*
X104770030Y-67251958D01*
X104817649Y-67251958D01*
X105198601Y-67585291D02*
X105198601Y-67323386D01*
X105174792Y-67275767D01*
X105127173Y-67251958D01*
X105031935Y-67251958D01*
X104984316Y-67275767D01*
X105198601Y-67561481D02*
X105150982Y-67585291D01*
X105031935Y-67585291D01*
X104984316Y-67561481D01*
X104960506Y-67513862D01*
X104960506Y-67466243D01*
X104984316Y-67418624D01*
X105031935Y-67394815D01*
X105150982Y-67394815D01*
X105198601Y-67371005D01*
X101846653Y-69948512D02*
X102013320Y-70448512D01*
X102179986Y-69948512D01*
X107001459Y-69835979D02*
X107049078Y-69812169D01*
X107120507Y-69812169D01*
X107191935Y-69835979D01*
X107239554Y-69883598D01*
X107263364Y-69931217D01*
X107287173Y-70026455D01*
X107287173Y-70097883D01*
X107263364Y-70193121D01*
X107239554Y-70240740D01*
X107191935Y-70288359D01*
X107120507Y-70312169D01*
X107072888Y-70312169D01*
X107001459Y-70288359D01*
X106977650Y-70264550D01*
X106977650Y-70097883D01*
X107072888Y-70097883D01*
D11*
X111596238Y-63195197D02*
X111096238Y-64695197D01*
X110596238Y-63195197D01*
D15*
X100672488Y-63367974D02*
X106994954Y-62253152D01*
X106994954Y-62253152D02*
X107449912Y-64833349D01*
X107449912Y-64833349D02*
X101127446Y-65948170D01*
X101127446Y-65948170D02*
X100672488Y-63367974D01*
X100023488Y-64812619D02*
X100899967Y-64658072D01*
X108098912Y-63388704D02*
X107222433Y-63543251D01*
X133740350Y-69378000D02*
X133740350Y-68488000D01*
X132430350Y-68488000D02*
X132430350Y-62068000D01*
X135050350Y-62068000D02*
X135050350Y-68488000D01*
X133740350Y-61178000D02*
X133740350Y-62068000D01*
X132430350Y-62068000D02*
X135050350Y-62068000D01*
X135050350Y-68488000D02*
X132430350Y-68488000D01*
D16*
X106025000Y-84844000D02*
X105525000Y-85344000D01*
X106025000Y-85844000D02*
X106025000Y-84844000D01*
X110225000Y-85344000D02*
X108125000Y-85344000D01*
X103915000Y-85344000D02*
X101925000Y-85344000D01*
X106525000Y-85344000D02*
X106025000Y-85844000D01*
X122965000Y-80645000D02*
X120975000Y-80645000D01*
X125075000Y-81145000D02*
X125075000Y-80145000D01*
X125575000Y-80645000D02*
X125075000Y-81145000D01*
X125075000Y-80145000D02*
X124575000Y-80645000D01*
X129275000Y-80645000D02*
X127175000Y-80645000D01*
X142015000Y-78232000D02*
X140025000Y-78232000D01*
X144125000Y-78732000D02*
X144125000Y-77732000D01*
X144625000Y-78232000D02*
X144125000Y-78732000D01*
X148325000Y-78232000D02*
X146225000Y-78232000D01*
X144125000Y-77732000D02*
X143625000Y-78232000D01*
X163675000Y-80645000D02*
X163175000Y-81145000D01*
X163175000Y-81145000D02*
X163175000Y-80145000D01*
X163175000Y-80145000D02*
X162675000Y-80645000D01*
X161065000Y-80645000D02*
X159075000Y-80645000D01*
X167375000Y-80645000D02*
X165275000Y-80645000D01*
X180248217Y-85027192D02*
X178258217Y-85027192D01*
X186558217Y-85027192D02*
X184458217Y-85027192D01*
X182858217Y-85027192D02*
X182358217Y-85527192D01*
X182358217Y-85527192D02*
X182358217Y-84527192D01*
X182358217Y-84527192D02*
X181858217Y-85027192D01*
X105692000Y-104394000D02*
X106192000Y-103894000D01*
X106192000Y-103894000D02*
X106192000Y-104894000D01*
X101992000Y-104394000D02*
X104092000Y-104394000D01*
X106192000Y-104894000D02*
X106692000Y-104394000D01*
X108302000Y-104394000D02*
X110292000Y-104394000D01*
X125075000Y-99195000D02*
X124575000Y-99695000D01*
X129275000Y-99695000D02*
X127175000Y-99695000D01*
X125575000Y-99695000D02*
X125075000Y-100195000D01*
X125075000Y-100195000D02*
X125075000Y-99195000D01*
X122965000Y-99695000D02*
X120975000Y-99695000D01*
X144125000Y-96782000D02*
X143625000Y-97282000D01*
X144625000Y-97282000D02*
X144125000Y-97782000D01*
X148325000Y-97282000D02*
X146225000Y-97282000D01*
X142015000Y-97282000D02*
X140025000Y-97282000D01*
X144125000Y-97782000D02*
X144125000Y-96782000D01*
X163675000Y-99695000D02*
X163175000Y-100195000D01*
X163175000Y-99195000D02*
X162675000Y-99695000D01*
X161065000Y-99695000D02*
X159075000Y-99695000D01*
X167375000Y-99695000D02*
X165275000Y-99695000D01*
X163175000Y-100195000D02*
X163175000Y-99195000D01*
X182725000Y-102108000D02*
X182225000Y-102608000D01*
X180115000Y-102108000D02*
X178125000Y-102108000D01*
X182225000Y-102608000D02*
X182225000Y-101608000D01*
X186425000Y-102108000D02*
X184325000Y-102108000D01*
X182225000Y-101608000D02*
X181725000Y-102108000D01*
X114230584Y-117278374D02*
X114230584Y-119268374D01*
X114730584Y-115168374D02*
X113730584Y-115168374D01*
X114230584Y-114668374D02*
X114730584Y-115168374D01*
X114230584Y-110968374D02*
X114230584Y-113068374D01*
X113730584Y-115168374D02*
X114230584Y-115668374D01*
X122965000Y-118745000D02*
X120975000Y-118745000D01*
X125575000Y-118745000D02*
X125075000Y-119245000D01*
X125075000Y-119245000D02*
X125075000Y-118245000D01*
X129275000Y-118745000D02*
X127175000Y-118745000D01*
X125075000Y-118245000D02*
X124575000Y-118745000D01*
X182225000Y-105021000D02*
X182225000Y-104021000D01*
X180115000Y-104521000D02*
X178125000Y-104521000D01*
X182725000Y-104521000D02*
X182225000Y-105021000D01*
X182225000Y-104021000D02*
X181725000Y-104521000D01*
X186425000Y-104521000D02*
X184325000Y-104521000D01*
X180438133Y-129608363D02*
X178829440Y-128258509D01*
X177603769Y-127230049D02*
X176899353Y-127291677D01*
X175604393Y-125552373D02*
X174079964Y-124273226D01*
X176899353Y-127291677D02*
X177542140Y-126525633D01*
X177542140Y-126525633D02*
X176837724Y-126587261D01*
X125575000Y-121031000D02*
X125075000Y-121531000D01*
X125075000Y-120531000D02*
X124575000Y-121031000D01*
X125075000Y-121531000D02*
X125075000Y-120531000D01*
X129275000Y-121031000D02*
X127175000Y-121031000D01*
X122965000Y-121031000D02*
X120975000Y-121031000D01*
X143998000Y-118118000D02*
X143498000Y-118618000D01*
X141888000Y-118618000D02*
X139898000Y-118618000D01*
X144498000Y-118618000D02*
X143998000Y-119118000D01*
X148198000Y-118618000D02*
X146098000Y-118618000D01*
X143998000Y-119118000D02*
X143998000Y-118118000D01*
X135255000Y-57150000D02*
X137795000Y-57150000D01*
X137795000Y-87630000D02*
X135255000Y-87630000D01*
X135255000Y-87630000D02*
X135255000Y-57150000D01*
X150495000Y-87630000D02*
X150495000Y-57150000D01*
X153035000Y-87630000D02*
X150495000Y-87630000D01*
X150495000Y-57150000D02*
X153035000Y-57150000D01*
X137795000Y-57150000D02*
X137795000Y-87630000D01*
X153035000Y-57150000D02*
X153035000Y-87630000D01*
X201996926Y-148745429D02*
X200810337Y-149092635D01*
X200792445Y-149094201D02*
X200926762Y-147847455D01*
X200926762Y-147847455D02*
X201996926Y-148745429D01*
X202947583Y-146525807D02*
X203576165Y-145776692D01*
X198678123Y-151613951D02*
X199298542Y-150874564D01*
X200247634Y-148637050D02*
X201327527Y-149543188D01*
X191828218Y-120027943D02*
X191889846Y-120732359D01*
X191889846Y-120732359D02*
X191123802Y-120089572D01*
X191123802Y-120089572D02*
X191185430Y-120793988D01*
X194206532Y-117193579D02*
X192856678Y-118802272D01*
X190150542Y-122027319D02*
X188871395Y-123551748D01*
X211232739Y-131377724D02*
X211294367Y-132082140D01*
X211294367Y-132082140D02*
X210528323Y-131439353D01*
X210528323Y-131439353D02*
X210589951Y-132143769D01*
X209555063Y-133377100D02*
X208275916Y-134901529D01*
X213611053Y-128543360D02*
X212261199Y-130152053D01*
X199494161Y-138608363D02*
X197885468Y-137258509D01*
X194660421Y-134552373D02*
X193135992Y-133273226D01*
X196598168Y-135525633D02*
X195893752Y-135587261D01*
X195955381Y-136291677D02*
X196598168Y-135525633D01*
X196659797Y-136230049D02*
X195955381Y-136291677D01*
X199288825Y-147677437D02*
X199227197Y-146973021D01*
X200262085Y-145739690D02*
X201541232Y-144215261D01*
X198584409Y-147739066D02*
X198522781Y-147034650D01*
X196206095Y-150573430D02*
X197555949Y-148964737D01*
X198522781Y-147034650D02*
X199288825Y-147677437D01*
X114427000Y-74256900D02*
X114427000Y-73279000D01*
X113715800Y-77609700D02*
X115125500Y-77609700D01*
X115125500Y-76568300D02*
X114439700Y-77597000D01*
X114427000Y-77609700D02*
X113728500Y-76568300D01*
X114427000Y-80899000D02*
X114427000Y-79933800D01*
X113728500Y-76568300D02*
X115125500Y-76568300D01*
X113715800Y-96532700D02*
X115125500Y-96532700D01*
X113728500Y-95491300D02*
X115125500Y-95491300D01*
X114427000Y-93179900D02*
X114427000Y-92202000D01*
X114427000Y-96532700D02*
X113728500Y-95491300D01*
X115125500Y-95491300D02*
X114439700Y-96520000D01*
X114427000Y-99822000D02*
X114427000Y-98856800D01*
X116713000Y-115582700D02*
X116014500Y-114541300D01*
X116713000Y-112229900D02*
X116713000Y-111252000D01*
X117411500Y-114541300D02*
X116725700Y-115570000D01*
X116713000Y-118872000D02*
X116713000Y-117906800D01*
X116014500Y-114541300D02*
X117411500Y-114541300D01*
X116001800Y-115582700D02*
X117411500Y-115582700D01*
X116586000Y-74256900D02*
X116586000Y-73279000D01*
X116586000Y-80899000D02*
X116586000Y-79933800D01*
X116586000Y-77609700D02*
X115887500Y-76568300D01*
X115887500Y-76568300D02*
X117284500Y-76568300D01*
X115874800Y-77609700D02*
X117284500Y-77609700D01*
X117284500Y-76568300D02*
X116598700Y-77597000D01*
X155892500Y-99153300D02*
X155206700Y-100182000D01*
X154482800Y-100194700D02*
X155892500Y-100194700D01*
X155194000Y-100194700D02*
X154495500Y-99153300D01*
X154495500Y-99153300D02*
X155892500Y-99153300D01*
X155194000Y-103484000D02*
X155194000Y-102518800D01*
X155194000Y-96841900D02*
X155194000Y-95864000D01*
X171450000Y-95622700D02*
X170751500Y-94581300D01*
X171450000Y-98912000D02*
X171450000Y-97946800D01*
X170751500Y-94581300D02*
X172148500Y-94581300D01*
X172148500Y-94581300D02*
X171462700Y-95610000D01*
X170738800Y-95622700D02*
X172148500Y-95622700D01*
X171450000Y-92269900D02*
X171450000Y-91292000D01*
X170624500Y-112234300D02*
X172021500Y-112234300D01*
X171323000Y-109922900D02*
X171323000Y-108945000D01*
X171323000Y-113275700D02*
X170624500Y-112234300D01*
X171323000Y-116565000D02*
X171323000Y-115599800D01*
X172021500Y-112234300D02*
X171335700Y-113263000D01*
X170611800Y-113275700D02*
X172021500Y-113275700D01*
X182818855Y-82343258D02*
X181777455Y-83041758D01*
X181777455Y-81644758D02*
X182806155Y-82330558D01*
X182818855Y-83054458D02*
X182818855Y-81644758D01*
X179466055Y-82343258D02*
X178488155Y-82343258D01*
X186108155Y-82343258D02*
X185142955Y-82343258D01*
X181777455Y-83041758D02*
X181777455Y-81644758D01*
X173990000Y-113296700D02*
X173291500Y-112255300D01*
X173990000Y-109943900D02*
X173990000Y-108966000D01*
X174688500Y-112255300D02*
X174002700Y-113284000D01*
X173278800Y-113296700D02*
X174688500Y-113296700D01*
X173990000Y-116586000D02*
X173990000Y-115620800D01*
X173291500Y-112255300D02*
X174688500Y-112255300D01*
X192356137Y-121602087D02*
X193436030Y-122508225D01*
X190786626Y-124578988D02*
X191407045Y-123839601D01*
X193035265Y-120812492D02*
X194105429Y-121710466D01*
X192900948Y-122059238D02*
X193035265Y-120812492D01*
X194105429Y-121710466D02*
X192918840Y-122057672D01*
X195056086Y-119490844D02*
X195684668Y-118741729D01*
X159345714Y-128088987D02*
X160733997Y-128333779D01*
X160046109Y-128212486D02*
X159539058Y-127065614D01*
X159539058Y-127065614D02*
X160914835Y-127308200D01*
X159474928Y-131451814D02*
X159642533Y-130501278D01*
X160628317Y-124910623D02*
X160798127Y-123947579D01*
X160914835Y-127308200D02*
X160060822Y-128202184D01*
X162195354Y-132037354D02*
X162362959Y-131086818D01*
X162259484Y-127651154D02*
X163635261Y-127893740D01*
X162066140Y-128674527D02*
X163454423Y-128919319D01*
X163348743Y-125496163D02*
X163518553Y-124533119D01*
X162766535Y-128798026D02*
X162259484Y-127651154D01*
X163635261Y-127893740D02*
X162781248Y-128787724D01*
X184675800Y-134035710D02*
X185304382Y-133286595D01*
X183725143Y-136255332D02*
X182538554Y-136602538D01*
X182520662Y-136604104D02*
X182654979Y-135357358D01*
X180406340Y-139123854D02*
X181026759Y-138384467D01*
X182654979Y-135357358D02*
X183725143Y-136255332D01*
X181975851Y-136146953D02*
X183055744Y-137053091D01*
X163215000Y-101735000D02*
X163215000Y-102735000D01*
X163215000Y-102735000D02*
X163715000Y-102235000D01*
X165325000Y-102235000D02*
X167315000Y-102235000D01*
X162715000Y-102235000D02*
X163215000Y-101735000D01*
X159015000Y-102235000D02*
X161115000Y-102235000D01*
X151773000Y-115061000D02*
X152273000Y-115561000D01*
X152773000Y-115061000D02*
X151773000Y-115061000D01*
X152273000Y-110861000D02*
X152273000Y-112961000D01*
X152273000Y-114561000D02*
X152773000Y-115061000D01*
X152273000Y-117171000D02*
X152273000Y-119161000D01*
X152273000Y-100236700D02*
X151574500Y-99195300D01*
X152273000Y-103526000D02*
X152273000Y-102560800D01*
X152273000Y-96883900D02*
X152273000Y-95906000D01*
X151561800Y-100236700D02*
X152971500Y-100236700D01*
X152971500Y-99195300D02*
X152285700Y-100224000D01*
X151574500Y-99195300D02*
X152971500Y-99195300D01*
X135763000Y-111285700D02*
X135064500Y-110244300D01*
X135064500Y-110244300D02*
X136461500Y-110244300D01*
X136461500Y-110244300D02*
X135775700Y-111273000D01*
X135051800Y-111285700D02*
X136461500Y-111285700D01*
X135763000Y-107932900D02*
X135763000Y-106955000D01*
X135763000Y-114575000D02*
X135763000Y-113609800D01*
X174688500Y-94623300D02*
X174002700Y-95652000D01*
X173990000Y-95664700D02*
X173291500Y-94623300D01*
X173278800Y-95664700D02*
X174688500Y-95664700D01*
X173990000Y-98954000D02*
X173990000Y-97988800D01*
X173990000Y-92311900D02*
X173990000Y-91334000D01*
X173291500Y-94623300D02*
X174688500Y-94623300D01*
X174482981Y-60996219D02*
X174482981Y-67346219D01*
X187182981Y-66076219D02*
X188452981Y-66076219D01*
X187182981Y-67346219D02*
X187182981Y-66076219D01*
X188452981Y-66076219D02*
X188452981Y-62266219D01*
X187182981Y-62266219D02*
X187182981Y-60996219D01*
X174482981Y-67346219D02*
X187182981Y-67346219D01*
X188452981Y-62266219D02*
X187182981Y-62266219D01*
X187182981Y-60996219D02*
X174482981Y-60996219D01*
X133477000Y-107932900D02*
X133477000Y-106955000D01*
X134175500Y-110244300D02*
X133489700Y-111273000D01*
X132778500Y-110244300D02*
X134175500Y-110244300D01*
X133477000Y-114575000D02*
X133477000Y-113609800D01*
X133477000Y-111285700D02*
X132778500Y-110244300D01*
X132765800Y-111285700D02*
X134175500Y-111285700D01*
X133731000Y-86901700D02*
X133032500Y-85860300D01*
X133032500Y-85860300D02*
X134429500Y-85860300D01*
X133731000Y-83548900D02*
X133731000Y-82571000D01*
X134429500Y-85860300D02*
X133743700Y-86889000D01*
X133731000Y-90191000D02*
X133731000Y-89225800D01*
X133019800Y-86901700D02*
X134429500Y-86901700D01*
X116128800Y-96532700D02*
X117538500Y-96532700D01*
X116141500Y-95491300D02*
X117538500Y-95491300D01*
X117538500Y-95491300D02*
X116852700Y-96520000D01*
X116840000Y-96532700D02*
X116141500Y-95491300D01*
X116840000Y-93179900D02*
X116840000Y-92202000D01*
X116840000Y-99822000D02*
X116840000Y-98856800D01*
X144498000Y-116332000D02*
X143998000Y-116832000D01*
X148198000Y-116332000D02*
X146098000Y-116332000D01*
X143998000Y-116832000D02*
X143998000Y-115832000D01*
X143998000Y-115832000D02*
X143498000Y-116332000D01*
X141888000Y-116332000D02*
X139898000Y-116332000D01*
D17*
X107315000Y-82105500D03*
D18*
X104775000Y-82105500D03*
D17*
X126365000Y-77343000D03*
D18*
X123825000Y-77343000D03*
D17*
X145415000Y-74961750D03*
D18*
X142875000Y-74961750D03*
D17*
X164465000Y-77343000D03*
D18*
X161925000Y-77343000D03*
D17*
X183515000Y-79724250D03*
D18*
X180975000Y-79724250D03*
D17*
X107315000Y-101155500D03*
D18*
X104775000Y-101155500D03*
D17*
X126365000Y-96393000D03*
D18*
X123825000Y-96393000D03*
D17*
X145415000Y-94011750D03*
D18*
X142875000Y-94011750D03*
D17*
X164465000Y-96393000D03*
D18*
X161925000Y-96393000D03*
D17*
X183515000Y-98774250D03*
D18*
X180975000Y-98774250D03*
D17*
X107315000Y-120205500D03*
D18*
X104775000Y-120205500D03*
D17*
X126365000Y-115443000D03*
D18*
X123825000Y-115443000D03*
D17*
X145415000Y-113061750D03*
D18*
X142875000Y-113061750D03*
D17*
X164465000Y-115443000D03*
D18*
X161925000Y-115443000D03*
D17*
X183515000Y-117824250D03*
D18*
X180975000Y-117824250D03*
D19*
X171470180Y-138903357D03*
D18*
X168968768Y-138462290D03*
D17*
X152410000Y-133760000D03*
D18*
X149870000Y-133760000D03*
D20*
X198734261Y-132236709D03*
D18*
X196534557Y-130966709D03*
D21*
X216193205Y-143964672D03*
D18*
X214112559Y-142507788D03*
D20*
X189209261Y-148734709D03*
D18*
X187009557Y-147464709D03*
D21*
X205266555Y-159569734D03*
D18*
X203185909Y-158112850D03*
D22*
X170815000Y-58420000D03*
X170815000Y-60960000D03*
X170815000Y-63500000D03*
X170815000Y-66040000D03*
X170815000Y-68580000D03*
X170815000Y-71120000D03*
X170815000Y-73660000D03*
X170815000Y-76200000D03*
X170815000Y-78740000D03*
X170815000Y-81280000D03*
X170815000Y-83820000D03*
X170815000Y-86360000D03*
X155575000Y-86360000D03*
X155575000Y-83820000D03*
X155575000Y-81280000D03*
X155575000Y-78740000D03*
X155575000Y-76200000D03*
X155575000Y-73660000D03*
X155575000Y-71120000D03*
X155575000Y-68580000D03*
X155575000Y-66040000D03*
X155575000Y-63500000D03*
X155575000Y-60960000D03*
X155575000Y-58420000D03*
D23*
X119595000Y-72263000D03*
D24*
X130175000Y-72263000D03*
D25*
X125095000Y-72263000D03*
D24*
X120015000Y-72263000D03*
D23*
X130595000Y-72263000D03*
D26*
X127615000Y-67763000D03*
D27*
X128455049Y-69186769D03*
D26*
X122575000Y-67763000D03*
D28*
X121734951Y-69186769D03*
D24*
X187325000Y-74644250D03*
X177165000Y-74644250D03*
D23*
X176745000Y-74644250D03*
D25*
X182245000Y-74644250D03*
D23*
X187745000Y-74644250D03*
D27*
X185605049Y-71568019D03*
D26*
X184765000Y-70144250D03*
D28*
X178884951Y-71568019D03*
D26*
X179725000Y-70144250D03*
D24*
X177165000Y-93694250D03*
D23*
X176745000Y-93694250D03*
D25*
X182245000Y-93694250D03*
D23*
X187745000Y-93694250D03*
D24*
X187325000Y-93694250D03*
D27*
X185605049Y-90618019D03*
D26*
X184765000Y-89194250D03*
D28*
X178884951Y-90618019D03*
D26*
X179725000Y-89194250D03*
D23*
X187745000Y-112744250D03*
D24*
X177165000Y-112744250D03*
D23*
X176745000Y-112744250D03*
D24*
X187325000Y-112744250D03*
D25*
X182245000Y-112744250D03*
D27*
X185605049Y-109668019D03*
D26*
X184765000Y-108244250D03*
D28*
X178884951Y-109668019D03*
D26*
X179725000Y-108244250D03*
%LPC*%
D29*
X99060000Y-64992002D03*
D30*
X109065647Y-63227737D03*
D29*
X133731000Y-60198000D03*
D31*
X133731000Y-70358000D03*
D32*
X160314000Y-58674000D03*
X165314000Y-58674000D03*
D33*
X159314000Y-61174000D03*
X166314000Y-61174000D03*
D34*
X134620000Y-100838000D03*
X184567441Y-124867673D03*
X115598340Y-86506566D03*
X115207141Y-105976229D03*
D35*
X118380000Y-62738000D03*
X120380000Y-62738000D03*
D32*
X102070829Y-68676946D03*
X104570829Y-68676946D03*
X107070829Y-68676946D03*
D36*
X107225000Y-85344000D03*
D29*
X111125000Y-85344000D03*
D36*
X104825000Y-85344000D03*
D31*
X100965000Y-85344000D03*
D36*
X126275000Y-80645000D03*
D29*
X130175000Y-80645000D03*
D31*
X120015000Y-80645000D03*
D36*
X123875000Y-80645000D03*
X145325000Y-78232000D03*
D29*
X149225000Y-78232000D03*
D31*
X139065000Y-78232000D03*
D36*
X142925000Y-78232000D03*
X164375000Y-80645000D03*
D29*
X168275000Y-80645000D03*
D36*
X161975000Y-80645000D03*
D31*
X158115000Y-80645000D03*
D36*
X183558217Y-85027192D03*
D29*
X187458217Y-85027192D03*
D36*
X181158217Y-85027192D03*
D31*
X177298217Y-85027192D03*
D29*
X101092000Y-104394000D03*
D37*
X104992000Y-104394000D03*
D31*
X111252000Y-104394000D03*
D37*
X107392000Y-104394000D03*
D29*
X130175000Y-99695000D03*
D36*
X126275000Y-99695000D03*
D31*
X120015000Y-99695000D03*
D36*
X123875000Y-99695000D03*
D29*
X149225000Y-97282000D03*
D36*
X145325000Y-97282000D03*
X142925000Y-97282000D03*
D31*
X139065000Y-97282000D03*
D36*
X164375000Y-99695000D03*
D29*
X168275000Y-99695000D03*
D36*
X161975000Y-99695000D03*
D31*
X158115000Y-99695000D03*
D36*
X183425000Y-102108000D03*
D29*
X187325000Y-102108000D03*
D31*
X177165000Y-102108000D03*
D36*
X181025000Y-102108000D03*
D38*
X114230584Y-113968374D03*
D29*
X114230584Y-110068374D03*
D31*
X114230584Y-120228374D03*
D38*
X114230584Y-116368374D03*
D29*
X130175000Y-118745000D03*
D36*
X126275000Y-118745000D03*
X123875000Y-118745000D03*
D31*
X120015000Y-118745000D03*
D36*
X183425000Y-104521000D03*
D29*
X187325000Y-104521000D03*
D36*
X181025000Y-104521000D03*
D31*
X177165000Y-104521000D03*
D39*
X178140000Y-127680000D03*
D29*
X181127573Y-130186872D03*
D40*
X173344561Y-123656150D03*
D39*
X176301493Y-126137310D03*
D36*
X126275000Y-121031000D03*
D29*
X130175000Y-121031000D03*
D31*
X120015000Y-121031000D03*
D36*
X123875000Y-121031000D03*
X145198000Y-118618000D03*
D29*
X149098000Y-118618000D03*
D31*
X138938000Y-118618000D03*
D36*
X142798000Y-118618000D03*
D34*
X128397000Y-61722000D03*
D41*
X107315000Y-82105500D03*
D42*
X104775000Y-82105500D03*
D41*
X126365000Y-77343000D03*
D42*
X123825000Y-77343000D03*
D41*
X145415000Y-74961750D03*
D42*
X142875000Y-74961750D03*
D41*
X164465000Y-77343000D03*
D42*
X161925000Y-77343000D03*
D41*
X183515000Y-79724250D03*
D42*
X180975000Y-79724250D03*
D41*
X107315000Y-101155500D03*
D42*
X104775000Y-101155500D03*
D41*
X126365000Y-96393000D03*
D42*
X123825000Y-96393000D03*
D41*
X145415000Y-94011750D03*
D42*
X142875000Y-94011750D03*
D41*
X164465000Y-96393000D03*
D42*
X161925000Y-96393000D03*
D41*
X183515000Y-98774250D03*
D42*
X180975000Y-98774250D03*
D41*
X107315000Y-120205500D03*
D42*
X104775000Y-120205500D03*
D41*
X126365000Y-115443000D03*
D42*
X123825000Y-115443000D03*
D41*
X145415000Y-113061750D03*
D42*
X142875000Y-113061750D03*
D41*
X164465000Y-115443000D03*
D42*
X161925000Y-115443000D03*
D41*
X183515000Y-117824250D03*
D42*
X180975000Y-117824250D03*
D43*
X171470180Y-138903357D03*
D42*
X168968768Y-138462290D03*
D32*
X136525000Y-58420000D03*
X136525000Y-60960000D03*
X136525000Y-63500000D03*
X136525000Y-66040000D03*
X136525000Y-68580000D03*
X136525000Y-71120000D03*
X136525000Y-73660000D03*
X136525000Y-76200000D03*
X136525000Y-78740000D03*
X136525000Y-81280000D03*
X136525000Y-83820000D03*
X136525000Y-86360000D03*
X151765000Y-86360000D03*
X151765000Y-83820000D03*
X151765000Y-81280000D03*
X151765000Y-78740000D03*
X151765000Y-76200000D03*
X151765000Y-73660000D03*
X151765000Y-71120000D03*
X151765000Y-68580000D03*
X151765000Y-66040000D03*
X151765000Y-63500000D03*
X151765000Y-60960000D03*
X151765000Y-58420000D03*
D41*
X152410000Y-133760000D03*
D42*
X149870000Y-133760000D03*
D44*
X197861783Y-152586827D03*
D45*
X200079400Y-149943974D03*
D46*
X204392505Y-144803815D03*
D45*
X202174888Y-147446669D03*
D47*
X169222000Y-120730000D03*
X169222000Y-122630000D03*
X167222000Y-121680000D03*
D48*
X100545000Y-77025500D03*
D49*
X100965000Y-77025500D03*
D50*
X106045000Y-77025500D03*
D49*
X111125000Y-77025500D03*
D48*
X111545000Y-77025500D03*
D51*
X102684951Y-73949269D03*
D52*
X103525000Y-72525500D03*
X108565000Y-72525500D03*
D53*
X109405049Y-73949269D03*
D48*
X100545000Y-96075500D03*
D49*
X111125000Y-96075500D03*
D48*
X111545000Y-96075500D03*
D49*
X100965000Y-96075500D03*
D50*
X106045000Y-96075500D03*
D52*
X103525000Y-91575500D03*
D51*
X102684951Y-92999269D03*
D52*
X108565000Y-91575500D03*
D53*
X109405049Y-92999269D03*
D49*
X100965000Y-115125500D03*
D48*
X100545000Y-115125500D03*
X111545000Y-115125500D03*
D49*
X111125000Y-115125500D03*
D50*
X106045000Y-115125500D03*
D52*
X103525000Y-110625500D03*
D51*
X102684951Y-112049269D03*
D52*
X108565000Y-110625500D03*
D53*
X109405049Y-112049269D03*
D48*
X130595000Y-91313000D03*
D50*
X125095000Y-91313000D03*
D49*
X120015000Y-91313000D03*
D48*
X119595000Y-91313000D03*
D49*
X130175000Y-91313000D03*
D52*
X122575000Y-86813000D03*
D51*
X121734951Y-88236769D03*
D52*
X127615000Y-86813000D03*
D53*
X128455049Y-88236769D03*
D50*
X125095000Y-110363000D03*
D49*
X130175000Y-110363000D03*
X120015000Y-110363000D03*
D48*
X119595000Y-110363000D03*
X130595000Y-110363000D03*
D52*
X122575000Y-105863000D03*
D51*
X121734951Y-107286769D03*
D53*
X128455049Y-107286769D03*
D52*
X127615000Y-105863000D03*
D48*
X149645000Y-69881750D03*
D49*
X139065000Y-69881750D03*
D48*
X138645000Y-69881750D03*
D49*
X149225000Y-69881750D03*
D50*
X144145000Y-69881750D03*
D52*
X141625000Y-65381750D03*
D51*
X140784951Y-66805519D03*
D52*
X146665000Y-65381750D03*
D53*
X147505049Y-66805519D03*
D49*
X149225000Y-88931750D03*
X139065000Y-88931750D03*
D48*
X138645000Y-88931750D03*
X149645000Y-88931750D03*
D50*
X144145000Y-88931750D03*
D52*
X141625000Y-84431750D03*
D51*
X140784951Y-85855519D03*
D53*
X147505049Y-85855519D03*
D52*
X146665000Y-84431750D03*
D48*
X149645000Y-107981750D03*
D50*
X144145000Y-107981750D03*
D49*
X149225000Y-107981750D03*
X139065000Y-107981750D03*
D48*
X138645000Y-107981750D03*
D51*
X140784951Y-104905519D03*
D52*
X141625000Y-103481750D03*
D53*
X147505049Y-104905519D03*
D52*
X146665000Y-103481750D03*
D49*
X168275000Y-72263000D03*
D48*
X168695000Y-72263000D03*
D49*
X158115000Y-72263000D03*
D50*
X163195000Y-72263000D03*
D48*
X157695000Y-72263000D03*
D51*
X159834951Y-69186769D03*
D52*
X160675000Y-67763000D03*
X165715000Y-67763000D03*
D53*
X166555049Y-69186769D03*
D48*
X168695000Y-91313000D03*
X157695000Y-91313000D03*
D49*
X158115000Y-91313000D03*
X168275000Y-91313000D03*
D50*
X163195000Y-91313000D03*
D52*
X160675000Y-86813000D03*
D51*
X159834951Y-88236769D03*
D52*
X165715000Y-86813000D03*
D53*
X166555049Y-88236769D03*
D50*
X163195000Y-110363000D03*
D49*
X158115000Y-110363000D03*
X168275000Y-110363000D03*
D48*
X168695000Y-110363000D03*
X157695000Y-110363000D03*
D52*
X160675000Y-105863000D03*
D51*
X159834951Y-107286769D03*
D53*
X166555049Y-107286769D03*
D52*
X165715000Y-105863000D03*
D49*
X204573818Y-129742300D03*
X195775000Y-124662300D03*
D48*
X204937549Y-129952300D03*
D50*
X200174409Y-127202300D03*
D48*
X195411269Y-124452300D03*
D54*
X198802637Y-122858181D03*
D55*
X200242025Y-122045186D03*
D56*
X204622412Y-126218230D03*
D55*
X204606793Y-124565186D03*
D49*
X176104430Y-134562133D03*
X166098784Y-132797867D03*
D50*
X171101607Y-133680000D03*
D48*
X165685164Y-132724935D03*
X176518050Y-134635065D03*
D57*
X168326787Y-130067038D03*
D58*
X169401308Y-128810772D03*
D59*
X174944791Y-131233969D03*
D58*
X174364739Y-129685959D03*
D49*
X195048818Y-146240300D03*
D48*
X195412549Y-146450300D03*
X185886269Y-140950300D03*
D49*
X186250000Y-141160300D03*
D50*
X190649409Y-143700300D03*
D55*
X190717025Y-138543186D03*
D54*
X189277637Y-139356181D03*
D55*
X195081793Y-141063186D03*
D56*
X195097412Y-142716230D03*
D50*
X151140000Y-128680000D03*
D49*
X156220000Y-128680000D03*
D48*
X145640000Y-128680000D03*
X156640000Y-128680000D03*
D49*
X146060000Y-128680000D03*
D51*
X147779951Y-125603769D03*
D52*
X148620000Y-124180000D03*
X153660000Y-124180000D03*
D53*
X154500049Y-125603769D03*
D48*
X213561314Y-135920268D03*
D49*
X222227942Y-141988706D03*
D48*
X222571986Y-142229608D03*
D49*
X213905358Y-136161170D03*
D50*
X218066650Y-139074938D03*
D60*
X218583481Y-133943341D03*
D61*
X217078713Y-134627793D03*
D62*
X222583495Y-138482281D03*
D60*
X222712007Y-136834166D03*
D49*
X202978708Y-151766232D03*
D48*
X202634664Y-151525330D03*
X211645336Y-157834670D03*
D50*
X207140000Y-154680000D03*
D49*
X211301292Y-157593768D03*
D61*
X206152063Y-150232855D03*
D60*
X207656831Y-149548403D03*
D62*
X211656845Y-154087343D03*
D60*
X211785357Y-152439228D03*
D63*
X198734261Y-132236709D03*
D42*
X196534557Y-130966709D03*
D64*
X216193205Y-143964672D03*
D42*
X214112559Y-142507788D03*
D63*
X189209261Y-148734709D03*
D42*
X187009557Y-147464709D03*
D64*
X205266555Y-159569734D03*
D42*
X203185909Y-158112850D03*
D29*
X194785041Y-116504139D03*
D65*
X192278169Y-119491712D03*
D66*
X188254319Y-124287151D03*
D65*
X190735479Y-121330219D03*
D29*
X214189562Y-127853920D03*
D65*
X211682690Y-130841493D03*
D66*
X207658840Y-135636932D03*
D65*
X210140000Y-132680000D03*
D39*
X197196028Y-136680000D03*
D29*
X200183601Y-139186872D03*
D39*
X195357521Y-135137310D03*
D40*
X192400589Y-132656150D03*
D67*
X198134458Y-148275297D03*
D29*
X195627586Y-151262870D03*
D67*
X199677148Y-146436790D03*
D46*
X202158308Y-143479858D03*
D68*
X114427000Y-82169000D03*
D69*
X114427000Y-78719000D03*
D31*
X114427000Y-72009000D03*
D69*
X114427000Y-75459000D03*
X114427000Y-97642000D03*
D68*
X114427000Y-101092000D03*
D69*
X114427000Y-94382000D03*
D31*
X114427000Y-90932000D03*
D68*
X116713000Y-120142000D03*
D69*
X116713000Y-116692000D03*
X116713000Y-113432000D03*
D31*
X116713000Y-109982000D03*
D68*
X116586000Y-82169000D03*
D69*
X116586000Y-78719000D03*
X116586000Y-75459000D03*
D31*
X116586000Y-72009000D03*
D68*
X155194000Y-104754000D03*
D69*
X155194000Y-101304000D03*
D31*
X155194000Y-94594000D03*
D69*
X155194000Y-98044000D03*
X171450000Y-96732000D03*
D68*
X171450000Y-100182000D03*
D31*
X171450000Y-90022000D03*
D69*
X171450000Y-93472000D03*
X171323000Y-114385000D03*
D68*
X171323000Y-117835000D03*
D31*
X171323000Y-107675000D03*
D69*
X171323000Y-111125000D03*
D70*
X183928155Y-82343258D03*
D71*
X187378155Y-82343258D03*
D70*
X180668155Y-82343258D03*
D31*
X177218155Y-82343258D03*
D69*
X173990000Y-114406000D03*
D68*
X173990000Y-117856000D03*
D69*
X173990000Y-111146000D03*
D31*
X173990000Y-107696000D03*
D45*
X192187903Y-122909011D03*
D44*
X189970286Y-125551864D03*
D46*
X196501008Y-117768852D03*
D45*
X194283391Y-120411706D03*
D72*
X159254395Y-132702520D03*
D73*
X159853481Y-129304933D03*
D74*
X161018660Y-122696873D03*
D73*
X160419574Y-126094460D03*
D72*
X161974821Y-133288060D03*
D73*
X162573907Y-129890473D03*
D74*
X163739086Y-123282413D03*
D73*
X163140000Y-126680000D03*
D45*
X181807617Y-137453877D03*
D44*
X179590000Y-140096730D03*
D46*
X186120722Y-132313718D03*
D45*
X183903105Y-134956572D03*
D29*
X158115000Y-102235000D03*
D37*
X162015000Y-102235000D03*
X164415000Y-102235000D03*
D31*
X168275000Y-102235000D03*
D38*
X152273000Y-113861000D03*
D29*
X152273000Y-109961000D03*
D38*
X152273000Y-116261000D03*
D31*
X152273000Y-120121000D03*
D35*
X111030000Y-66209000D03*
X113030000Y-66209000D03*
X115030000Y-66209000D03*
X111030000Y-68368000D03*
X113030000Y-68368000D03*
X115030000Y-68368000D03*
D68*
X152273000Y-104796000D03*
D69*
X152273000Y-101346000D03*
X152273000Y-98086000D03*
D31*
X152273000Y-94636000D03*
D69*
X135763000Y-112395000D03*
D68*
X135763000Y-115845000D03*
D69*
X135763000Y-109135000D03*
D31*
X135763000Y-105685000D03*
D68*
X173990000Y-100224000D03*
D69*
X173990000Y-96774000D03*
X173990000Y-93514000D03*
D31*
X173990000Y-90064000D03*
D75*
X185682981Y-60266219D03*
X178682981Y-60266219D03*
X185682981Y-64266219D03*
X178682981Y-64266219D03*
D76*
X176882981Y-62266219D03*
X183882981Y-62266219D03*
X180882981Y-62266219D03*
X175382981Y-58266219D03*
X175382981Y-66266219D03*
D69*
X133477000Y-112395000D03*
D68*
X133477000Y-115845000D03*
D69*
X133477000Y-109135000D03*
D31*
X133477000Y-105685000D03*
D69*
X133731000Y-88011000D03*
D68*
X133731000Y-91461000D03*
D69*
X133731000Y-84751000D03*
D31*
X133731000Y-81301000D03*
D68*
X116840000Y-101092000D03*
D69*
X116840000Y-97642000D03*
X116840000Y-94382000D03*
D31*
X116840000Y-90932000D03*
D36*
X145198000Y-116332000D03*
D29*
X149098000Y-116332000D03*
D31*
X138938000Y-116332000D03*
D36*
X142798000Y-116332000D03*
D32*
X107076249Y-66040000D03*
X102076249Y-66040000D03*
D34*
X175778893Y-78619815D03*
X204140000Y-138680000D03*
D32*
X104570829Y-66040000D03*
X146518000Y-58674000D03*
X141518000Y-58674000D03*
D33*
X140518000Y-61174000D03*
X147518000Y-61174000D03*
D32*
X170815000Y-58420000D03*
X170815000Y-60960000D03*
X170815000Y-63500000D03*
X170815000Y-66040000D03*
X170815000Y-68580000D03*
X170815000Y-71120000D03*
X170815000Y-73660000D03*
X170815000Y-76200000D03*
X170815000Y-78740000D03*
X170815000Y-81280000D03*
X170815000Y-83820000D03*
X170815000Y-86360000D03*
X155575000Y-86360000D03*
X155575000Y-83820000D03*
X155575000Y-81280000D03*
X155575000Y-78740000D03*
X155575000Y-76200000D03*
X155575000Y-73660000D03*
X155575000Y-71120000D03*
X155575000Y-68580000D03*
X155575000Y-66040000D03*
X155575000Y-63500000D03*
X155575000Y-60960000D03*
X155575000Y-58420000D03*
D48*
X119595000Y-72263000D03*
D49*
X130175000Y-72263000D03*
D50*
X125095000Y-72263000D03*
D49*
X120015000Y-72263000D03*
D48*
X130595000Y-72263000D03*
D52*
X127615000Y-67763000D03*
D77*
X128455049Y-69186769D03*
D52*
X122575000Y-67763000D03*
D78*
X121734951Y-69186769D03*
D49*
X187325000Y-74644250D03*
X177165000Y-74644250D03*
D48*
X176745000Y-74644250D03*
D50*
X182245000Y-74644250D03*
D48*
X187745000Y-74644250D03*
D77*
X185605049Y-71568019D03*
D52*
X184765000Y-70144250D03*
D78*
X178884951Y-71568019D03*
D52*
X179725000Y-70144250D03*
D49*
X177165000Y-93694250D03*
D48*
X176745000Y-93694250D03*
D50*
X182245000Y-93694250D03*
D48*
X187745000Y-93694250D03*
D49*
X187325000Y-93694250D03*
D77*
X185605049Y-90618019D03*
D52*
X184765000Y-89194250D03*
D78*
X178884951Y-90618019D03*
D52*
X179725000Y-89194250D03*
D48*
X187745000Y-112744250D03*
D49*
X177165000Y-112744250D03*
D48*
X176745000Y-112744250D03*
D49*
X187325000Y-112744250D03*
D50*
X182245000Y-112744250D03*
D77*
X185605049Y-109668019D03*
D52*
X184765000Y-108244250D03*
D78*
X178884951Y-109668019D03*
D52*
X179725000Y-108244250D03*
M02*
