G04 #@! TF.GenerationSoftware,KiCad,Pcbnew,(6.0.7)*
G04 #@! TF.CreationDate,2023-08-06T12:32:10+01:00*
G04 #@! TF.ProjectId,ergodash,6572676f-6461-4736-982e-6b696361645f,0.1*
G04 #@! TF.SameCoordinates,Original*
G04 #@! TF.FileFunction,Legend,Top*
G04 #@! TF.FilePolarity,Positive*
%FSLAX46Y46*%
G04 Gerber Fmt 4.6, Leading zero omitted, Abs format (unit mm)*
G04 Created by KiCad (PCBNEW (6.0.7)) date 2023-08-06 12:32:10*
%MOMM*%
%LPD*%
G01*
G04 APERTURE LIST*
G04 Aperture macros list*
%AMRoundRect*
0 Rectangle with rounded corners*
0 $1 Rounding radius*
0 $2 $3 $4 $5 $6 $7 $8 $9 X,Y pos of 4 corners*
0 Add a 4 corners polygon primitive as box body*
4,1,4,$2,$3,$4,$5,$6,$7,$8,$9,$2,$3,0*
0 Add four circle primitives for the rounded corners*
1,1,$1+$1,$2,$3*
1,1,$1+$1,$4,$5*
1,1,$1+$1,$6,$7*
1,1,$1+$1,$8,$9*
0 Add four rect primitives between the rounded corners*
20,1,$1+$1,$2,$3,$4,$5,0*
20,1,$1+$1,$4,$5,$6,$7,0*
20,1,$1+$1,$6,$7,$8,$9,0*
20,1,$1+$1,$8,$9,$2,$3,0*%
%AMHorizOval*
0 Thick line with rounded ends*
0 $1 width*
0 $2 $3 position (X,Y) of the first rounded end (center of the circle)*
0 $4 $5 position (X,Y) of the second rounded end (center of the circle)*
0 Add line between two ends*
20,1,$1,$2,$3,$4,$5,0*
0 Add two circle primitives to create the rounded ends*
1,1,$1,$2,$3*
1,1,$1,$4,$5*%
%AMRotRect*
0 Rectangle, with rotation*
0 The origin of the aperture is its center*
0 $1 length*
0 $2 width*
0 $3 Rotation angle, in degrees counterclockwise*
0 Add horizontal line*
21,1,$1,$2,0,0,$3*%
G04 Aperture macros list end*
%ADD10C,0.500000*%
%ADD11C,0.200000*%
%ADD12C,0.300000*%
%ADD13C,0.125000*%
%ADD14C,0.250000*%
%ADD15C,0.150000*%
%ADD16C,0.120000*%
%ADD17R,1.905000X1.905000*%
%ADD18C,1.905000*%
%ADD19RotRect,1.905000X1.905000X350.000000*%
%ADD20C,1.524000*%
%ADD21C,1.900000*%
%ADD22C,1.700000*%
%ADD23C,4.000000*%
%ADD24HorizOval,2.400000X0.578509X0.689440X-0.578509X-0.689440X0*%
%ADD25O,2.300000X3.337000*%
%ADD26HorizOval,2.400000X0.578509X-0.689440X-0.578509X0.689440X0*%
%ADD27HorizOval,2.400000X0.845723X0.307818X-0.845723X-0.307818X0*%
%ADD28HorizOval,2.300000X-0.259250X-0.449034X0.259250X0.449034X0*%
%ADD29HorizOval,2.400000X0.156283X-0.886327X-0.156283X0.886327X0*%
%ADD30HorizOval,2.400000X0.689440X0.578509X-0.689440X-0.578509X0*%
%ADD31HorizOval,2.300000X-0.090037X-0.510623X0.090037X0.510623X0*%
%ADD32HorizOval,2.400000X0.450000X-0.779423X-0.450000X0.779423X0*%
%ADD33HorizOval,2.300000X-0.297399X-0.424730X0.297399X0.424730X0*%
%ADD34HorizOval,2.400000X0.869333X0.232937X-0.869333X-0.232937X0*%
%ADD35HorizOval,2.400000X0.078440X-0.896575X-0.078440X0.896575X0*%
%ADD36RotRect,1.905000X1.905000X330.000000*%
%ADD37RotRect,1.905000X1.905000X325.000000*%
%ADD38C,1.210000*%
%ADD39O,2.200000X1.300000*%
%ADD40C,2.000000*%
%ADD41HorizOval,2.000000X0.000000X0.000000X0.000000X0.000000X0*%
%ADD42O,2.000000X2.000000*%
%ADD43C,1.924000*%
%ADD44C,2.200000*%
%ADD45C,5.400000*%
%ADD46RoundRect,0.200000X-0.762000X-0.762000X0.762000X-0.762000X0.762000X0.762000X-0.762000X0.762000X0*%
%ADD47RoundRect,0.200000X0.700000X0.600000X-0.700000X0.600000X-0.700000X-0.600000X0.700000X-0.600000X0*%
%ADD48RoundRect,0.200000X-0.700000X-0.600000X0.700000X-0.600000X0.700000X0.600000X-0.700000X0.600000X0*%
%ADD49RoundRect,0.200000X-0.600000X0.700000X-0.600000X-0.700000X0.600000X-0.700000X0.600000X0.700000X0*%
%ADD50RoundRect,0.200000X0.921904X0.009675X-0.150559X0.909578X-0.921904X-0.009675X0.150559X-0.909578X0*%
%ADD51HorizOval,2.000000X0.000000X0.000000X0.000000X0.000000X0*%
%ADD52RoundRect,0.200000X-0.952500X-0.952500X0.952500X-0.952500X0.952500X0.952500X-0.952500X0.952500X0*%
%ADD53C,2.305000*%
%ADD54RoundRect,0.200000X-1.103429X-0.772629X0.772629X-1.103429X1.103429X0.772629X-0.772629X1.103429X0*%
%ADD55RoundRect,0.200000X0.098605X-1.127066X1.127066X0.098605X-0.098605X1.127066X-1.127066X-0.098605X0*%
%ADD56RoundRect,0.200000X-0.054603X-0.998508X0.973857X0.227163X0.054603X0.998508X-0.973857X-0.227163X0*%
%ADD57HorizOval,2.000000X0.000000X0.000000X0.000000X0.000000X0*%
%ADD58RoundRect,0.200000X-0.450000X-0.400000X0.450000X-0.400000X0.450000X0.400000X-0.450000X0.400000X0*%
%ADD59C,2.300000*%
%ADD60C,2.100000*%
%ADD61C,4.400000*%
%ADD62HorizOval,2.800000X0.578509X0.689440X-0.578509X-0.689440X0*%
%ADD63O,2.700000X3.737000*%
%ADD64HorizOval,2.800000X0.578509X-0.689440X-0.578509X0.689440X0*%
%ADD65HorizOval,2.800000X0.845723X0.307818X-0.845723X-0.307818X0*%
%ADD66HorizOval,2.700000X-0.259250X-0.449034X0.259250X0.449034X0*%
%ADD67HorizOval,2.800000X0.156283X-0.886327X-0.156283X0.886327X0*%
%ADD68HorizOval,2.800000X0.689440X0.578509X-0.689440X-0.578509X0*%
%ADD69HorizOval,2.700000X-0.090037X-0.510623X0.090037X0.510623X0*%
%ADD70HorizOval,2.800000X0.450000X-0.779423X-0.450000X0.779423X0*%
%ADD71HorizOval,2.700000X-0.297399X-0.424730X0.297399X0.424730X0*%
%ADD72HorizOval,2.800000X0.869333X0.232937X-0.869333X-0.232937X0*%
%ADD73HorizOval,2.800000X0.078440X-0.896575X-0.078440X0.896575X0*%
%ADD74RoundRect,0.200000X-1.301139X-0.348639X0.348639X-1.301139X1.301139X0.348639X-0.348639X1.301139X0*%
%ADD75RoundRect,0.200000X-1.326574X-0.233911X0.233911X-1.326574X1.326574X0.233911X-0.233911X1.326574X0*%
%ADD76RoundRect,0.200000X-0.009675X0.921904X-0.909578X-0.150559X0.009675X-0.921904X0.909578X0.150559X0*%
%ADD77HorizOval,2.000000X0.000000X0.000000X0.000000X0.000000X0*%
%ADD78RoundRect,0.200000X0.009675X-0.921904X0.909578X0.150559X-0.009675X0.921904X-0.909578X-0.150559X0*%
%ADD79RoundRect,0.200000X0.800000X-0.800000X0.800000X0.800000X-0.800000X0.800000X-0.800000X-0.800000X0*%
%ADD80RoundRect,0.200000X0.600000X-0.800000X0.600000X0.800000X-0.600000X0.800000X-0.600000X-0.800000X0*%
%ADD81RoundRect,0.200000X0.800000X0.600000X-0.800000X0.600000X-0.800000X-0.600000X0.800000X-0.600000X0*%
%ADD82RoundRect,0.200000X0.800000X0.800000X-0.800000X0.800000X-0.800000X-0.800000X0.800000X-0.800000X0*%
%ADD83RoundRect,0.200000X0.648928X-0.926765X0.926765X0.648928X-0.648928X0.926765X-0.926765X-0.648928X0*%
%ADD84RoundRect,0.200000X0.451966X-0.892035X0.729803X0.683657X-0.451966X0.892035X-0.729803X-0.683657X0*%
%ADD85HorizOval,2.000000X0.000000X0.000000X0.000000X0.000000X0*%
%ADD86C,1.610000*%
%ADD87O,2.600000X1.700000*%
%ADD88HorizOval,2.800000X-0.578509X0.689440X0.578509X-0.689440X0*%
%ADD89HorizOval,2.800000X-0.578509X-0.689440X0.578509X0.689440X0*%
G04 APERTURE END LIST*
D10*
X151003000Y-121412000D02*
X151003000Y-108458000D01*
X151003000Y-108458000D02*
X153543000Y-108458000D01*
X151003000Y-121539000D02*
X153543000Y-121412000D01*
X153543000Y-108458000D02*
X153543000Y-121412000D01*
D11*
X154684627Y-118456531D02*
X154732246Y-118342245D01*
X154779865Y-118304150D01*
X154875103Y-118266055D01*
X155017960Y-118266055D01*
X155113198Y-118304150D01*
X155160817Y-118342245D01*
X155208436Y-118418436D01*
X155208436Y-118723198D01*
X154208436Y-118723198D01*
X154208436Y-118456531D01*
X154256056Y-118380340D01*
X154303675Y-118342245D01*
X154398913Y-118304150D01*
X154494151Y-118304150D01*
X154589389Y-118342245D01*
X154637008Y-118380340D01*
X154684627Y-118456531D01*
X154684627Y-118723198D01*
X155208436Y-117580340D02*
X154684627Y-117580340D01*
X154589389Y-117618436D01*
X154541770Y-117694626D01*
X154541770Y-117847007D01*
X154589389Y-117923198D01*
X155160817Y-117580340D02*
X155208436Y-117656531D01*
X155208436Y-117847007D01*
X155160817Y-117923198D01*
X155065579Y-117961293D01*
X154970341Y-117961293D01*
X154875103Y-117923198D01*
X154827484Y-117847007D01*
X154827484Y-117656531D01*
X154779865Y-117580340D01*
X155160817Y-116856531D02*
X155208436Y-116932721D01*
X155208436Y-117085102D01*
X155160817Y-117161293D01*
X155113198Y-117199388D01*
X155017960Y-117237483D01*
X154732246Y-117237483D01*
X154637008Y-117199388D01*
X154589389Y-117161293D01*
X154541770Y-117085102D01*
X154541770Y-116932721D01*
X154589389Y-116856531D01*
X155208436Y-116513674D02*
X154208436Y-116513674D01*
X154827484Y-116437483D02*
X155208436Y-116208912D01*
X154541770Y-116208912D02*
X154922722Y-116513674D01*
X155208436Y-115751769D02*
X155160817Y-115827959D01*
X155065579Y-115866055D01*
X154208436Y-115866055D01*
X155208436Y-115447007D02*
X154541770Y-115447007D01*
X154208436Y-115447007D02*
X154256056Y-115485102D01*
X154303675Y-115447007D01*
X154256056Y-115408912D01*
X154208436Y-115447007D01*
X154303675Y-115447007D01*
X154541770Y-114723198D02*
X155351294Y-114723198D01*
X155446532Y-114761293D01*
X155494151Y-114799388D01*
X155541770Y-114875578D01*
X155541770Y-114989864D01*
X155494151Y-115066055D01*
X155160817Y-114723198D02*
X155208436Y-114799388D01*
X155208436Y-114951769D01*
X155160817Y-115027959D01*
X155113198Y-115066055D01*
X155017960Y-115104150D01*
X154732246Y-115104150D01*
X154637008Y-115066055D01*
X154589389Y-115027959D01*
X154541770Y-114951769D01*
X154541770Y-114799388D01*
X154589389Y-114723198D01*
X155208436Y-114342245D02*
X154208436Y-114342245D01*
X155208436Y-113999388D02*
X154684627Y-113999388D01*
X154589389Y-114037483D01*
X154541770Y-114113674D01*
X154541770Y-114227959D01*
X154589389Y-114304150D01*
X154637008Y-114342245D01*
X154541770Y-113732721D02*
X154541770Y-113427959D01*
X154208436Y-113618436D02*
X155065579Y-113618436D01*
X155160817Y-113580340D01*
X155208436Y-113504150D01*
X155208436Y-113427959D01*
X155208436Y-112132721D02*
X155208436Y-112589864D01*
X155208436Y-112361293D02*
X154208436Y-112361293D01*
X154351294Y-112437483D01*
X154446532Y-112513674D01*
X154494151Y-112589864D01*
X155208436Y-111789864D02*
X154208436Y-111789864D01*
X154827484Y-111713674D02*
X155208436Y-111485102D01*
X154541770Y-111485102D02*
X154922722Y-111789864D01*
D12*
X134568755Y-66722202D02*
X133068755Y-66722202D01*
X133211612Y-66079345D02*
X133140184Y-66007917D01*
X133068755Y-65865059D01*
X133068755Y-65507917D01*
X133140184Y-65365059D01*
X133211612Y-65293631D01*
X133354469Y-65222202D01*
X133497326Y-65222202D01*
X133711612Y-65293631D01*
X134568755Y-66150774D01*
X134568755Y-65222202D01*
X134425898Y-63722202D02*
X134497326Y-63793631D01*
X134568755Y-64007917D01*
X134568755Y-64150774D01*
X134497326Y-64365059D01*
X134354469Y-64507917D01*
X134211612Y-64579345D01*
X133925898Y-64650774D01*
X133711612Y-64650774D01*
X133425898Y-64579345D01*
X133283041Y-64507917D01*
X133140184Y-64365059D01*
X133068755Y-64150774D01*
X133068755Y-64007917D01*
X133140184Y-63793631D01*
X133211612Y-63722202D01*
X102718540Y-65152248D02*
X102458068Y-63675037D01*
X103115966Y-63704093D02*
X103173906Y-63621346D01*
X103302189Y-63526196D01*
X103653906Y-63464178D01*
X103806996Y-63509715D01*
X103889743Y-63567655D01*
X103984893Y-63695938D01*
X104009700Y-63836625D01*
X103976567Y-64060059D01*
X103281288Y-65053021D01*
X104195752Y-64891776D01*
X105648157Y-64490617D02*
X105590217Y-64573364D01*
X105391590Y-64680918D01*
X105250903Y-64705725D01*
X105027469Y-64672591D01*
X104861976Y-64556712D01*
X104766825Y-64428428D01*
X104646868Y-64159458D01*
X104609658Y-63948428D01*
X104630388Y-63654651D01*
X104675924Y-63501560D01*
X104791804Y-63336067D01*
X104990431Y-63228513D01*
X105131118Y-63203706D01*
X105354551Y-63236839D01*
X105437298Y-63294779D01*
D13*
X104345379Y-70448512D02*
X104178713Y-70210417D01*
X104059665Y-70448512D02*
X104059665Y-69948512D01*
X104250141Y-69948512D01*
X104297760Y-69972322D01*
X104321570Y-69996131D01*
X104345379Y-70043750D01*
X104345379Y-70115179D01*
X104321570Y-70162798D01*
X104297760Y-70186607D01*
X104250141Y-70210417D01*
X104059665Y-70210417D01*
X104821570Y-69972322D02*
X104773951Y-69948512D01*
X104702522Y-69948512D01*
X104631094Y-69972322D01*
X104583475Y-70019941D01*
X104559665Y-70067560D01*
X104535856Y-70162798D01*
X104535856Y-70234226D01*
X104559665Y-70329464D01*
X104583475Y-70377083D01*
X104631094Y-70424702D01*
X104702522Y-70448512D01*
X104750141Y-70448512D01*
X104821570Y-70424702D01*
X104845379Y-70400893D01*
X104845379Y-70234226D01*
X104750141Y-70234226D01*
X105226332Y-70186607D02*
X105297760Y-70210417D01*
X105321570Y-70234226D01*
X105345379Y-70281845D01*
X105345379Y-70353274D01*
X105321570Y-70400893D01*
X105297760Y-70424702D01*
X105250141Y-70448512D01*
X105059665Y-70448512D01*
X105059665Y-69948512D01*
X105226332Y-69948512D01*
X105273951Y-69972322D01*
X105297760Y-69996131D01*
X105321570Y-70043750D01*
X105321570Y-70091369D01*
X105297760Y-70138988D01*
X105273951Y-70162798D01*
X105226332Y-70186607D01*
X105059665Y-70186607D01*
X105246220Y-67585291D02*
X104984316Y-67251958D01*
X105246220Y-67251958D02*
X104984316Y-67585291D01*
X104865268Y-67251958D02*
X104674792Y-67251958D01*
X104793839Y-67085291D02*
X104793839Y-67513862D01*
X104770030Y-67561481D01*
X104722411Y-67585291D01*
X104674792Y-67585291D01*
X104508125Y-67585291D02*
X104508125Y-67251958D01*
X104508125Y-67347196D02*
X104484316Y-67299577D01*
X104460506Y-67275767D01*
X104412887Y-67251958D01*
X104365268Y-67251958D01*
X103984316Y-67585291D02*
X103984316Y-67323386D01*
X104008125Y-67275767D01*
X104055744Y-67251958D01*
X104150982Y-67251958D01*
X104198601Y-67275767D01*
X103984316Y-67561481D02*
X104031935Y-67585291D01*
X104150982Y-67585291D01*
X104198601Y-67561481D01*
X104222411Y-67513862D01*
X104222411Y-67466243D01*
X104198601Y-67418624D01*
X104150982Y-67394815D01*
X104031935Y-67394815D01*
X103984316Y-67371005D01*
D12*
X110593487Y-63187252D02*
X111093487Y-64687252D01*
X111593487Y-63187252D01*
D13*
X102192381Y-67134871D02*
X102025715Y-67634871D01*
X101859048Y-67134871D01*
D12*
X207241933Y-141496115D02*
X207788034Y-141878500D01*
X207421188Y-142900538D02*
X206641043Y-142354275D01*
X207788196Y-140715970D01*
X208568341Y-141262234D01*
X208825448Y-143883812D02*
X209972601Y-142245508D01*
X208880075Y-143805797D02*
X208669419Y-143774559D01*
X208357361Y-143556054D01*
X208255959Y-143368787D01*
X208232571Y-143236146D01*
X208263809Y-143025491D01*
X208591567Y-142557404D01*
X208778834Y-142456001D01*
X208911475Y-142432613D01*
X209122130Y-142463851D01*
X209434188Y-142682356D01*
X209535591Y-142869623D01*
X210214333Y-143228620D02*
X209761622Y-144539328D01*
X210619943Y-143977688D01*
X210385738Y-144976338D01*
X211462564Y-144102641D01*
X212024042Y-146123491D02*
X212624932Y-145265332D01*
X212656170Y-145054677D01*
X212554767Y-144867409D01*
X212242709Y-144648904D01*
X212032054Y-144617666D01*
X212078668Y-146045477D02*
X211868013Y-146014238D01*
X211477941Y-145741107D01*
X211376538Y-145553840D01*
X211407776Y-145343184D01*
X211517029Y-145187155D01*
X211704296Y-145085753D01*
X211914951Y-145116991D01*
X212305024Y-145390123D01*
X212515679Y-145421361D01*
X212804187Y-146669754D02*
X213568955Y-145577552D01*
X213350450Y-145889610D02*
X213537717Y-145788207D01*
X213670358Y-145764819D01*
X213881013Y-145796057D01*
X214037042Y-145905310D01*
X214520505Y-147871534D02*
X215667658Y-146233230D01*
X214575132Y-147793519D02*
X214364476Y-147762281D01*
X214052419Y-147543776D01*
X213951016Y-147356508D01*
X213927628Y-147223868D01*
X213958866Y-147013212D01*
X214286624Y-146545126D01*
X214473891Y-146443723D01*
X214606532Y-146420335D01*
X214817187Y-146451573D01*
X215129245Y-146670078D01*
X215230648Y-146857345D01*
X216002781Y-148909434D02*
X216603670Y-148051275D01*
X216634908Y-147840619D01*
X216533506Y-147653352D01*
X216221448Y-147434847D01*
X216010792Y-147403609D01*
X216057407Y-148831419D02*
X215846752Y-148800181D01*
X215456679Y-148527050D01*
X215355277Y-148339782D01*
X215386515Y-148129127D01*
X215495767Y-147973098D01*
X215683035Y-147871696D01*
X215893690Y-147902934D01*
X216283762Y-148176065D01*
X216494418Y-148207303D01*
X216759537Y-149323056D02*
X216860940Y-149510323D01*
X217172998Y-149728829D01*
X217383653Y-149760067D01*
X217570920Y-149658664D01*
X217625547Y-149580650D01*
X217656785Y-149369994D01*
X217555382Y-149182727D01*
X217321339Y-149018848D01*
X217219936Y-148831581D01*
X217251174Y-148620926D01*
X217305800Y-148542911D01*
X217493068Y-148441509D01*
X217703723Y-148472747D01*
X217937766Y-148636626D01*
X218039169Y-148823893D01*
X218109172Y-150384345D02*
X219256324Y-148746041D01*
X218811302Y-150875982D02*
X219412191Y-150017822D01*
X219443430Y-149807167D01*
X219342027Y-149619900D01*
X219107984Y-149456021D01*
X218897328Y-149424783D01*
X218764687Y-149448171D01*
X210778178Y-146740473D02*
X210934207Y-146849725D01*
X211035609Y-147036993D01*
X211058997Y-147169633D01*
X211027759Y-147380289D01*
X210887268Y-147746973D01*
X210614137Y-148137045D01*
X210317617Y-148394477D01*
X210130350Y-148495880D01*
X209997709Y-148519268D01*
X209787054Y-148488029D01*
X209631025Y-148378777D01*
X209529622Y-148191510D01*
X209506234Y-148058869D01*
X209537472Y-147848214D01*
X209677963Y-147481529D01*
X209951095Y-147091457D01*
X210247614Y-146834025D01*
X210434881Y-146732623D01*
X210567522Y-146709235D01*
X210778178Y-146740473D01*
X210988509Y-149096769D02*
X211011897Y-149229410D01*
X210879256Y-149252798D01*
X210855868Y-149120157D01*
X210988509Y-149096769D01*
X210879256Y-149252798D01*
X212517560Y-150399951D02*
X211581387Y-149744435D01*
X212049474Y-150072193D02*
X213196626Y-148433889D01*
X212876719Y-148558680D01*
X212611437Y-148605456D01*
X212400782Y-148574218D01*
D13*
X102179986Y-69948512D02*
X102013320Y-70448512D01*
X101846653Y-69948512D01*
D12*
X115445608Y-63386429D02*
X115302751Y-63315000D01*
X115088465Y-63315000D01*
X114874179Y-63386429D01*
X114731322Y-63529286D01*
X114659893Y-63672143D01*
X114588465Y-63957857D01*
X114588465Y-64172143D01*
X114659893Y-64457857D01*
X114731322Y-64600714D01*
X114874179Y-64743571D01*
X115088465Y-64815000D01*
X115231322Y-64815000D01*
X115445608Y-64743571D01*
X115517036Y-64672143D01*
X115517036Y-64172143D01*
X115231322Y-64172143D01*
D14*
X137755380Y-59658095D02*
X137755380Y-59086666D01*
X138755380Y-59372380D02*
X137755380Y-59372380D01*
X137755380Y-58848571D02*
X138755380Y-58181904D01*
X137755380Y-58181904D02*
X138755380Y-58848571D01*
X137755380Y-57610476D02*
X137755380Y-57515238D01*
X137803000Y-57420000D01*
X137850619Y-57372380D01*
X137945857Y-57324761D01*
X138136333Y-57277142D01*
X138374428Y-57277142D01*
X138564904Y-57324761D01*
X138660142Y-57372380D01*
X138707761Y-57420000D01*
X138755380Y-57515238D01*
X138755380Y-57610476D01*
X138707761Y-57705714D01*
X138660142Y-57753333D01*
X138564904Y-57800952D01*
X138374428Y-57848571D01*
X138136333Y-57848571D01*
X137945857Y-57800952D01*
X137850619Y-57753333D01*
X137803000Y-57705714D01*
X137755380Y-57610476D01*
D13*
X107136364Y-69835979D02*
X107088745Y-69812169D01*
X107017316Y-69812169D01*
X106945888Y-69835979D01*
X106898269Y-69883598D01*
X106874459Y-69931217D01*
X106850650Y-70026455D01*
X106850650Y-70097883D01*
X106874459Y-70193121D01*
X106898269Y-70240740D01*
X106945888Y-70288359D01*
X107017316Y-70312169D01*
X107064935Y-70312169D01*
X107136364Y-70288359D01*
X107160173Y-70264550D01*
X107160173Y-70097883D01*
X107064935Y-70097883D01*
D11*
X160224514Y-63952380D02*
X160224514Y-62952380D01*
X160529276Y-62952380D01*
X160605466Y-63000000D01*
X160643562Y-63047619D01*
X160681657Y-63142857D01*
X160681657Y-63285714D01*
X160643562Y-63380952D01*
X160605466Y-63428571D01*
X160529276Y-63476190D01*
X160224514Y-63476190D01*
X161024514Y-63952380D02*
X161024514Y-63285714D01*
X161024514Y-63476190D02*
X161062609Y-63380952D01*
X161100704Y-63333333D01*
X161176895Y-63285714D01*
X161253085Y-63285714D01*
X161634038Y-63952380D02*
X161557847Y-63904761D01*
X161519752Y-63857142D01*
X161481657Y-63761904D01*
X161481657Y-63476190D01*
X161519752Y-63380952D01*
X161557847Y-63333333D01*
X161634038Y-63285714D01*
X161748324Y-63285714D01*
X161824514Y-63333333D01*
X161862609Y-63380952D01*
X161900704Y-63476190D01*
X161900704Y-63761904D01*
X161862609Y-63857142D01*
X161824514Y-63904761D01*
X161748324Y-63952380D01*
X161634038Y-63952380D01*
X162853085Y-63952380D02*
X162853085Y-62952380D01*
X163119752Y-63666666D01*
X163386419Y-62952380D01*
X163386419Y-63952380D01*
X163767371Y-63952380D02*
X163767371Y-63285714D01*
X163767371Y-62952380D02*
X163729276Y-63000000D01*
X163767371Y-63047619D01*
X163805466Y-63000000D01*
X163767371Y-62952380D01*
X163767371Y-63047619D01*
X164491181Y-63904761D02*
X164414990Y-63952380D01*
X164262609Y-63952380D01*
X164186419Y-63904761D01*
X164148324Y-63857142D01*
X164110228Y-63761904D01*
X164110228Y-63476190D01*
X164148324Y-63380952D01*
X164186419Y-63333333D01*
X164262609Y-63285714D01*
X164414990Y-63285714D01*
X164491181Y-63333333D01*
X164834038Y-63952380D02*
X164834038Y-63285714D01*
X164834038Y-63476190D02*
X164872133Y-63380952D01*
X164910228Y-63333333D01*
X164986419Y-63285714D01*
X165062609Y-63285714D01*
X165443562Y-63952380D02*
X165367371Y-63904761D01*
X165329276Y-63857142D01*
X165291181Y-63761904D01*
X165291181Y-63476190D01*
X165329276Y-63380952D01*
X165367371Y-63333333D01*
X165443562Y-63285714D01*
X165557847Y-63285714D01*
X165634038Y-63333333D01*
X165672133Y-63380952D01*
X165710228Y-63476190D01*
X165710228Y-63761904D01*
X165672133Y-63857142D01*
X165634038Y-63904761D01*
X165557847Y-63952380D01*
X165443562Y-63952380D01*
D13*
X107136364Y-67121496D02*
X107088745Y-67097686D01*
X107017316Y-67097686D01*
X106945888Y-67121496D01*
X106898269Y-67169115D01*
X106874459Y-67216734D01*
X106850650Y-67311972D01*
X106850650Y-67383400D01*
X106874459Y-67478638D01*
X106898269Y-67526257D01*
X106945888Y-67573876D01*
X107017316Y-67597686D01*
X107064935Y-67597686D01*
X107136364Y-67573876D01*
X107160173Y-67550067D01*
X107160173Y-67383400D01*
X107064935Y-67383400D01*
D14*
X168235380Y-59785095D02*
X168235380Y-59213666D01*
X169235380Y-59499380D02*
X168235380Y-59499380D01*
X168235380Y-58975571D02*
X169235380Y-58308904D01*
X168235380Y-58308904D02*
X169235380Y-58975571D01*
X168235380Y-57737476D02*
X168235380Y-57642238D01*
X168283000Y-57547000D01*
X168330619Y-57499380D01*
X168425857Y-57451761D01*
X168616333Y-57404142D01*
X168854428Y-57404142D01*
X169044904Y-57451761D01*
X169140142Y-57499380D01*
X169187761Y-57547000D01*
X169235380Y-57642238D01*
X169235380Y-57737476D01*
X169187761Y-57832714D01*
X169140142Y-57880333D01*
X169044904Y-57927952D01*
X168854428Y-57975571D01*
X168616333Y-57975571D01*
X168425857Y-57927952D01*
X168330619Y-57880333D01*
X168283000Y-57832714D01*
X168235380Y-57737476D01*
D12*
X122090411Y-63483503D02*
X122090411Y-61983503D01*
X122733268Y-62126360D02*
X122804697Y-62054932D01*
X122947554Y-61983503D01*
X123304697Y-61983503D01*
X123447554Y-62054932D01*
X123518982Y-62126360D01*
X123590411Y-62269217D01*
X123590411Y-62412074D01*
X123518982Y-62626360D01*
X122661839Y-63483503D01*
X123590411Y-63483503D01*
X125090411Y-63340646D02*
X125018982Y-63412074D01*
X124804697Y-63483503D01*
X124661839Y-63483503D01*
X124447554Y-63412074D01*
X124304697Y-63269217D01*
X124233268Y-63126360D01*
X124161839Y-62840646D01*
X124161839Y-62626360D01*
X124233268Y-62340646D01*
X124304697Y-62197789D01*
X124447554Y-62054932D01*
X124661839Y-61983503D01*
X124804697Y-61983503D01*
X125018982Y-62054932D01*
X125090411Y-62126360D01*
D15*
X133858095Y-98290380D02*
X133858095Y-99099904D01*
X133905714Y-99195142D01*
X133953333Y-99242761D01*
X134048571Y-99290380D01*
X134239047Y-99290380D01*
X134334285Y-99242761D01*
X134381904Y-99195142D01*
X134429523Y-99099904D01*
X134429523Y-98290380D01*
X135429523Y-99290380D02*
X134858095Y-99290380D01*
X135143809Y-99290380D02*
X135143809Y-98290380D01*
X135048571Y-98433238D01*
X134953333Y-98528476D01*
X134858095Y-98576095D01*
X183805536Y-122320053D02*
X183805536Y-123129577D01*
X183853155Y-123224815D01*
X183900774Y-123272434D01*
X183996012Y-123320053D01*
X184186488Y-123320053D01*
X184281726Y-123272434D01*
X184329345Y-123224815D01*
X184376964Y-123129577D01*
X184376964Y-122320053D01*
X185281726Y-122653387D02*
X185281726Y-123320053D01*
X185043631Y-122272434D02*
X184805536Y-122986720D01*
X185424583Y-122986720D01*
X114836435Y-83958946D02*
X114836435Y-84768470D01*
X114884054Y-84863708D01*
X114931673Y-84911327D01*
X115026911Y-84958946D01*
X115217387Y-84958946D01*
X115312625Y-84911327D01*
X115360244Y-84863708D01*
X115407863Y-84768470D01*
X115407863Y-83958946D01*
X116360244Y-83958946D02*
X115884054Y-83958946D01*
X115836435Y-84435137D01*
X115884054Y-84387518D01*
X115979292Y-84339899D01*
X116217387Y-84339899D01*
X116312625Y-84387518D01*
X116360244Y-84435137D01*
X116407863Y-84530375D01*
X116407863Y-84768470D01*
X116360244Y-84863708D01*
X116312625Y-84911327D01*
X116217387Y-84958946D01*
X115979292Y-84958946D01*
X115884054Y-84911327D01*
X115836435Y-84863708D01*
X114445236Y-103428609D02*
X114445236Y-104238133D01*
X114492855Y-104333371D01*
X114540474Y-104380990D01*
X114635712Y-104428609D01*
X114826188Y-104428609D01*
X114921426Y-104380990D01*
X114969045Y-104333371D01*
X115016664Y-104238133D01*
X115016664Y-103428609D01*
X115397617Y-103428609D02*
X116064283Y-103428609D01*
X115635712Y-104428609D01*
X127635095Y-59174380D02*
X127635095Y-59983904D01*
X127682714Y-60079142D01*
X127730333Y-60126761D01*
X127825571Y-60174380D01*
X128016047Y-60174380D01*
X128111285Y-60126761D01*
X128158904Y-60079142D01*
X128206523Y-59983904D01*
X128206523Y-59174380D01*
X128730333Y-60174380D02*
X128920809Y-60174380D01*
X129016047Y-60126761D01*
X129063666Y-60079142D01*
X129158904Y-59936285D01*
X129206523Y-59745809D01*
X129206523Y-59364857D01*
X129158904Y-59269619D01*
X129111285Y-59222000D01*
X129016047Y-59174380D01*
X128825571Y-59174380D01*
X128730333Y-59222000D01*
X128682714Y-59269619D01*
X128635095Y-59364857D01*
X128635095Y-59602952D01*
X128682714Y-59698190D01*
X128730333Y-59745809D01*
X128825571Y-59793428D01*
X129016047Y-59793428D01*
X129111285Y-59745809D01*
X129158904Y-59698190D01*
X129206523Y-59602952D01*
X175016988Y-76072195D02*
X175016988Y-76881719D01*
X175064607Y-76976957D01*
X175112226Y-77024576D01*
X175207464Y-77072195D01*
X175397940Y-77072195D01*
X175493178Y-77024576D01*
X175540797Y-76976957D01*
X175588416Y-76881719D01*
X175588416Y-76072195D01*
X176112226Y-77072195D02*
X176302702Y-77072195D01*
X176397940Y-77024576D01*
X176445559Y-76976957D01*
X176540797Y-76834100D01*
X176588416Y-76643624D01*
X176588416Y-76262672D01*
X176540797Y-76167434D01*
X176493178Y-76119815D01*
X176397940Y-76072195D01*
X176207464Y-76072195D01*
X176112226Y-76119815D01*
X176064607Y-76167434D01*
X176016988Y-76262672D01*
X176016988Y-76500767D01*
X176064607Y-76596005D01*
X176112226Y-76643624D01*
X176207464Y-76691243D01*
X176397940Y-76691243D01*
X176493178Y-76643624D01*
X176540797Y-76596005D01*
X176588416Y-76500767D01*
X203378095Y-136132380D02*
X203378095Y-136941904D01*
X203425714Y-137037142D01*
X203473333Y-137084761D01*
X203568571Y-137132380D01*
X203759047Y-137132380D01*
X203854285Y-137084761D01*
X203901904Y-137037142D01*
X203949523Y-136941904D01*
X203949523Y-136132380D01*
X204854285Y-136465714D02*
X204854285Y-137132380D01*
X204616190Y-136084761D02*
X204378095Y-136799047D01*
X204997142Y-136799047D01*
D16*
X101129070Y-65957378D02*
X107451535Y-64842557D01*
X100674111Y-63377182D02*
X101129070Y-65957378D01*
X106996577Y-62262360D02*
X100674111Y-63377182D01*
X107451535Y-64842557D02*
X106996577Y-62262360D01*
X100025112Y-64821827D02*
X100901590Y-64667280D01*
X108100535Y-63397912D02*
X107224056Y-63552459D01*
X135041000Y-62068000D02*
X132421000Y-62068000D01*
X132421000Y-62068000D02*
X132421000Y-68488000D01*
X133731000Y-69378000D02*
X133731000Y-68488000D01*
X135041000Y-68488000D02*
X135041000Y-62068000D01*
X132421000Y-68488000D02*
X135041000Y-68488000D01*
X133731000Y-61178000D02*
X133731000Y-62068000D01*
D15*
X137448427Y-100838000D02*
G75*
G03*
X137448427Y-100838000I-2828427J0D01*
G01*
X187395868Y-124867673D02*
G75*
G03*
X187395868Y-124867673I-2828427J0D01*
G01*
X118426767Y-86506566D02*
G75*
G03*
X118426767Y-86506566I-2828427J0D01*
G01*
X118035568Y-105976229D02*
G75*
G03*
X118035568Y-105976229I-2828427J0D01*
G01*
X121285000Y-61468000D02*
X117475000Y-61468000D01*
X117475000Y-64008000D02*
X121285000Y-64008000D01*
X117475000Y-61468000D02*
X117475000Y-64008000D01*
X121285000Y-64008000D02*
X121285000Y-61468000D01*
X110225000Y-85344000D02*
X108125000Y-85344000D01*
X106025000Y-84844000D02*
X105525000Y-85344000D01*
X103925000Y-85344000D02*
X101925000Y-85344000D01*
X106525000Y-85344000D02*
X106025000Y-85844000D01*
X106025000Y-85844000D02*
X106025000Y-84844000D01*
X125075000Y-80145000D02*
X124575000Y-80645000D01*
X125575000Y-80645000D02*
X125075000Y-81145000D01*
X122975000Y-80645000D02*
X120975000Y-80645000D01*
X125075000Y-81145000D02*
X125075000Y-80145000D01*
X129275000Y-80645000D02*
X127175000Y-80645000D01*
X144625000Y-78232000D02*
X144125000Y-78732000D01*
X142025000Y-78232000D02*
X140025000Y-78232000D01*
X148325000Y-78232000D02*
X146225000Y-78232000D01*
X144125000Y-77732000D02*
X143625000Y-78232000D01*
X144125000Y-78732000D02*
X144125000Y-77732000D01*
X163675000Y-80645000D02*
X163175000Y-81145000D01*
X163175000Y-80145000D02*
X162675000Y-80645000D01*
X161075000Y-80645000D02*
X159075000Y-80645000D01*
X163175000Y-81145000D02*
X163175000Y-80145000D01*
X167375000Y-80645000D02*
X165275000Y-80645000D01*
X186558217Y-85027192D02*
X184458217Y-85027192D01*
X180258217Y-85027192D02*
X178258217Y-85027192D01*
X182858217Y-85027192D02*
X182358217Y-85527192D01*
X182358217Y-85527192D02*
X182358217Y-84527192D01*
X182358217Y-84527192D02*
X181858217Y-85027192D01*
X108292000Y-104394000D02*
X110292000Y-104394000D01*
X101992000Y-104394000D02*
X104092000Y-104394000D01*
X105692000Y-104394000D02*
X106192000Y-103894000D01*
X106192000Y-103894000D02*
X106192000Y-104894000D01*
X106192000Y-104894000D02*
X106692000Y-104394000D01*
X122975000Y-99695000D02*
X120975000Y-99695000D01*
X125075000Y-99195000D02*
X124575000Y-99695000D01*
X125075000Y-100195000D02*
X125075000Y-99195000D01*
X129275000Y-99695000D02*
X127175000Y-99695000D01*
X125575000Y-99695000D02*
X125075000Y-100195000D01*
X144125000Y-97782000D02*
X144125000Y-96782000D01*
X142025000Y-97282000D02*
X140025000Y-97282000D01*
X148325000Y-97282000D02*
X146225000Y-97282000D01*
X144125000Y-96782000D02*
X143625000Y-97282000D01*
X144625000Y-97282000D02*
X144125000Y-97782000D01*
X161075000Y-99695000D02*
X159075000Y-99695000D01*
X163175000Y-100195000D02*
X163175000Y-99195000D01*
X167375000Y-99695000D02*
X165275000Y-99695000D01*
X163175000Y-99195000D02*
X162675000Y-99695000D01*
X163675000Y-99695000D02*
X163175000Y-100195000D01*
X186425000Y-102108000D02*
X184325000Y-102108000D01*
X180125000Y-102108000D02*
X178125000Y-102108000D01*
X182225000Y-102608000D02*
X182225000Y-101608000D01*
X182225000Y-101608000D02*
X181725000Y-102108000D01*
X182725000Y-102108000D02*
X182225000Y-102608000D01*
X114230584Y-117268374D02*
X114230584Y-119268374D01*
X113730584Y-115168374D02*
X114230584Y-115668374D01*
X114230584Y-114668374D02*
X114730584Y-115168374D01*
X114230584Y-110968374D02*
X114230584Y-113068374D01*
X114730584Y-115168374D02*
X113730584Y-115168374D01*
X122975000Y-118745000D02*
X120975000Y-118745000D01*
X125575000Y-118745000D02*
X125075000Y-119245000D01*
X129275000Y-118745000D02*
X127175000Y-118745000D01*
X125075000Y-119245000D02*
X125075000Y-118245000D01*
X125075000Y-118245000D02*
X124575000Y-118745000D01*
X182725000Y-104521000D02*
X182225000Y-105021000D01*
X182225000Y-105021000D02*
X182225000Y-104021000D01*
X180125000Y-104521000D02*
X178125000Y-104521000D01*
X186425000Y-104521000D02*
X184325000Y-104521000D01*
X182225000Y-104021000D02*
X181725000Y-104521000D01*
X176899353Y-127291677D02*
X177542140Y-126525633D01*
X177603769Y-127230049D02*
X176899353Y-127291677D01*
X177542140Y-126525633D02*
X176837724Y-126587261D01*
X180438133Y-129608363D02*
X178829440Y-128258509D01*
X175612053Y-125558801D02*
X174079964Y-124273226D01*
X125575000Y-121031000D02*
X125075000Y-121531000D01*
X125075000Y-120531000D02*
X124575000Y-121031000D01*
X122975000Y-121031000D02*
X120975000Y-121031000D01*
X125075000Y-121531000D02*
X125075000Y-120531000D01*
X129275000Y-121031000D02*
X127175000Y-121031000D01*
X141898000Y-118618000D02*
X139898000Y-118618000D01*
X148198000Y-118618000D02*
X146098000Y-118618000D01*
X143998000Y-118118000D02*
X143498000Y-118618000D01*
X143998000Y-119118000D02*
X143998000Y-118118000D01*
X144498000Y-118618000D02*
X143998000Y-119118000D01*
X131225427Y-61722000D02*
G75*
G03*
X131225427Y-61722000I-2828427J0D01*
G01*
X201997625Y-148746929D02*
X200792895Y-149093664D01*
X198678123Y-151613951D02*
X199301627Y-150870887D01*
X200925163Y-147847027D02*
X201997625Y-148746929D01*
X200792895Y-149093664D02*
X200925163Y-147847027D01*
X201329126Y-149543616D02*
X200256663Y-148643713D01*
X202952661Y-146519755D02*
X203576165Y-145776692D01*
D16*
X168982000Y-120100000D02*
X166822000Y-120100000D01*
X168982000Y-123260000D02*
X168982000Y-122330000D01*
X168982000Y-120100000D02*
X168982000Y-121030000D01*
X168982000Y-123260000D02*
X167522000Y-123260000D01*
D15*
X191123802Y-120089572D02*
X191185430Y-120793988D01*
X190156970Y-122019659D02*
X188871395Y-123551748D01*
X194206532Y-117193579D02*
X192856678Y-118802272D01*
X191828218Y-120027943D02*
X191889846Y-120732359D01*
X191889846Y-120732359D02*
X191123802Y-120089572D01*
X213611053Y-128543360D02*
X212261199Y-130152053D01*
X210528323Y-131439353D02*
X210589951Y-132143769D01*
X211294367Y-132082140D02*
X210528323Y-131439353D01*
X209561491Y-133369440D02*
X208275916Y-134901529D01*
X211232739Y-131377724D02*
X211294367Y-132082140D01*
X196659797Y-136230049D02*
X195955381Y-136291677D01*
X195955381Y-136291677D02*
X196598168Y-135525633D01*
X194668081Y-134558801D02*
X193135992Y-133273226D01*
X199494161Y-138608363D02*
X197885468Y-137258509D01*
X196598168Y-135525633D02*
X195893752Y-135587261D01*
X199288825Y-147677437D02*
X199227197Y-146973021D01*
X200255657Y-145747350D02*
X201541232Y-144215261D01*
X198522781Y-147034650D02*
X199288825Y-147677437D01*
X196206095Y-150573430D02*
X197555949Y-148964737D01*
X198584409Y-147739066D02*
X198522781Y-147034650D01*
X115127000Y-77609000D02*
X113727000Y-77609000D01*
X114427000Y-80899000D02*
X114427000Y-79929000D01*
X114427000Y-74249000D02*
X114427000Y-73279000D01*
X113727000Y-76569000D02*
X115127000Y-76569000D01*
X114427000Y-77609000D02*
X113727000Y-76569000D01*
X115127000Y-76569000D02*
X114427000Y-77609000D01*
X114427000Y-99822000D02*
X114427000Y-98852000D01*
X115127000Y-95492000D02*
X114427000Y-96532000D01*
X114427000Y-93172000D02*
X114427000Y-92202000D01*
X113727000Y-95492000D02*
X115127000Y-95492000D01*
X114427000Y-96532000D02*
X113727000Y-95492000D01*
X115127000Y-96532000D02*
X113727000Y-96532000D01*
X116713000Y-112222000D02*
X116713000Y-111252000D01*
X117413000Y-115582000D02*
X116013000Y-115582000D01*
X117413000Y-114542000D02*
X116713000Y-115582000D01*
X116713000Y-115582000D02*
X116013000Y-114542000D01*
X116013000Y-114542000D02*
X117413000Y-114542000D01*
X116713000Y-118872000D02*
X116713000Y-117902000D01*
X116586000Y-77609000D02*
X115886000Y-76569000D01*
X116586000Y-80899000D02*
X116586000Y-79929000D01*
X117286000Y-77609000D02*
X115886000Y-77609000D01*
X117286000Y-76569000D02*
X116586000Y-77609000D01*
X115886000Y-76569000D02*
X117286000Y-76569000D01*
X116586000Y-74249000D02*
X116586000Y-73279000D01*
X154494000Y-99154000D02*
X155894000Y-99154000D01*
X155194000Y-96834000D02*
X155194000Y-95864000D01*
X155894000Y-100194000D02*
X154494000Y-100194000D01*
X155894000Y-99154000D02*
X155194000Y-100194000D01*
X155194000Y-103484000D02*
X155194000Y-102514000D01*
X155194000Y-100194000D02*
X154494000Y-99154000D01*
X171450000Y-92262000D02*
X171450000Y-91292000D01*
X171450000Y-95622000D02*
X170750000Y-94582000D01*
X172150000Y-95622000D02*
X170750000Y-95622000D01*
X171450000Y-98912000D02*
X171450000Y-97942000D01*
X170750000Y-94582000D02*
X172150000Y-94582000D01*
X172150000Y-94582000D02*
X171450000Y-95622000D01*
X172023000Y-112235000D02*
X171323000Y-113275000D01*
X172023000Y-113275000D02*
X170623000Y-113275000D01*
X171323000Y-116565000D02*
X171323000Y-115595000D01*
X171323000Y-113275000D02*
X170623000Y-112235000D01*
X170623000Y-112235000D02*
X172023000Y-112235000D01*
X171323000Y-109915000D02*
X171323000Y-108945000D01*
X181778155Y-81643258D02*
X182818155Y-82343258D01*
X182818155Y-81643258D02*
X182818155Y-83043258D01*
X186108155Y-82343258D02*
X185138155Y-82343258D01*
X179458155Y-82343258D02*
X178488155Y-82343258D01*
X181778155Y-83043258D02*
X181778155Y-81643258D01*
X182818155Y-82343258D02*
X181778155Y-83043258D01*
X173990000Y-116586000D02*
X173990000Y-115616000D01*
X173990000Y-113296000D02*
X173290000Y-112256000D01*
X174690000Y-113296000D02*
X173290000Y-113296000D01*
X173290000Y-112256000D02*
X174690000Y-112256000D01*
X174690000Y-112256000D02*
X173990000Y-113296000D01*
X173990000Y-109936000D02*
X173990000Y-108966000D01*
X193437629Y-122508653D02*
X192365166Y-121608750D01*
X194106128Y-121711966D02*
X192901398Y-122058701D01*
X190786626Y-124578988D02*
X191410130Y-123835924D01*
X193033666Y-120812064D02*
X194106128Y-121711966D01*
X192901398Y-122058701D02*
X193033666Y-120812064D01*
X195061164Y-119484792D02*
X195684668Y-118741729D01*
X159474928Y-131451814D02*
X159643367Y-130496551D01*
X160735596Y-128333350D02*
X159356865Y-128090243D01*
X160629689Y-124902843D02*
X160798127Y-123947579D01*
X159537459Y-127066043D02*
X160916190Y-127309150D01*
X160916190Y-127309150D02*
X160046231Y-128211797D01*
X160046231Y-128211797D02*
X159537459Y-127066043D01*
X162195354Y-132037354D02*
X162363793Y-131082091D01*
X163456022Y-128918890D02*
X162077291Y-128675783D01*
X163636616Y-127894690D02*
X162766657Y-128797337D01*
X162257885Y-127651583D02*
X163636616Y-127894690D01*
X162766657Y-128797337D02*
X162257885Y-127651583D01*
X163350115Y-125488383D02*
X163518553Y-124533119D01*
X184680878Y-134029658D02*
X185304382Y-133286595D01*
X180406340Y-139123854D02*
X181029844Y-138380790D01*
X182521112Y-136603567D02*
X182653380Y-135356930D01*
X183725842Y-136256832D02*
X182521112Y-136603567D01*
X183057343Y-137053519D02*
X181984880Y-136153616D01*
X182653380Y-135356930D02*
X183725842Y-136256832D01*
X159015000Y-102235000D02*
X161115000Y-102235000D01*
X162715000Y-102235000D02*
X163215000Y-101735000D01*
X163215000Y-101735000D02*
X163215000Y-102735000D01*
X165315000Y-102235000D02*
X167315000Y-102235000D01*
X163215000Y-102735000D02*
X163715000Y-102235000D01*
X152773000Y-115061000D02*
X151773000Y-115061000D01*
X152273000Y-114561000D02*
X152773000Y-115061000D01*
X152273000Y-117161000D02*
X152273000Y-119161000D01*
X151773000Y-115061000D02*
X152273000Y-115561000D01*
X152273000Y-110861000D02*
X152273000Y-112961000D01*
X152973000Y-100236000D02*
X151573000Y-100236000D01*
X152273000Y-100236000D02*
X151573000Y-99196000D01*
X151573000Y-99196000D02*
X152973000Y-99196000D01*
X152273000Y-103526000D02*
X152273000Y-102556000D01*
X152273000Y-96876000D02*
X152273000Y-95906000D01*
X152973000Y-99196000D02*
X152273000Y-100236000D01*
X135063000Y-110245000D02*
X136463000Y-110245000D01*
X136463000Y-110245000D02*
X135763000Y-111285000D01*
X136463000Y-111285000D02*
X135063000Y-111285000D01*
X135763000Y-114575000D02*
X135763000Y-113605000D01*
X135763000Y-107925000D02*
X135763000Y-106955000D01*
X135763000Y-111285000D02*
X135063000Y-110245000D01*
X174690000Y-94624000D02*
X173990000Y-95664000D01*
X173990000Y-92304000D02*
X173990000Y-91334000D01*
X174690000Y-95664000D02*
X173290000Y-95664000D01*
X173990000Y-98954000D02*
X173990000Y-97984000D01*
X173990000Y-95664000D02*
X173290000Y-94624000D01*
X173290000Y-94624000D02*
X174690000Y-94624000D01*
X188452981Y-62266219D02*
X188452981Y-58456219D01*
X174482981Y-57186219D02*
X174482981Y-63536219D01*
X187182981Y-63536219D02*
X187182981Y-62266219D01*
X188452981Y-58456219D02*
X187182981Y-58456219D01*
X187182981Y-62266219D02*
X188452981Y-62266219D01*
X174482981Y-63536219D02*
X187182981Y-63536219D01*
X187182981Y-57186219D02*
X174482981Y-57186219D01*
X187182981Y-58456219D02*
X187182981Y-57186219D01*
X132777000Y-110245000D02*
X134177000Y-110245000D01*
X134177000Y-110245000D02*
X133477000Y-111285000D01*
X134177000Y-111285000D02*
X132777000Y-111285000D01*
X133477000Y-111285000D02*
X132777000Y-110245000D01*
X133477000Y-107925000D02*
X133477000Y-106955000D01*
X133477000Y-114575000D02*
X133477000Y-113605000D01*
X133031000Y-85861000D02*
X134431000Y-85861000D01*
X133731000Y-90191000D02*
X133731000Y-89221000D01*
X133731000Y-86901000D02*
X133031000Y-85861000D01*
X133731000Y-83541000D02*
X133731000Y-82571000D01*
X134431000Y-86901000D02*
X133031000Y-86901000D01*
X134431000Y-85861000D02*
X133731000Y-86901000D01*
X116840000Y-93172000D02*
X116840000Y-92202000D01*
X116840000Y-96532000D02*
X116140000Y-95492000D01*
X117540000Y-96532000D02*
X116140000Y-96532000D01*
X117540000Y-95492000D02*
X116840000Y-96532000D01*
X116140000Y-95492000D02*
X117540000Y-95492000D01*
X116840000Y-99822000D02*
X116840000Y-98852000D01*
X141898000Y-116332000D02*
X139898000Y-116332000D01*
X143998000Y-116832000D02*
X143998000Y-115832000D01*
X143998000Y-115832000D02*
X143498000Y-116332000D01*
X144498000Y-116332000D02*
X143998000Y-116832000D01*
X148198000Y-116332000D02*
X146098000Y-116332000D01*
X178607320Y-78619815D02*
G75*
G03*
X178607320Y-78619815I-2828427J0D01*
G01*
X206968427Y-138680000D02*
G75*
G03*
X206968427Y-138680000I-2828427J0D01*
G01*
X172085000Y-87630000D02*
X172085000Y-57150000D01*
X169545000Y-87630000D02*
X172085000Y-87630000D01*
X156845000Y-87630000D02*
X156845000Y-57150000D01*
X169545000Y-57150000D02*
X169545000Y-87630000D01*
X172085000Y-57150000D02*
X169545000Y-57150000D01*
X154305000Y-87630000D02*
X156845000Y-87630000D01*
X156845000Y-57150000D02*
X154305000Y-57150000D01*
X154305000Y-57150000D02*
X154305000Y-87630000D01*
D17*
X107315000Y-82105500D03*
D18*
X104775000Y-82105500D03*
D17*
X126365000Y-77343000D03*
D18*
X123825000Y-77343000D03*
D17*
X145415000Y-74961750D03*
D18*
X142875000Y-74961750D03*
D17*
X164465000Y-77343000D03*
D18*
X161925000Y-77343000D03*
D17*
X183515000Y-79724250D03*
D18*
X180975000Y-79724250D03*
D17*
X107315000Y-101155500D03*
D18*
X104775000Y-101155500D03*
D17*
X126365000Y-96393000D03*
D18*
X123825000Y-96393000D03*
D17*
X145415000Y-94011750D03*
D18*
X142875000Y-94011750D03*
D17*
X164465000Y-96393000D03*
D18*
X161925000Y-96393000D03*
D17*
X183515000Y-98774250D03*
D18*
X180975000Y-98774250D03*
D17*
X107315000Y-120205500D03*
D18*
X104775000Y-120205500D03*
D17*
X126365000Y-115443000D03*
D18*
X123825000Y-115443000D03*
D17*
X145415000Y-113061750D03*
D18*
X142875000Y-113061750D03*
D17*
X164465000Y-115443000D03*
D18*
X161925000Y-115443000D03*
D17*
X183515000Y-117824250D03*
D18*
X180975000Y-117824250D03*
D19*
X171470180Y-138903357D03*
D18*
X168968768Y-138462290D03*
D20*
X136525000Y-58420000D03*
X136525000Y-60960000D03*
X136525000Y-63500000D03*
X136525000Y-66040000D03*
X136525000Y-68580000D03*
X136525000Y-71120000D03*
X136525000Y-73660000D03*
X136525000Y-76200000D03*
X136525000Y-78740000D03*
X136525000Y-81280000D03*
X136525000Y-83820000D03*
X136525000Y-86360000D03*
X151765000Y-86360000D03*
X151765000Y-83820000D03*
X151765000Y-81280000D03*
X151765000Y-78740000D03*
X151765000Y-76200000D03*
X151765000Y-73660000D03*
X151765000Y-71120000D03*
X151765000Y-68580000D03*
X151765000Y-66040000D03*
X151765000Y-63500000D03*
X151765000Y-60960000D03*
X151765000Y-58420000D03*
D17*
X152410000Y-133760000D03*
D18*
X149870000Y-133760000D03*
D21*
X100545000Y-77025500D03*
D22*
X100965000Y-77025500D03*
D23*
X106045000Y-77025500D03*
D22*
X111125000Y-77025500D03*
D21*
X111545000Y-77025500D03*
D24*
X102684951Y-73949269D03*
D25*
X103525000Y-72525500D03*
X108565000Y-72525500D03*
D26*
X109405049Y-73949269D03*
D21*
X100545000Y-96075500D03*
D22*
X111125000Y-96075500D03*
D21*
X111545000Y-96075500D03*
D22*
X100965000Y-96075500D03*
D23*
X106045000Y-96075500D03*
D25*
X103525000Y-91575500D03*
D24*
X102684951Y-92999269D03*
D25*
X108565000Y-91575500D03*
D26*
X109405049Y-92999269D03*
D22*
X100965000Y-115125500D03*
D21*
X100545000Y-115125500D03*
X111545000Y-115125500D03*
D22*
X111125000Y-115125500D03*
D23*
X106045000Y-115125500D03*
D25*
X103525000Y-110625500D03*
D24*
X102684951Y-112049269D03*
D25*
X108565000Y-110625500D03*
D26*
X109405049Y-112049269D03*
D21*
X130595000Y-91313000D03*
D23*
X125095000Y-91313000D03*
D22*
X120015000Y-91313000D03*
D21*
X119595000Y-91313000D03*
D22*
X130175000Y-91313000D03*
D25*
X122575000Y-86813000D03*
D24*
X121734951Y-88236769D03*
D25*
X127615000Y-86813000D03*
D26*
X128455049Y-88236769D03*
D23*
X125095000Y-110363000D03*
D22*
X130175000Y-110363000D03*
X120015000Y-110363000D03*
D21*
X119595000Y-110363000D03*
X130595000Y-110363000D03*
D25*
X122575000Y-105863000D03*
D24*
X121734951Y-107286769D03*
D26*
X128455049Y-107286769D03*
D25*
X127615000Y-105863000D03*
D21*
X149645000Y-69881750D03*
D22*
X139065000Y-69881750D03*
D21*
X138645000Y-69881750D03*
D22*
X149225000Y-69881750D03*
D23*
X144145000Y-69881750D03*
D25*
X141625000Y-65381750D03*
D24*
X140784951Y-66805519D03*
D25*
X146665000Y-65381750D03*
D26*
X147505049Y-66805519D03*
D22*
X149225000Y-88931750D03*
X139065000Y-88931750D03*
D21*
X138645000Y-88931750D03*
X149645000Y-88931750D03*
D23*
X144145000Y-88931750D03*
D25*
X141625000Y-84431750D03*
D24*
X140784951Y-85855519D03*
D26*
X147505049Y-85855519D03*
D25*
X146665000Y-84431750D03*
D21*
X149645000Y-107981750D03*
D23*
X144145000Y-107981750D03*
D22*
X149225000Y-107981750D03*
X139065000Y-107981750D03*
D21*
X138645000Y-107981750D03*
D24*
X140784951Y-104905519D03*
D25*
X141625000Y-103481750D03*
D26*
X147505049Y-104905519D03*
D25*
X146665000Y-103481750D03*
D22*
X168275000Y-72263000D03*
D21*
X168695000Y-72263000D03*
D22*
X158115000Y-72263000D03*
D23*
X163195000Y-72263000D03*
D21*
X157695000Y-72263000D03*
D24*
X159834951Y-69186769D03*
D25*
X160675000Y-67763000D03*
X165715000Y-67763000D03*
D26*
X166555049Y-69186769D03*
D21*
X168695000Y-91313000D03*
X157695000Y-91313000D03*
D22*
X158115000Y-91313000D03*
X168275000Y-91313000D03*
D23*
X163195000Y-91313000D03*
D25*
X160675000Y-86813000D03*
D24*
X159834951Y-88236769D03*
D25*
X165715000Y-86813000D03*
D26*
X166555049Y-88236769D03*
D23*
X163195000Y-110363000D03*
D22*
X158115000Y-110363000D03*
X168275000Y-110363000D03*
D21*
X168695000Y-110363000D03*
X157695000Y-110363000D03*
D25*
X160675000Y-105863000D03*
D24*
X159834951Y-107286769D03*
D26*
X166555049Y-107286769D03*
D25*
X165715000Y-105863000D03*
D22*
X204573818Y-129742300D03*
X195775000Y-124662300D03*
D21*
X204937549Y-129952300D03*
D23*
X200174409Y-127202300D03*
D21*
X195411269Y-124452300D03*
D27*
X198802637Y-122858181D03*
D28*
X200242025Y-122045186D03*
D29*
X204622412Y-126218230D03*
D28*
X204606793Y-124565186D03*
D22*
X176104430Y-134562133D03*
X166098784Y-132797867D03*
D23*
X171101607Y-133680000D03*
D21*
X165685164Y-132724935D03*
X176518050Y-134635065D03*
D30*
X168326787Y-130067038D03*
D31*
X169401308Y-128810772D03*
D32*
X174944791Y-131233969D03*
D31*
X174364739Y-129685959D03*
D22*
X195048818Y-146240300D03*
D21*
X195412549Y-146450300D03*
X185886269Y-140950300D03*
D22*
X186250000Y-141160300D03*
D23*
X190649409Y-143700300D03*
D28*
X190717025Y-138543186D03*
D27*
X189277637Y-139356181D03*
D28*
X195081793Y-141063186D03*
D29*
X195097412Y-142716230D03*
D23*
X151140000Y-128680000D03*
D22*
X156220000Y-128680000D03*
D21*
X145640000Y-128680000D03*
X156640000Y-128680000D03*
D22*
X146060000Y-128680000D03*
D24*
X147779951Y-125603769D03*
D25*
X148620000Y-124180000D03*
X153660000Y-124180000D03*
D26*
X154500049Y-125603769D03*
D21*
X213561314Y-135920268D03*
D22*
X222227942Y-141988706D03*
D21*
X222571986Y-142229608D03*
D22*
X213905358Y-136161170D03*
D23*
X218066650Y-139074938D03*
D33*
X218583481Y-133943341D03*
D34*
X217078713Y-134627793D03*
D35*
X222583495Y-138482281D03*
D33*
X222712007Y-136834166D03*
D22*
X202978708Y-151766232D03*
D21*
X202634664Y-151525330D03*
X211645336Y-157834670D03*
D23*
X207140000Y-154680000D03*
D22*
X211301292Y-157593768D03*
D34*
X206152063Y-150232855D03*
D33*
X207656831Y-149548403D03*
D35*
X211656845Y-154087343D03*
D33*
X211785357Y-152439228D03*
D36*
X198734261Y-132236709D03*
D18*
X196534557Y-130966709D03*
D37*
X216193205Y-143964672D03*
D18*
X214112559Y-142507788D03*
D36*
X189209261Y-148734709D03*
D18*
X187009557Y-147464709D03*
D37*
X205266555Y-159569734D03*
D18*
X203185909Y-158112850D03*
D38*
X185682981Y-60266219D03*
X178682981Y-60266219D03*
X185682981Y-64266219D03*
X178682981Y-64266219D03*
D39*
X176882981Y-62266219D03*
X183882981Y-62266219D03*
X180882981Y-62266219D03*
X175382981Y-58266219D03*
X175382981Y-66266219D03*
%LPC*%
D40*
X99060000Y-64992002D03*
D41*
X109065647Y-63227737D03*
D40*
X133731000Y-60198000D03*
D42*
X133731000Y-70358000D03*
D43*
X160314000Y-58674000D03*
X165314000Y-58674000D03*
D44*
X159314000Y-61174000D03*
X166314000Y-61174000D03*
D45*
X134620000Y-100838000D03*
X184567441Y-124867673D03*
X115598340Y-86506566D03*
X115207141Y-105976229D03*
D46*
X118380000Y-62738000D03*
X120380000Y-62738000D03*
D43*
X102070829Y-68676946D03*
X104570829Y-68676946D03*
X107070829Y-68676946D03*
D47*
X107225000Y-85344000D03*
D40*
X111125000Y-85344000D03*
D47*
X104825000Y-85344000D03*
D42*
X100965000Y-85344000D03*
D47*
X126275000Y-80645000D03*
D40*
X130175000Y-80645000D03*
D42*
X120015000Y-80645000D03*
D47*
X123875000Y-80645000D03*
X145325000Y-78232000D03*
D40*
X149225000Y-78232000D03*
D42*
X139065000Y-78232000D03*
D47*
X142925000Y-78232000D03*
X164375000Y-80645000D03*
D40*
X168275000Y-80645000D03*
D47*
X161975000Y-80645000D03*
D42*
X158115000Y-80645000D03*
D47*
X183558217Y-85027192D03*
D40*
X187458217Y-85027192D03*
D47*
X181158217Y-85027192D03*
D42*
X177298217Y-85027192D03*
D40*
X101092000Y-104394000D03*
D48*
X104992000Y-104394000D03*
D42*
X111252000Y-104394000D03*
D48*
X107392000Y-104394000D03*
D40*
X130175000Y-99695000D03*
D47*
X126275000Y-99695000D03*
D42*
X120015000Y-99695000D03*
D47*
X123875000Y-99695000D03*
D40*
X149225000Y-97282000D03*
D47*
X145325000Y-97282000D03*
X142925000Y-97282000D03*
D42*
X139065000Y-97282000D03*
D47*
X164375000Y-99695000D03*
D40*
X168275000Y-99695000D03*
D47*
X161975000Y-99695000D03*
D42*
X158115000Y-99695000D03*
D47*
X183425000Y-102108000D03*
D40*
X187325000Y-102108000D03*
D42*
X177165000Y-102108000D03*
D47*
X181025000Y-102108000D03*
D49*
X114230584Y-113968374D03*
D40*
X114230584Y-110068374D03*
D42*
X114230584Y-120228374D03*
D49*
X114230584Y-116368374D03*
D40*
X130175000Y-118745000D03*
D47*
X126275000Y-118745000D03*
X123875000Y-118745000D03*
D42*
X120015000Y-118745000D03*
D47*
X183425000Y-104521000D03*
D40*
X187325000Y-104521000D03*
D47*
X181025000Y-104521000D03*
D42*
X177165000Y-104521000D03*
D50*
X178140000Y-127680000D03*
D40*
X181127573Y-130186872D03*
D51*
X173344561Y-123656150D03*
D50*
X176301493Y-126137310D03*
D47*
X126275000Y-121031000D03*
D40*
X130175000Y-121031000D03*
D42*
X120015000Y-121031000D03*
D47*
X123875000Y-121031000D03*
X145198000Y-118618000D03*
D40*
X149098000Y-118618000D03*
D42*
X138938000Y-118618000D03*
D47*
X142798000Y-118618000D03*
D45*
X128397000Y-61722000D03*
D52*
X107315000Y-82105500D03*
D53*
X104775000Y-82105500D03*
D52*
X126365000Y-77343000D03*
D53*
X123825000Y-77343000D03*
D52*
X145415000Y-74961750D03*
D53*
X142875000Y-74961750D03*
D52*
X164465000Y-77343000D03*
D53*
X161925000Y-77343000D03*
D52*
X183515000Y-79724250D03*
D53*
X180975000Y-79724250D03*
D52*
X107315000Y-101155500D03*
D53*
X104775000Y-101155500D03*
D52*
X126365000Y-96393000D03*
D53*
X123825000Y-96393000D03*
D52*
X145415000Y-94011750D03*
D53*
X142875000Y-94011750D03*
D52*
X164465000Y-96393000D03*
D53*
X161925000Y-96393000D03*
D52*
X183515000Y-98774250D03*
D53*
X180975000Y-98774250D03*
D52*
X107315000Y-120205500D03*
D53*
X104775000Y-120205500D03*
D52*
X126365000Y-115443000D03*
D53*
X123825000Y-115443000D03*
D52*
X145415000Y-113061750D03*
D53*
X142875000Y-113061750D03*
D52*
X164465000Y-115443000D03*
D53*
X161925000Y-115443000D03*
D52*
X183515000Y-117824250D03*
D53*
X180975000Y-117824250D03*
D54*
X171470180Y-138903357D03*
D53*
X168968768Y-138462290D03*
D43*
X136525000Y-58420000D03*
X136525000Y-60960000D03*
X136525000Y-63500000D03*
X136525000Y-66040000D03*
X136525000Y-68580000D03*
X136525000Y-71120000D03*
X136525000Y-73660000D03*
X136525000Y-76200000D03*
X136525000Y-78740000D03*
X136525000Y-81280000D03*
X136525000Y-83820000D03*
X136525000Y-86360000D03*
X151765000Y-86360000D03*
X151765000Y-83820000D03*
X151765000Y-81280000D03*
X151765000Y-78740000D03*
X151765000Y-76200000D03*
X151765000Y-73660000D03*
X151765000Y-71120000D03*
X151765000Y-68580000D03*
X151765000Y-66040000D03*
X151765000Y-63500000D03*
X151765000Y-60960000D03*
X151765000Y-58420000D03*
D52*
X152410000Y-133760000D03*
D53*
X149870000Y-133760000D03*
D55*
X197861783Y-152586827D03*
D56*
X200079400Y-149943974D03*
D57*
X204392505Y-144803815D03*
D56*
X202174888Y-147446669D03*
D58*
X167222000Y-120730000D03*
X167222000Y-122630000D03*
X169222000Y-121680000D03*
D59*
X100545000Y-77025500D03*
D60*
X100965000Y-77025500D03*
D61*
X106045000Y-77025500D03*
D60*
X111125000Y-77025500D03*
D59*
X111545000Y-77025500D03*
D62*
X102684951Y-73949269D03*
D63*
X103525000Y-72525500D03*
X108565000Y-72525500D03*
D64*
X109405049Y-73949269D03*
D59*
X100545000Y-96075500D03*
D60*
X111125000Y-96075500D03*
D59*
X111545000Y-96075500D03*
D60*
X100965000Y-96075500D03*
D61*
X106045000Y-96075500D03*
D63*
X103525000Y-91575500D03*
D62*
X102684951Y-92999269D03*
D63*
X108565000Y-91575500D03*
D64*
X109405049Y-92999269D03*
D60*
X100965000Y-115125500D03*
D59*
X100545000Y-115125500D03*
X111545000Y-115125500D03*
D60*
X111125000Y-115125500D03*
D61*
X106045000Y-115125500D03*
D63*
X103525000Y-110625500D03*
D62*
X102684951Y-112049269D03*
D63*
X108565000Y-110625500D03*
D64*
X109405049Y-112049269D03*
D59*
X130595000Y-91313000D03*
D61*
X125095000Y-91313000D03*
D60*
X120015000Y-91313000D03*
D59*
X119595000Y-91313000D03*
D60*
X130175000Y-91313000D03*
D63*
X122575000Y-86813000D03*
D62*
X121734951Y-88236769D03*
D63*
X127615000Y-86813000D03*
D64*
X128455049Y-88236769D03*
D61*
X125095000Y-110363000D03*
D60*
X130175000Y-110363000D03*
X120015000Y-110363000D03*
D59*
X119595000Y-110363000D03*
X130595000Y-110363000D03*
D63*
X122575000Y-105863000D03*
D62*
X121734951Y-107286769D03*
D64*
X128455049Y-107286769D03*
D63*
X127615000Y-105863000D03*
D59*
X149645000Y-69881750D03*
D60*
X139065000Y-69881750D03*
D59*
X138645000Y-69881750D03*
D60*
X149225000Y-69881750D03*
D61*
X144145000Y-69881750D03*
D63*
X141625000Y-65381750D03*
D62*
X140784951Y-66805519D03*
D63*
X146665000Y-65381750D03*
D64*
X147505049Y-66805519D03*
D60*
X149225000Y-88931750D03*
X139065000Y-88931750D03*
D59*
X138645000Y-88931750D03*
X149645000Y-88931750D03*
D61*
X144145000Y-88931750D03*
D63*
X141625000Y-84431750D03*
D62*
X140784951Y-85855519D03*
D64*
X147505049Y-85855519D03*
D63*
X146665000Y-84431750D03*
D59*
X149645000Y-107981750D03*
D61*
X144145000Y-107981750D03*
D60*
X149225000Y-107981750D03*
X139065000Y-107981750D03*
D59*
X138645000Y-107981750D03*
D62*
X140784951Y-104905519D03*
D63*
X141625000Y-103481750D03*
D64*
X147505049Y-104905519D03*
D63*
X146665000Y-103481750D03*
D60*
X168275000Y-72263000D03*
D59*
X168695000Y-72263000D03*
D60*
X158115000Y-72263000D03*
D61*
X163195000Y-72263000D03*
D59*
X157695000Y-72263000D03*
D62*
X159834951Y-69186769D03*
D63*
X160675000Y-67763000D03*
X165715000Y-67763000D03*
D64*
X166555049Y-69186769D03*
D59*
X168695000Y-91313000D03*
X157695000Y-91313000D03*
D60*
X158115000Y-91313000D03*
X168275000Y-91313000D03*
D61*
X163195000Y-91313000D03*
D63*
X160675000Y-86813000D03*
D62*
X159834951Y-88236769D03*
D63*
X165715000Y-86813000D03*
D64*
X166555049Y-88236769D03*
D61*
X163195000Y-110363000D03*
D60*
X158115000Y-110363000D03*
X168275000Y-110363000D03*
D59*
X168695000Y-110363000D03*
X157695000Y-110363000D03*
D63*
X160675000Y-105863000D03*
D62*
X159834951Y-107286769D03*
D64*
X166555049Y-107286769D03*
D63*
X165715000Y-105863000D03*
D60*
X204573818Y-129742300D03*
X195775000Y-124662300D03*
D59*
X204937549Y-129952300D03*
D61*
X200174409Y-127202300D03*
D59*
X195411269Y-124452300D03*
D65*
X198802637Y-122858181D03*
D66*
X200242025Y-122045186D03*
D67*
X204622412Y-126218230D03*
D66*
X204606793Y-124565186D03*
D60*
X176104430Y-134562133D03*
X166098784Y-132797867D03*
D61*
X171101607Y-133680000D03*
D59*
X165685164Y-132724935D03*
X176518050Y-134635065D03*
D68*
X168326787Y-130067038D03*
D69*
X169401308Y-128810772D03*
D70*
X174944791Y-131233969D03*
D69*
X174364739Y-129685959D03*
D60*
X195048818Y-146240300D03*
D59*
X195412549Y-146450300D03*
X185886269Y-140950300D03*
D60*
X186250000Y-141160300D03*
D61*
X190649409Y-143700300D03*
D66*
X190717025Y-138543186D03*
D65*
X189277637Y-139356181D03*
D66*
X195081793Y-141063186D03*
D67*
X195097412Y-142716230D03*
D61*
X151140000Y-128680000D03*
D60*
X156220000Y-128680000D03*
D59*
X145640000Y-128680000D03*
X156640000Y-128680000D03*
D60*
X146060000Y-128680000D03*
D62*
X147779951Y-125603769D03*
D63*
X148620000Y-124180000D03*
X153660000Y-124180000D03*
D64*
X154500049Y-125603769D03*
D59*
X213561314Y-135920268D03*
D60*
X222227942Y-141988706D03*
D59*
X222571986Y-142229608D03*
D60*
X213905358Y-136161170D03*
D61*
X218066650Y-139074938D03*
D71*
X218583481Y-133943341D03*
D72*
X217078713Y-134627793D03*
D73*
X222583495Y-138482281D03*
D71*
X222712007Y-136834166D03*
D60*
X202978708Y-151766232D03*
D59*
X202634664Y-151525330D03*
X211645336Y-157834670D03*
D61*
X207140000Y-154680000D03*
D60*
X211301292Y-157593768D03*
D72*
X206152063Y-150232855D03*
D71*
X207656831Y-149548403D03*
D73*
X211656845Y-154087343D03*
D71*
X211785357Y-152439228D03*
D74*
X198734261Y-132236709D03*
D53*
X196534557Y-130966709D03*
D75*
X216193205Y-143964672D03*
D53*
X214112559Y-142507788D03*
D74*
X189209261Y-148734709D03*
D53*
X187009557Y-147464709D03*
D75*
X205266555Y-159569734D03*
D53*
X203185909Y-158112850D03*
D40*
X194785041Y-116504139D03*
D76*
X192278169Y-119491712D03*
D77*
X188254319Y-124287151D03*
D76*
X190735479Y-121330219D03*
D40*
X214189562Y-127853920D03*
D76*
X211682690Y-130841493D03*
D77*
X207658840Y-135636932D03*
D76*
X210140000Y-132680000D03*
D50*
X197196028Y-136680000D03*
D40*
X200183601Y-139186872D03*
D50*
X195357521Y-135137310D03*
D51*
X192400589Y-132656150D03*
D78*
X198134458Y-148275297D03*
D40*
X195627586Y-151262870D03*
D78*
X199677148Y-146436790D03*
D57*
X202158308Y-143479858D03*
D79*
X114427000Y-82169000D03*
D80*
X114427000Y-78719000D03*
D42*
X114427000Y-72009000D03*
D80*
X114427000Y-75459000D03*
X114427000Y-97642000D03*
D79*
X114427000Y-101092000D03*
D80*
X114427000Y-94382000D03*
D42*
X114427000Y-90932000D03*
D79*
X116713000Y-120142000D03*
D80*
X116713000Y-116692000D03*
X116713000Y-113432000D03*
D42*
X116713000Y-109982000D03*
D79*
X116586000Y-82169000D03*
D80*
X116586000Y-78719000D03*
X116586000Y-75459000D03*
D42*
X116586000Y-72009000D03*
D79*
X155194000Y-104754000D03*
D80*
X155194000Y-101304000D03*
D42*
X155194000Y-94594000D03*
D80*
X155194000Y-98044000D03*
X171450000Y-96732000D03*
D79*
X171450000Y-100182000D03*
D42*
X171450000Y-90022000D03*
D80*
X171450000Y-93472000D03*
X171323000Y-114385000D03*
D79*
X171323000Y-117835000D03*
D42*
X171323000Y-107675000D03*
D80*
X171323000Y-111125000D03*
D81*
X183928155Y-82343258D03*
D82*
X187378155Y-82343258D03*
D81*
X180668155Y-82343258D03*
D42*
X177218155Y-82343258D03*
D80*
X173990000Y-114406000D03*
D79*
X173990000Y-117856000D03*
D80*
X173990000Y-111146000D03*
D42*
X173990000Y-107696000D03*
D56*
X192187903Y-122909011D03*
D55*
X189970286Y-125551864D03*
D57*
X196501008Y-117768852D03*
D56*
X194283391Y-120411706D03*
D83*
X159254395Y-132702520D03*
D84*
X159853481Y-129304933D03*
D85*
X161018660Y-122696873D03*
D84*
X160419574Y-126094460D03*
D83*
X161974821Y-133288060D03*
D84*
X162573907Y-129890473D03*
D85*
X163739086Y-123282413D03*
D84*
X163140000Y-126680000D03*
D56*
X181807617Y-137453877D03*
D55*
X179590000Y-140096730D03*
D57*
X186120722Y-132313718D03*
D56*
X183903105Y-134956572D03*
D40*
X158115000Y-102235000D03*
D48*
X162015000Y-102235000D03*
X164415000Y-102235000D03*
D42*
X168275000Y-102235000D03*
D49*
X152273000Y-113861000D03*
D40*
X152273000Y-109961000D03*
D49*
X152273000Y-116261000D03*
D42*
X152273000Y-120121000D03*
D46*
X111030000Y-66209000D03*
X113030000Y-66209000D03*
X115030000Y-66209000D03*
X111030000Y-68368000D03*
X113030000Y-68368000D03*
X115030000Y-68368000D03*
D79*
X152273000Y-104796000D03*
D80*
X152273000Y-101346000D03*
X152273000Y-98086000D03*
D42*
X152273000Y-94636000D03*
D80*
X135763000Y-112395000D03*
D79*
X135763000Y-115845000D03*
D80*
X135763000Y-109135000D03*
D42*
X135763000Y-105685000D03*
D79*
X173990000Y-100224000D03*
D80*
X173990000Y-96774000D03*
X173990000Y-93514000D03*
D42*
X173990000Y-90064000D03*
D86*
X185682981Y-60266219D03*
X178682981Y-60266219D03*
X185682981Y-64266219D03*
X178682981Y-64266219D03*
D87*
X176882981Y-62266219D03*
X183882981Y-62266219D03*
X180882981Y-62266219D03*
X175382981Y-58266219D03*
X175382981Y-66266219D03*
D80*
X133477000Y-112395000D03*
D79*
X133477000Y-115845000D03*
D80*
X133477000Y-109135000D03*
D42*
X133477000Y-105685000D03*
D80*
X133731000Y-88011000D03*
D79*
X133731000Y-91461000D03*
D80*
X133731000Y-84751000D03*
D42*
X133731000Y-81301000D03*
D79*
X116840000Y-101092000D03*
D80*
X116840000Y-97642000D03*
X116840000Y-94382000D03*
D42*
X116840000Y-90932000D03*
D47*
X145198000Y-116332000D03*
D40*
X149098000Y-116332000D03*
D42*
X138938000Y-116332000D03*
D47*
X142798000Y-116332000D03*
D43*
X107076249Y-66040000D03*
X102076249Y-66040000D03*
D45*
X175778893Y-78619815D03*
X204140000Y-138680000D03*
D43*
X104570829Y-66040000D03*
X146518000Y-58674000D03*
X141518000Y-58674000D03*
D44*
X140518000Y-61174000D03*
X147518000Y-61174000D03*
D43*
X170815000Y-58420000D03*
X170815000Y-60960000D03*
X170815000Y-63500000D03*
X170815000Y-66040000D03*
X170815000Y-68580000D03*
X170815000Y-71120000D03*
X170815000Y-73660000D03*
X170815000Y-76200000D03*
X170815000Y-78740000D03*
X170815000Y-81280000D03*
X170815000Y-83820000D03*
X170815000Y-86360000D03*
X155575000Y-86360000D03*
X155575000Y-83820000D03*
X155575000Y-81280000D03*
X155575000Y-78740000D03*
X155575000Y-76200000D03*
X155575000Y-73660000D03*
X155575000Y-71120000D03*
X155575000Y-68580000D03*
X155575000Y-66040000D03*
X155575000Y-63500000D03*
X155575000Y-60960000D03*
X155575000Y-58420000D03*
D59*
X119595000Y-72263000D03*
D60*
X130175000Y-72263000D03*
D61*
X125095000Y-72263000D03*
D60*
X120015000Y-72263000D03*
D59*
X130595000Y-72263000D03*
D63*
X127615000Y-67763000D03*
D88*
X128455049Y-69186769D03*
D63*
X122575000Y-67763000D03*
D89*
X121734951Y-69186769D03*
D60*
X187325000Y-74644250D03*
X177165000Y-74644250D03*
D59*
X176745000Y-74644250D03*
D61*
X182245000Y-74644250D03*
D59*
X187745000Y-74644250D03*
D88*
X185605049Y-71568019D03*
D63*
X184765000Y-70144250D03*
D89*
X178884951Y-71568019D03*
D63*
X179725000Y-70144250D03*
D60*
X177165000Y-93694250D03*
D59*
X176745000Y-93694250D03*
D61*
X182245000Y-93694250D03*
D59*
X187745000Y-93694250D03*
D60*
X187325000Y-93694250D03*
D88*
X185605049Y-90618019D03*
D63*
X184765000Y-89194250D03*
D89*
X178884951Y-90618019D03*
D63*
X179725000Y-89194250D03*
D59*
X187745000Y-112744250D03*
D60*
X177165000Y-112744250D03*
D59*
X176745000Y-112744250D03*
D60*
X187325000Y-112744250D03*
D61*
X182245000Y-112744250D03*
D88*
X185605049Y-109668019D03*
D63*
X184765000Y-108244250D03*
D89*
X178884951Y-109668019D03*
D63*
X179725000Y-108244250D03*
M02*
