M48
; DRILL file {KiCad (6.0.7)} date Fri Aug 18 09:51:43 2023
; FORMAT={-:-/ absolute / inch / decimal}
; #@! TF.CreationDate,2023-08-18T09:51:43+01:00
; #@! TF.GenerationSoftware,Kicad,Pcbnew,(6.0.7)
; #@! TF.FileFunction,NonPlated,1,2,NPTH
FMAT,2
INCH
; #@! TA.AperFunction,NonPlated,NPTH,ComponentDrill
T1C0.0472
; #@! TA.AperFunction,NonPlated,NPTH,ComponentDrill
T2C0.0669
; #@! TA.AperFunction,NonPlated,NPTH,ComponentDrill
T3C0.0748
; #@! TA.AperFunction,NonPlated,NPTH,ComponentDrill
T4C0.1575
; #@! TA.AperFunction,NonPlated,NPTH,ComponentDrill
T5C0.1969
%
G90
G05
T1
X7.0348Y-2.3727
X7.0348Y-2.5302
X7.3104Y-2.3727
X7.3104Y-2.5302
T2
X3.975Y-3.0325
X3.975Y-3.7825
X3.975Y-4.5325
X4.375Y-3.0325
X4.375Y-3.7825
X4.375Y-4.5325
X4.725Y-2.845
X4.725Y-3.595
X4.725Y-4.345
X5.125Y-2.845
X5.125Y-3.595
X5.125Y-4.345
X5.475Y-2.7512
X5.475Y-3.5012
X5.475Y-4.2512
X5.7504Y-5.0661
X5.875Y-2.7512
X5.875Y-3.5012
X5.875Y-4.2512
X6.1504Y-5.0661
X6.225Y-2.845
X6.225Y-3.595
X6.225Y-4.345
X6.5393Y-5.2283
X6.625Y-2.845
X6.625Y-3.595
X6.625Y-4.345
X6.9332Y-5.2977
X6.975Y-2.9387
X6.975Y-3.6887
X6.975Y-4.4387
X7.3327Y-5.5575
X7.375Y-2.9387
X7.375Y-3.6887
X7.375Y-4.4387
X7.6791Y-5.7575
X7.7077Y-4.908
X7.9913Y-5.975
X8.0541Y-5.108
X8.3189Y-6.2045
X8.4215Y-5.3607
X8.7491Y-5.5901
T3
X3.9585Y-3.0325
X3.9585Y-3.7825
X3.9585Y-4.5325
X4.3915Y-3.0325
X4.3915Y-3.7825
X4.3915Y-4.5325
X4.7085Y-2.845
X4.7085Y-3.595
X4.7085Y-4.345
X5.1415Y-2.845
X5.1415Y-3.595
X5.1415Y-4.345
X5.4585Y-2.7512
X5.4585Y-3.5012
X5.4585Y-4.2512
X5.7339Y-5.0661
X5.8915Y-2.7512
X5.8915Y-3.5012
X5.8915Y-4.2512
X6.1669Y-5.0661
X6.2085Y-2.845
X6.2085Y-3.595
X6.2085Y-4.345
X6.523Y-5.2254
X6.6415Y-2.845
X6.6415Y-3.595
X6.6415Y-4.345
X6.9495Y-5.3006
X6.9585Y-2.9387
X6.9585Y-3.6887
X6.9585Y-4.4387
X7.3184Y-5.5492
X7.3915Y-2.9387
X7.3915Y-3.6887
X7.3915Y-4.4387
X7.6934Y-4.8997
X7.6934Y-5.7658
X7.9777Y-5.9656
X8.0684Y-5.1162
X8.3325Y-6.214
X8.4079Y-5.3512
X8.7627Y-5.5996
T4
X4.175Y-3.0325
X4.175Y-3.7825
X4.175Y-4.5325
X4.925Y-2.845
X4.925Y-3.595
X4.925Y-4.345
X5.675Y-2.7512
X5.675Y-3.5012
X5.675Y-4.2512
X5.9504Y-5.0661
X6.425Y-2.845
X6.425Y-3.595
X6.425Y-4.345
X6.7363Y-5.263
X7.175Y-2.9387
X7.175Y-3.6887
X7.175Y-4.4387
X7.5059Y-5.6575
X7.8809Y-5.008
X8.1551Y-6.0898
X8.5853Y-5.4754
T5
X4.5357Y-4.1723
X4.5511Y-3.4058
X5.055Y-2.43
X5.3Y-3.97
X6.9204Y-3.0953
X7.2664Y-4.9161
X8.037Y-5.4598
T0
M30
