<?xml version="1.0" standalone="no"?>
 <!DOCTYPE svg PUBLIC "-//W3C//DTD SVG 1.1//EN" 
 "http://www.w3.org/Graphics/SVG/1.1/DTD/svg11.dtd"> 
<svg
  xmlns:svg="http://www.w3.org/2000/svg"
  xmlns="http://www.w3.org/2000/svg"
  xmlns:xlink="http://www.w3.org/1999/xlink"
  version="1.1"
  width="13.266420cm" height="11.026140cm" viewBox="0 0 132664200 110261400">
<title>SVG Picture created as ergodash-B_Fab.svg date 2023/08/13 10:04:29 </title>
  <desc>Picture generated by PCBNEW </desc>
<g style="fill:#000000; fill-opacity:1.000000;stroke:#000000; stroke-opacity:1.000000;
stroke-linecap:round; stroke-linejoin:round;"
 transform="translate(0 0) scale(1 1)">
</g>
<g style="fill:#000000; fill-opacity:0.0; 
stroke:#000000; stroke-width:0.000000; stroke-opacity:1; 
stroke-linecap:round; stroke-linejoin:round;">
</g>
<g style="fill:#585D84; fill-opacity:0.0; 
stroke:#585D84; stroke-width:0.000000; stroke-opacity:1; 
stroke-linecap:round; stroke-linejoin:round;">
</g>
<g style="fill:#585D84; fill-opacity:0.0; 
stroke:#585D84; stroke-width:150000.000000; stroke-opacity:1; 
stroke-linecap:round; stroke-linejoin:round;">
<text x="46985844.000000" y="4385000.000000"
transform="scale(-1 1) translate(-93971688.000000 0)"
textLength="6281190.000000" font-size="1333333.000000" lengthAdjust="spacingAndGlyphs"
text-anchor="middle" opacity="0">SW_Push</text>
<g class="stroked-text"><desc>SW_Push</desc>
<path d="M50033463 4289761
L49890605 4337380
L49652510 4337380
L49557272 4289761
L49509653 4242142
L49462034 4146904
L49462034 4051666
L49509653 3956428
L49557272 3908809
L49652510 3861190
L49842986 3813571
L49938224 3765952
L49985844 3718333
L50033463 3623095
L50033463 3527857
L49985844 3432619
L49938224 3385000
L49842986 3337380
L49604891 3337380
L49462034 3385000
" />
<path d="M49128701 3337380
L48890605 4337380
L48700129 3623095
L48509653 4337380
L48271558 3337380
" />
<path d="M48128701 4432619
L47366796 4432619
" />
<path d="M47128701 4337380
L47128701 3337380
L46747748 3337380
L46652510 3385000
L46604891 3432619
L46557272 3527857
L46557272 3670714
L46604891 3765952
L46652510 3813571
L46747748 3861190
L47128701 3861190
" />
<path d="M45700129 3670714
L45700129 4337380
" />
<path d="M46128701 3670714
L46128701 4194523
L46081082 4289761
L45985844 4337380
L45842986 4337380
L45747748 4289761
L45700129 4242142
" />
<path d="M45271558 4289761
L45176320 4337380
L44985844 4337380
L44890605 4289761
L44842986 4194523
L44842986 4146904
L44890605 4051666
L44985844 4004047
L45128701 4004047
L45223939 3956428
L45271558 3861190
L45271558 3813571
L45223939 3718333
L45128701 3670714
L44985844 3670714
L44890605 3718333
" />
<path d="M44414415 4337380
L44414415 3337380
" />
<path d="M43985844 4337380
L43985844 3813571
L44033463 3718333
L44128701 3670714
L44271558 3670714
L44366796 3718333
L44414415 3765952
" />
</g><path d="M75052844 -1449000
L57272844 -1449000
" />
<path d="M57272844 31571000
L75052844 31571000
" />
<path d="M75052844 31571000
L75052844 -1449000
" />
<path d="M57272844 -1449000
L57272844 31571000
" />
<g >
</g>
<g >
</g>
<g >
</g>
<g >
</g>
<g >
</g>
<g >
</g>
<g >
</g>
<g >
</g>
<g >
</g>
<g >
</g>
<g >
</g>
<g >
</g>
<g >
</g>
<g >
</g>
<g >
</g>
<g >
</g>
<g >
</g>
<g >
</g>
<g >
</g>
<g >
</g>
<g >
</g>
<g >
</g>
<g >
</g>
<g >
</g>
<g >
</g>
<g >
</g>
<g >
</g>
<g >
</g>
<g >
</g>
<g >
</g>
<g >
</g>
<g >
</g>
<g >
</g>
<g >
</g>
<g >
</g>
<g >
</g>
<g >
</g>
<g >
</g>
<g >
</g>
<g >
</g>
<g >
</g>
<g >
</g>
<g >
</g>
<g >
</g>
<g >
</g>
<g >
</g>
<g >
</g>
<g >
</g>
<g >
</g>
<g >
</g>
<g >
</g>
<g >
</g>
<g >
</g>
<g >
</g>
<g >
</g>
<g >
</g>
<g >
</g>
<g >
</g>
<g >
</g>
<g >
</g>
<g >
</g>
<g >
</g>
<g >
</g>
<g >
</g>
<g >
</g>
<g >
</g>
<g >
</g>
<g >
</g>
<g >
</g>
<g >
</g>
<g >
</g>
<g >
</g>
<g >
</g>
<g >
</g>
<g >
</g>
<g >
</g>
<g >
</g>
<g >
</g>
<g >
</g>
<g >
</g>
<g >
</g>
<g >
</g>
<g >
</g>
<g >
</g>
<g >
</g>
<g >
</g>
<g >
</g>
<g >
</g>
<g >
</g>
<g >
</g>
<g >
</g>
<g >
</g>
<g >
</g>
<g >
</g>
<g >
</g>
<g >
</g>
<g >
</g>
<g >
</g>
<g >
</g>
<g >
</g>
<g >
</g>
<g >
</g>
<g >
</g>
<g >
</g>
<g >
</g>
<g >
</g>
<g >
</g>
<g >
</g>
<g >
</g>
<g >
</g>
</g>
<g style="fill:#000000; fill-opacity:0.0; 
stroke:#000000; stroke-width:150000.000000; stroke-opacity:1; 
stroke-linecap:round; stroke-linejoin:round;">
</g>
<g style="fill:#D0D2CD; fill-opacity:0.0; 
stroke:#D0D2CD; stroke-width:150000.000000; stroke-opacity:1; 
stroke-linecap:round; stroke-linejoin:round;">
<path d="M75179844 75000
L89106602 1088312
" />
<path d="M746121.650199 7275743.772803 A909044.000000 909044.000000 0.0 0 0 75340.977506 8177996.000616" />
<path d="M63616406 84932451
L81102506 91207368
" />
<path d="M45075341 68122114
L45075341 80658641
" />
<path d="M37587844 75000
L66543844 75000
" />
<path d="M90106602 2088312
L90107844 10621000
" />
<path d="M132139578.057794 82907387.530872 A2539992.000000 2539992.000000 0.0 0 0 131515860.057812 79369885.917439" />
<path d="M37587844 75000
L746119 7275734
" />
<path d="M131515860 79369886
L115399655 67846087
" />
<path d="M94203274 55561000
L94203274 11612040
" />
<path d="M45962995 81636884
L63616406 84932451
" />
<path d="M90107844 10621000
L93107844 10621000
" />
<path d="M110054946 109601495
L97599634 100863229
" />
<path d="M45075397.059124 80658640.980559 A983247.000000 983247.000000 0.0 0 0 45962995.035283 81636883.639020" />
<path d="M115399655 67846087
L94203274 55561000
" />
<path d="M97599634 100863229
L81102506 91207368
" />
<path d="M75341 8177996
L75341 67122114
" />
<path d="M113633383 109288422
L132139623 82907419
" />
<path d="M110054963.671401 109601473.939814 A2540016.000000 2540016.000000 0.0 0 0 113633382.984144 109288421.986695" />
<path d="M75330.000098 67122114.000154 A1000014.000000 1000014.000000 0.0 0 0 1075341.000000 68122113.999995" />
<path d="M1075341 68122114
L45075341 68122114
" />
<path d="M66543844 75000
L75179844 75000
" />
<path d="M94203249.012318 11612042.505999 A1100900.000000 1100900.000000 0.0 0 0 93107844.000000 10621000.000000" />
<path d="M90106631.999928 2088312.000360 A999988.000000 999988.000000 0.0 0 0 89106602.000000 1088312.000882" />
<g >
</g>
<g >
</g>
<g >
</g>
<g >
</g>
<g >
</g>
<g >
</g>
<g >
</g>
<g >
</g>
<g >
</g>
<g >
</g>
<g >
</g>
<g >
</g>
<g >
</g>
<g >
</g>
<g >
</g>
<g >
</g>
<g >
</g>
<g >
</g>
<g >
</g>
<g >
</g>
<g >
</g>
<g >
</g>
<g >
</g>
<g >
</g>
<g >
</g>
<g >
</g>
<g >
</g>
<g >
</g>
<g >
</g>
<g >
</g>
<g >
</g>
<g >
</g>
<g >
</g>
<g >
</g>
<g >
</g>
<g >
</g>
<g >
</g>
<g >
</g>
<g >
</g>
<g >
</g>
<g >
</g>
<g >
</g>
<g >
</g>
<g >
</g>
<g >
</g>
<g >
</g>
<g >
</g>
<g >
</g>
<g >
</g>
<g >
</g>
<g >
</g>
<g >
</g>
<g >
</g>
<g >
</g>
<g >
</g>
<g >
</g>
<g >
</g>
<g >
</g>
<g >
</g>
<g >
</g>
<g >
</g>
<g >
</g>
<g >
</g>
<g >
</g>
<g >
</g>
<g >
</g>
<g >
</g>
<g >
</g>
<g >
</g>
<g >
</g>
<g >
</g>
<g >
</g>
<g >
</g>
<g >
</g>
<g >
</g>
<g >
</g>
<g >
</g>
<g >
</g>
<g >
</g>
<g >
</g>
<g >
</g>
<g >
</g>
<g >
</g>
<g >
</g>
<g >
</g>
<g >
</g>
<g >
</g>
<g >
</g>
<g >
</g>
<g >
</g>
<g >
</g>
<g >
</g>
<g >
</g>
<g >
</g>
<g >
</g>
<g >
</g>
<g >
</g>
<g >
</g>
<g >
</g>
<g >
</g>
<g >
</g>
<g >
</g>
<g >
</g>
<g >
</g>
<g >
</g>
<g >
</g>
<g >
</g>
<g >
</g>
<g >
</g>
<g >
</g>
</g> 
</svg>
