<?xml version="1.0" standalone="no"?>
 <!DOCTYPE svg PUBLIC "-//W3C//DTD SVG 1.1//EN" 
 "http://www.w3.org/Graphics/SVG/1.1/DTD/svg11.dtd"> 
<svg
  xmlns:svg="http://www.w3.org/2000/svg"
  xmlns="http://www.w3.org/2000/svg"
  xmlns:xlink="http://www.w3.org/1999/xlink"
  version="1.1"
  width="13.266420cm" height="11.026140cm" viewBox="0 0 132664200 110261400">
<title>SVG Picture created as ergodash-User_Drawings.svg date 2023/08/13 10:04:29 </title>
  <desc>Picture generated by PCBNEW </desc>
<g style="fill:#000000; fill-opacity:1.000000;stroke:#000000; stroke-opacity:1.000000;
stroke-linecap:round; stroke-linejoin:round;"
 transform="translate(0 0) scale(1 1)">
</g>
<g style="fill:#000000; fill-opacity:0.0; 
stroke:#000000; stroke-width:0.000000; stroke-opacity:1; 
stroke-linecap:round; stroke-linejoin:round;">
</g>
<g style="fill:#C2C2C2; fill-opacity:0.0; 
stroke:#C2C2C2; stroke-width:0.000000; stroke-opacity:1; 
stroke-linecap:round; stroke-linejoin:round;">
</g>
<g style="fill:#C2C2C2; fill-opacity:0.0; 
stroke:#C2C2C2; stroke-width:100000.000000; stroke-opacity:1; 
stroke-linecap:round; stroke-linejoin:round;">
<text x="22347844.000000" y="8834000.000000"
textLength="4602381.000000" font-size="666666.000000" lengthAdjust="spacingAndGlyphs"
text-anchor="middle" opacity="0">jumper_smd</text>
<g class="stroked-text"><desc>jumper_smd</desc>
<path d="M20240701 8476857
L20240701 8905428
L20216891 8953047
L20169272 8976857
L20145463 8976857
" />
<path d="M20240701 8310190
L20216891 8334000
L20240701 8357809
L20264510 8334000
L20240701 8310190
L20240701 8357809
" />
<path d="M20693082 8476857
L20693082 8810190
" />
<path d="M20478796 8476857
L20478796 8738761
L20502605 8786380
L20550224 8810190
L20621653 8810190
L20669272 8786380
L20693082 8762571
" />
<path d="M20931177 8810190
L20931177 8476857
" />
<path d="M20931177 8524476
L20954986 8500666
L21002605 8476857
L21074034 8476857
L21121653 8500666
L21145463 8548285
L21145463 8810190
" />
<path d="M21145463 8548285
L21169272 8500666
L21216891 8476857
L21288320 8476857
L21335939 8500666
L21359748 8548285
L21359748 8810190
" />
<path d="M21597844 8476857
L21597844 8976857
" />
<path d="M21597844 8500666
L21645463 8476857
L21740701 8476857
L21788320 8500666
L21812129 8524476
L21835939 8572095
L21835939 8714952
L21812129 8762571
L21788320 8786380
L21740701 8810190
L21645463 8810190
L21597844 8786380
" />
<path d="M22240701 8786380
L22193082 8810190
L22097844 8810190
L22050224 8786380
L22026415 8738761
L22026415 8548285
L22050224 8500666
L22097844 8476857
L22193082 8476857
L22240701 8500666
L22264510 8548285
L22264510 8595904
L22026415 8643523
" />
<path d="M22478796 8810190
L22478796 8476857
" />
<path d="M22478796 8572095
L22502605 8524476
L22526415 8500666
L22574034 8476857
L22621653 8476857
" />
<path d="M22669272 8857809
L23050224 8857809
" />
<path d="M23145463 8786380
L23193082 8810190
L23288320 8810190
L23335939 8786380
L23359748 8738761
L23359748 8714952
L23335939 8667333
L23288320 8643523
L23216891 8643523
L23169272 8619714
L23145463 8572095
L23145463 8548285
L23169272 8500666
L23216891 8476857
L23288320 8476857
L23335939 8500666
" />
<path d="M23574034 8810190
L23574034 8476857
" />
<path d="M23574034 8524476
L23597844 8500666
L23645463 8476857
L23716891 8476857
L23764510 8500666
L23788320 8548285
L23788320 8810190
" />
<path d="M23788320 8548285
L23812129 8500666
L23859748 8476857
L23931177 8476857
L23978796 8500666
L24002605 8548285
L24002605 8810190
" />
<path d="M24454986 8810190
L24454986 8310190
" />
<path d="M24454986 8786380
L24407367 8810190
L24312129 8810190
L24264510 8786380
L24240701 8762571
L24216891 8714952
L24216891 8572095
L24240701 8524476
L24264510 8500666
L24312129 8476857
L24407367 8476857
L24454986 8500666
" />
</g></g>
<g style="fill:#C2C2C2; fill-opacity:0.0; 
stroke:#C2C2C2; stroke-width:203200.000000; stroke-opacity:1; 
stroke-linecap:round; stroke-linejoin:round;">
<text x="9012844.000000" y="25411500.000000"
textLength="4556857.000000" font-size="2032000.000000" lengthAdjust="spacingAndGlyphs"
text-anchor="middle" opacity="0">D43</text>
<g class="stroked-text"><desc>D43</desc>
<path d="M7162272 25351023
L7162272 24081023
L7525129 24081023
L7742844 24141500
L7887986 24262452
L7960558 24383404
L8033129 24625309
L8033129 24806738
L7960558 25048642
L7887986 25169595
L7742844 25290547
L7525129 25351023
L7162272 25351023
" />
<path d="M9339415 24504357
L9339415 25351023
" />
<path d="M8976558 24020547
L8613701 24927690
L9557129 24927690
" />
<path d="M9992558 24081023
L10935986 24081023
L10427986 24564833
L10645701 24564833
L10790844 24625309
L10863415 24685785
L10935986 24806738
L10935986 25109119
L10863415 25230071
L10790844 25290547
L10645701 25351023
L10210272 25351023
L10065129 25290547
L9992558 25230071
" />
</g><text x="28062844.000000" y="20649000.000000"
textLength="4691017.000000" font-size="2032000.000000" lengthAdjust="spacingAndGlyphs"
text-anchor="middle" opacity="0">D44</text>
<g class="stroked-text"><desc>D44</desc>
<path d="M26212272 20588523
L26212272 19318523
L26575129 19318523
L26792844 19379000
L26937986 19499952
L27010558 19620904
L27083129 19862809
L27083129 20044238
L27010558 20286142
L26937986 20407095
L26792844 20528047
L26575129 20588523
L26212272 20588523
" />
<path d="M28389415 19741857
L28389415 20588523
" />
<path d="M28026558 19258047
L27663701 20165190
L28607129 20165190
" />
<path d="M29840844 19741857
L29840844 20588523
" />
<path d="M29477986 19258047
L29115129 20165190
L30058558 20165190
" />
</g><text x="47112844.000000" y="18267750.000000"
textLength="4691017.000000" font-size="2032000.000000" lengthAdjust="spacingAndGlyphs"
text-anchor="middle" opacity="0">D45</text>
<g class="stroked-text"><desc>D45</desc>
<path d="M45262272 18207273
L45262272 16937273
L45625129 16937273
L45842844 16997750
L45987986 17118702
L46060558 17239654
L46133129 17481559
L46133129 17662988
L46060558 17904892
L45987986 18025845
L45842844 18146797
L45625129 18207273
L45262272 18207273
" />
<path d="M47439415 17360607
L47439415 18207273
" />
<path d="M47076558 16876797
L46713701 17783940
L47657129 17783940
" />
<path d="M48963415 16937273
L48237701 16937273
L48165129 17542035
L48237701 17481559
L48382844 17421083
L48745701 17421083
L48890844 17481559
L48963415 17542035
L49035986 17662988
L49035986 17965369
L48963415 18086321
L48890844 18146797
L48745701 18207273
L48382844 18207273
L48237701 18146797
L48165129 18086321
" />
</g><text x="66162844.000000" y="20649000.000000"
textLength="4691017.000000" font-size="2032000.000000" lengthAdjust="spacingAndGlyphs"
text-anchor="middle" opacity="0">D46</text>
<g class="stroked-text"><desc>D46</desc>
<path d="M64312272 20588523
L64312272 19318523
L64675129 19318523
L64892844 19379000
L65037986 19499952
L65110558 19620904
L65183129 19862809
L65183129 20044238
L65110558 20286142
L65037986 20407095
L64892844 20528047
L64675129 20588523
L64312272 20588523
" />
<path d="M66489415 19741857
L66489415 20588523
" />
<path d="M66126558 19258047
L65763701 20165190
L66707129 20165190
" />
<path d="M67940844 19318523
L67650558 19318523
L67505415 19379000
L67432844 19439476
L67287701 19620904
L67215129 19862809
L67215129 20346619
L67287701 20467571
L67360272 20528047
L67505415 20588523
L67795701 20588523
L67940844 20528047
L68013415 20467571
L68085986 20346619
L68085986 20044238
L68013415 19923285
L67940844 19862809
L67795701 19802333
L67505415 19802333
L67360272 19862809
L67287701 19923285
L67215129 20044238
" />
</g><text x="85212844.000000" y="23030250.000000"
textLength="4691017.000000" font-size="2032000.000000" lengthAdjust="spacingAndGlyphs"
text-anchor="middle" opacity="0">D47</text>
<g class="stroked-text"><desc>D47</desc>
<path d="M83362272 22969773
L83362272 21699773
L83725129 21699773
L83942844 21760250
L84087986 21881202
L84160558 22002154
L84233129 22244059
L84233129 22425488
L84160558 22667392
L84087986 22788345
L83942844 22909297
L83725129 22969773
L83362272 22969773
" />
<path d="M85539415 22123107
L85539415 22969773
" />
<path d="M85176558 21639297
L84813701 22546440
L85757129 22546440
" />
<path d="M86192558 21699773
L87208558 21699773
L86555415 22969773
" />
</g><text x="9012844.000000" y="44461500.000000"
textLength="4691017.000000" font-size="2032000.000000" lengthAdjust="spacingAndGlyphs"
text-anchor="middle" opacity="0">D50</text>
<g class="stroked-text"><desc>D50</desc>
<path d="M7162272 44401023
L7162272 43131023
L7525129 43131023
L7742844 43191500
L7887986 43312452
L7960558 43433404
L8033129 43675309
L8033129 43856738
L7960558 44098642
L7887986 44219595
L7742844 44340547
L7525129 44401023
L7162272 44401023
" />
<path d="M9411986 43131023
L8686272 43131023
L8613701 43735785
L8686272 43675309
L8831415 43614833
L9194272 43614833
L9339415 43675309
L9411986 43735785
L9484558 43856738
L9484558 44159119
L9411986 44280071
L9339415 44340547
L9194272 44401023
L8831415 44401023
L8686272 44340547
L8613701 44280071
" />
<path d="M10427986 43131023
L10573129 43131023
L10718272 43191500
L10790844 43251976
L10863415 43372928
L10935986 43614833
L10935986 43917214
L10863415 44159119
L10790844 44280071
L10718272 44340547
L10573129 44401023
L10427986 44401023
L10282844 44340547
L10210272 44280071
L10137701 44159119
L10065129 43917214
L10065129 43614833
L10137701 43372928
L10210272 43251976
L10282844 43191500
L10427986 43131023
" />
</g><text x="28062844.000000" y="39699000.000000"
textLength="4691017.000000" font-size="2032000.000000" lengthAdjust="spacingAndGlyphs"
text-anchor="middle" opacity="0">D51</text>
<g class="stroked-text"><desc>D51</desc>
<path d="M26212272 39638523
L26212272 38368523
L26575129 38368523
L26792844 38429000
L26937986 38549952
L27010558 38670904
L27083129 38912809
L27083129 39094238
L27010558 39336142
L26937986 39457095
L26792844 39578047
L26575129 39638523
L26212272 39638523
" />
<path d="M28461986 38368523
L27736272 38368523
L27663701 38973285
L27736272 38912809
L27881415 38852333
L28244272 38852333
L28389415 38912809
L28461986 38973285
L28534558 39094238
L28534558 39396619
L28461986 39517571
L28389415 39578047
L28244272 39638523
L27881415 39638523
L27736272 39578047
L27663701 39517571
" />
<path d="M29985986 39638523
L29115129 39638523
" />
<path d="M29550558 39638523
L29550558 38368523
L29405415 38549952
L29260272 38670904
L29115129 38731380
" />
</g><text x="47112844.000000" y="37317750.000000"
textLength="4691017.000000" font-size="2032000.000000" lengthAdjust="spacingAndGlyphs"
text-anchor="middle" opacity="0">D52</text>
<g class="stroked-text"><desc>D52</desc>
<path d="M45262272 37257273
L45262272 35987273
L45625129 35987273
L45842844 36047750
L45987986 36168702
L46060558 36289654
L46133129 36531559
L46133129 36712988
L46060558 36954892
L45987986 37075845
L45842844 37196797
L45625129 37257273
L45262272 37257273
" />
<path d="M47511986 35987273
L46786272 35987273
L46713701 36592035
L46786272 36531559
L46931415 36471083
L47294272 36471083
L47439415 36531559
L47511986 36592035
L47584558 36712988
L47584558 37015369
L47511986 37136321
L47439415 37196797
L47294272 37257273
L46931415 37257273
L46786272 37196797
L46713701 37136321
" />
<path d="M48165129 36108226
L48237701 36047750
L48382844 35987273
L48745701 35987273
L48890844 36047750
L48963415 36108226
L49035986 36229178
L49035986 36350130
L48963415 36531559
L48092558 37257273
L49035986 37257273
" />
</g><text x="66162844.000000" y="39699000.000000"
textLength="4691017.000000" font-size="2032000.000000" lengthAdjust="spacingAndGlyphs"
text-anchor="middle" opacity="0">D53</text>
<g class="stroked-text"><desc>D53</desc>
<path d="M64312272 39638523
L64312272 38368523
L64675129 38368523
L64892844 38429000
L65037986 38549952
L65110558 38670904
L65183129 38912809
L65183129 39094238
L65110558 39336142
L65037986 39457095
L64892844 39578047
L64675129 39638523
L64312272 39638523
" />
<path d="M66561986 38368523
L65836272 38368523
L65763701 38973285
L65836272 38912809
L65981415 38852333
L66344272 38852333
L66489415 38912809
L66561986 38973285
L66634558 39094238
L66634558 39396619
L66561986 39517571
L66489415 39578047
L66344272 39638523
L65981415 39638523
L65836272 39578047
L65763701 39517571
" />
<path d="M67142558 38368523
L68085986 38368523
L67577986 38852333
L67795701 38852333
L67940844 38912809
L68013415 38973285
L68085986 39094238
L68085986 39396619
L68013415 39517571
L67940844 39578047
L67795701 39638523
L67360272 39638523
L67215129 39578047
L67142558 39517571
" />
</g><text x="85212844.000000" y="42080250.000000"
textLength="4691017.000000" font-size="2032000.000000" lengthAdjust="spacingAndGlyphs"
text-anchor="middle" opacity="0">D54</text>
<g class="stroked-text"><desc>D54</desc>
<path d="M83362272 42019773
L83362272 40749773
L83725129 40749773
L83942844 40810250
L84087986 40931202
L84160558 41052154
L84233129 41294059
L84233129 41475488
L84160558 41717392
L84087986 41838345
L83942844 41959297
L83725129 42019773
L83362272 42019773
" />
<path d="M85611986 40749773
L84886272 40749773
L84813701 41354535
L84886272 41294059
L85031415 41233583
L85394272 41233583
L85539415 41294059
L85611986 41354535
L85684558 41475488
L85684558 41777869
L85611986 41898821
L85539415 41959297
L85394272 42019773
L85031415 42019773
L84886272 41959297
L84813701 41898821
" />
<path d="M86990844 41173107
L86990844 42019773
" />
<path d="M86627986 40689297
L86265129 41596440
L87208558 41596440
" />
</g><text x="9012844.000000" y="63511500.000000"
textLength="4691017.000000" font-size="2032000.000000" lengthAdjust="spacingAndGlyphs"
text-anchor="middle" opacity="0">D57</text>
<g class="stroked-text"><desc>D57</desc>
<path d="M7162272 63451023
L7162272 62181023
L7525129 62181023
L7742844 62241500
L7887986 62362452
L7960558 62483404
L8033129 62725309
L8033129 62906738
L7960558 63148642
L7887986 63269595
L7742844 63390547
L7525129 63451023
L7162272 63451023
" />
<path d="M9411986 62181023
L8686272 62181023
L8613701 62785785
L8686272 62725309
L8831415 62664833
L9194272 62664833
L9339415 62725309
L9411986 62785785
L9484558 62906738
L9484558 63209119
L9411986 63330071
L9339415 63390547
L9194272 63451023
L8831415 63451023
L8686272 63390547
L8613701 63330071
" />
<path d="M9992558 62181023
L11008558 62181023
L10355415 63451023
" />
</g><text x="28062844.000000" y="58749000.000000"
textLength="4691017.000000" font-size="2032000.000000" lengthAdjust="spacingAndGlyphs"
text-anchor="middle" opacity="0">D58</text>
<g class="stroked-text"><desc>D58</desc>
<path d="M26212272 58688523
L26212272 57418523
L26575129 57418523
L26792844 57479000
L26937986 57599952
L27010558 57720904
L27083129 57962809
L27083129 58144238
L27010558 58386142
L26937986 58507095
L26792844 58628047
L26575129 58688523
L26212272 58688523
" />
<path d="M28461986 57418523
L27736272 57418523
L27663701 58023285
L27736272 57962809
L27881415 57902333
L28244272 57902333
L28389415 57962809
L28461986 58023285
L28534558 58144238
L28534558 58446619
L28461986 58567571
L28389415 58628047
L28244272 58688523
L27881415 58688523
L27736272 58628047
L27663701 58567571
" />
<path d="M29405415 57962809
L29260272 57902333
L29187701 57841857
L29115129 57720904
L29115129 57660428
L29187701 57539476
L29260272 57479000
L29405415 57418523
L29695701 57418523
L29840844 57479000
L29913415 57539476
L29985986 57660428
L29985986 57720904
L29913415 57841857
L29840844 57902333
L29695701 57962809
L29405415 57962809
L29260272 58023285
L29187701 58083761
L29115129 58204714
L29115129 58446619
L29187701 58567571
L29260272 58628047
L29405415 58688523
L29695701 58688523
L29840844 58628047
L29913415 58567571
L29985986 58446619
L29985986 58204714
L29913415 58083761
L29840844 58023285
L29695701 57962809
" />
</g><text x="47112844.000000" y="56367750.000000"
textLength="4691017.000000" font-size="2032000.000000" lengthAdjust="spacingAndGlyphs"
text-anchor="middle" opacity="0">D59</text>
<g class="stroked-text"><desc>D59</desc>
<path d="M45262272 56307273
L45262272 55037273
L45625129 55037273
L45842844 55097750
L45987986 55218702
L46060558 55339654
L46133129 55581559
L46133129 55762988
L46060558 56004892
L45987986 56125845
L45842844 56246797
L45625129 56307273
L45262272 56307273
" />
<path d="M47511986 55037273
L46786272 55037273
L46713701 55642035
L46786272 55581559
L46931415 55521083
L47294272 55521083
L47439415 55581559
L47511986 55642035
L47584558 55762988
L47584558 56065369
L47511986 56186321
L47439415 56246797
L47294272 56307273
L46931415 56307273
L46786272 56246797
L46713701 56186321
" />
<path d="M48310272 56307273
L48600558 56307273
L48745701 56246797
L48818272 56186321
L48963415 56004892
L49035986 55762988
L49035986 55279178
L48963415 55158226
L48890844 55097750
L48745701 55037273
L48455415 55037273
L48310272 55097750
L48237701 55158226
L48165129 55279178
L48165129 55581559
L48237701 55702511
L48310272 55762988
L48455415 55823464
L48745701 55823464
L48890844 55762988
L48963415 55702511
L49035986 55581559
" />
</g><text x="66162844.000000" y="58749000.000000"
textLength="4691017.000000" font-size="2032000.000000" lengthAdjust="spacingAndGlyphs"
text-anchor="middle" opacity="0">D60</text>
<g class="stroked-text"><desc>D60</desc>
<path d="M64312272 58688523
L64312272 57418523
L64675129 57418523
L64892844 57479000
L65037986 57599952
L65110558 57720904
L65183129 57962809
L65183129 58144238
L65110558 58386142
L65037986 58507095
L64892844 58628047
L64675129 58688523
L64312272 58688523
" />
<path d="M66489415 57418523
L66199129 57418523
L66053986 57479000
L65981415 57539476
L65836272 57720904
L65763701 57962809
L65763701 58446619
L65836272 58567571
L65908844 58628047
L66053986 58688523
L66344272 58688523
L66489415 58628047
L66561986 58567571
L66634558 58446619
L66634558 58144238
L66561986 58023285
L66489415 57962809
L66344272 57902333
L66053986 57902333
L65908844 57962809
L65836272 58023285
L65763701 58144238
" />
<path d="M67577986 57418523
L67723129 57418523
L67868272 57479000
L67940844 57539476
L68013415 57660428
L68085986 57902333
L68085986 58204714
L68013415 58446619
L67940844 58567571
L67868272 58628047
L67723129 58688523
L67577986 58688523
L67432844 58628047
L67360272 58567571
L67287701 58446619
L67215129 58204714
L67215129 57902333
L67287701 57660428
L67360272 57539476
L67432844 57479000
L67577986 57418523
" />
</g><text x="85212844.000000" y="61130250.000000"
textLength="4691017.000000" font-size="2032000.000000" lengthAdjust="spacingAndGlyphs"
text-anchor="middle" opacity="0">D61</text>
<g class="stroked-text"><desc>D61</desc>
<path d="M83362272 61069773
L83362272 59799773
L83725129 59799773
L83942844 59860250
L84087986 59981202
L84160558 60102154
L84233129 60344059
L84233129 60525488
L84160558 60767392
L84087986 60888345
L83942844 61009297
L83725129 61069773
L83362272 61069773
" />
<path d="M85539415 59799773
L85249129 59799773
L85103986 59860250
L85031415 59920726
L84886272 60102154
L84813701 60344059
L84813701 60827869
L84886272 60948821
L84958844 61009297
L85103986 61069773
L85394272 61069773
L85539415 61009297
L85611986 60948821
L85684558 60827869
L85684558 60525488
L85611986 60404535
L85539415 60344059
L85394272 60283583
L85103986 60283583
L84958844 60344059
L84886272 60404535
L84813701 60525488
" />
<path d="M87135986 61069773
L86265129 61069773
" />
<path d="M86700558 61069773
L86700558 59799773
L86555415 59981202
L86410272 60102154
L86265129 60162630
" />
</g><g transform="rotate(-170.000000 73407851.000000 81373118.000000)">
<text x="73407851.000000" y="82008118.000000"
textLength="4691017.000000" font-size="2032000.000000" lengthAdjust="spacingAndGlyphs"
text-anchor="middle" opacity="0">D62</text>
</g>
<g class="stroked-text"><desc>D62</desc>
<path d="M75330073 81128670
L75109539 82379376
L74752195 82316367
L74548290 82219004
L74426355 82074685
L74375889 81942968
L74346427 81692137
L74377932 81513464
L74491407 81287837
L74583879 81181324
L74747820 81087413
L74972728 81065661
L75330073 81128670
" />
<path d="M72965472 82001319
L73251348 82051727
L73404787 82017373
L73486758 81970418
L73661200 81816949
L73774676 81591321
L73858688 81114862
L73808222 80983145
L73747255 80910986
L73614819 80826225
L73328943 80775817
L73175504 80810171
L73093533 80857126
L73001061 80963639
L72948553 81261426
L72999019 81393143
L73059986 81465303
L73192423 81550064
L73478298 81600471
L73631738 81566118
L73713708 81519162
L73806180 81412649
" />
<path d="M72271786 81756186
L72189816 81803141
L72036376 81837495
L71679032 81774485
L71546596 81689724
L71485628 81617565
L71435163 81485848
L71456166 81366733
L71559139 81200663
L72542785 80637196
L71613690 80473372
" />
</g><text x="54107844.000000" y="77066000.000000"
textLength="4691017.000000" font-size="2032000.000000" lengthAdjust="spacingAndGlyphs"
text-anchor="middle" opacity="0">D67</text>
<g class="stroked-text"><desc>D67</desc>
<path d="M52257272 77005523
L52257272 75735523
L52620129 75735523
L52837844 75796000
L52982986 75916952
L53055558 76037904
L53128129 76279809
L53128129 76461238
L53055558 76703142
L52982986 76824095
L52837844 76945047
L52620129 77005523
L52257272 77005523
" />
<path d="M54434415 75735523
L54144129 75735523
L53998986 75796000
L53926415 75856476
L53781272 76037904
L53708701 76279809
L53708701 76763619
L53781272 76884571
L53853844 76945047
L53998986 77005523
L54289272 77005523
L54434415 76945047
L54506986 76884571
L54579558 76763619
L54579558 76461238
L54506986 76340285
L54434415 76279809
L54289272 76219333
L53998986 76219333
L53853844 76279809
L53781272 76340285
L53708701 76461238
" />
<path d="M55087558 75735523
L56103558 75735523
L55450415 77005523
" />
</g></g>
<g style="fill:#C2C2C2; fill-opacity:0.0; 
stroke:#C2C2C2; stroke-width:150000.000000; stroke-opacity:1; 
stroke-linecap:round; stroke-linejoin:round;">
<text x="71189844.000000" y="63621000.000000"
textLength="2264160.000000" font-size="1333333.000000" lengthAdjust="spacingAndGlyphs"
text-anchor="middle" opacity="0">Q1</text>
<g class="stroked-text"><desc>Q1</desc>
<path d="M71094605 63668619
L70999367 63621000
L70904129 63525761
L70761272 63382904
L70666034 63335285
L70570796 63335285
" />
<path d="M70618415 63573380
L70523177 63525761
L70427939 63430523
L70380320 63240047
L70380320 62906714
L70427939 62716238
L70523177 62621000
L70618415 62573380
L70808891 62573380
L70904129 62621000
L70999367 62716238
L71046986 62906714
L71046986 63240047
L70999367 63430523
L70904129 63525761
L70808891 63573380
L70618415 63573380
" />
<path d="M71999367 63573380
L71427939 63573380
" />
<path d="M71713653 63573380
L71713653 62573380
L71618415 62716238
L71523177 62811476
L71427939 62859095
" />
</g></g>
<g style="fill:#C2C2C2; fill-opacity:0.0; 
stroke:#C2C2C2; stroke-width:203200.000000; stroke-opacity:1; 
stroke-linecap:round; stroke-linejoin:round;">
<g transform="rotate(-150.000000 101237253.000000 74442857.000000)">
<text x="101237253.000000" y="75077857.000000"
textLength="4621857.000000" font-size="2032000.000000" lengthAdjust="spacingAndGlyphs"
text-anchor="middle" opacity="0">D69</text>
</g>
<g class="stroked-text"><desc>D69</desc>
<path d="M103127156 74870590
L102492156 75970442
L102177913 75789014
L102019605 75627783
L101954384 75450463
L101952011 75309430
L102010115 75063648
L102100829 74906527
L102284630 74733317
L102407955 74664855
L102594129 74632678
L102812913 74689161
L103127156 74870590
" />
<path d="M100606695 74881871
L100858090 75027014
L101014026 75047211
L101107112 75031123
L101323524 74946573
L101507325 74773363
L101749230 74354371
L101746857 74213338
L101714247 74124678
L101618787 73999733
L101367393 73854590
L101211457 73834392
L101118370 73850481
L100995045 73918943
L100843855 74180812
L100846228 74321846
L100878838 74410506
L100974297 74535451
L101225692 74680594
L101381628 74700791
L101474715 74684703
L101598039 74616241
" />
<path d="M100487511 73346590
L100236116 73201447
L100080181 73181250
L99987094 73197338
L99770682 73281888
L99586881 73455098
L99344976 73874089
L99347349 74015123
L99379959 74103783
L99475419 74228728
L99726813 74373871
L99882749 74394068
L99975836 74377980
L100099161 74309518
L100250351 74047648
L100247979 73906615
L100215368 73817955
L100119909 73693010
L99868514 73547867
L99712578 73527670
L99619492 73543758
L99496167 73612220
" />
</g><g transform="rotate(-145.000000 118849168.000000 86136907.000000)">
<text x="118849168.000000" y="86771907.000000"
textLength="4691017.000000" font-size="2032000.000000" lengthAdjust="spacingAndGlyphs"
text-anchor="middle" opacity="0">D70</text>
</g>
<g class="stroked-text"><desc>D70</desc>
<path d="M120694600 86727728
L119966158 87768051
L119668923 87559925
L119525270 87385510
L119475751 87203181
L119485679 87062478
L119564983 86822696
L119669046 86674078
L119867244 86517546
L119996067 86460093
L120184336 86444265
L120397365 86519602
L120694600 86727728
" />
<path d="M118836664 86977171
L118004406 86394418
L119267871 85728722
" />
<path d="M117291042 85894915
L117172148 85811664
L117087941 85678874
L117063182 85587710
L117073110 85447006
L117152414 85207224
L117325853 84959528
L117524051 84802997
L117652873 84745544
L117747008 84737630
L117900590 84771341
L118019484 84854592
L118103690 84987381
L118128449 85078546
L118118521 85219249
L118039217 85459031
L117865778 85706727
L117667581 85863259
L117538758 85920712
L117444623 85928626
L117291042 85894915
" />
</g><g transform="rotate(-150.000000 91712253.000000 90940857.000000)">
<text x="91712253.000000" y="91575857.000000"
textLength="4691017.000000" font-size="2032000.000000" lengthAdjust="spacingAndGlyphs"
text-anchor="middle" opacity="0">D71</text>
</g>
<g class="stroked-text"><desc>D71</desc>
<path d="M93602156 91368590
L92967156 92468442
L92652913 92287014
L92494605 92125783
L92429384 91948463
L92427011 91807430
L92485115 91561648
L92575829 91404527
L92759630 91231317
L92882955 91162855
L93069129 91130678
L93287913 91187161
L93602156 91368590
" />
<path d="M91773031 91779014
L90893149 91271014
L92093787 90497733
" />
<path d="M90334024 89481733
L91088208 89917161
" />
<path d="M90711116 89699447
L90076116 90799299
L90292528 90714749
L90478701 90682573
L90634637 90702770
" />
</g><g transform="rotate(-145.000000 107922518.000000 101741969.000000)">
<text x="107922518.000000" y="102376969.000000"
textLength="4691017.000000" font-size="2032000.000000" lengthAdjust="spacingAndGlyphs"
text-anchor="middle" opacity="0">D72</text>
</g>
<g class="stroked-text"><desc>D72</desc>
<path d="M109767950 102332790
L109039508 103373113
L108742273 103164987
L108598620 102990572
L108549101 102808243
L108559029 102667540
L108638333 102427758
L108742396 102279140
L108940594 102122608
L109069417 102065155
L109257686 102049327
L109470715 102124664
L109767950 102332790
" />
<path d="M107910014 102582233
L107077756 101999480
L108341221 101333784
" />
<path d="M106731002 101609025
L106636867 101616938
L106483286 101583227
L106186050 101375101
L106101844 101242311
L106077085 101151147
L106087013 101010443
L106156389 100911365
L106319899 100804372
L107449516 100709405
L106676704 100168277
" />
</g></g>
<g style="fill:#C2C2C2; fill-opacity:0.0; 
stroke:#C2C2C2; stroke-width:150000.000000; stroke-opacity:1; 
stroke-linecap:round; stroke-linejoin:round;">
<text x="15997844.000000" y="13140000.000000"
textLength="1978446.000000" font-size="1333333.000000" lengthAdjust="spacingAndGlyphs"
text-anchor="middle" opacity="0">J4</text>
<g class="stroked-text"><desc>J4</desc>
<path d="M15664510 12092380
L15664510 12806666
L15616891 12949523
L15521653 13044761
L15378796 13092380
L15283558 13092380
" />
<path d="M16569272 12425714
L16569272 13092380
" />
<path d="M16331177 12044761
L16093082 12759047
L16712129 12759047
" />
</g><text x="15997844.000000" y="15299000.000000"
textLength="1909286.000000" font-size="1333333.000000" lengthAdjust="spacingAndGlyphs"
text-anchor="middle" opacity="0">J5</text>
<g class="stroked-text"><desc>J5</desc>
<path d="M15664510 14251380
L15664510 14965666
L15616891 15108523
L15521653 15203761
L15378796 15251380
L15283558 15251380
" />
<path d="M16616891 14251380
L16140701 14251380
L16093082 14727571
L16140701 14679952
L16235939 14632333
L16474034 14632333
L16569272 14679952
L16616891 14727571
L16664510 14822809
L16664510 15060904
L16616891 15156142
L16569272 15203761
L16474034 15251380
L16235939 15251380
L16140701 15203761
L16093082 15156142
" />
</g><g >
</g>
<g >
</g>
<g >
</g>
<g >
</g>
<g >
</g>
<g >
</g>
<g >
</g>
<g >
</g>
<g >
</g>
<g >
</g>
<g >
</g>
<g >
</g>
<g >
</g>
<g >
</g>
<g >
</g>
<g >
</g>
<g >
</g>
<g >
</g>
<g >
</g>
<g >
</g>
<g >
</g>
<g >
</g>
<g >
</g>
<g >
</g>
<g >
</g>
<g >
</g>
<g >
</g>
<g >
</g>
<g >
</g>
<g >
</g>
<g >
</g>
<g >
</g>
<g >
</g>
<g >
</g>
<g >
</g>
<g >
</g>
<g >
</g>
<g >
</g>
<g >
</g>
<g >
</g>
<g >
</g>
<g >
</g>
<g >
</g>
<g >
</g>
<g >
</g>
<g >
</g>
<g >
</g>
<g >
</g>
<g >
</g>
<g >
</g>
<g >
</g>
<g >
</g>
<g >
</g>
<g >
</g>
<g >
</g>
<g >
</g>
<g >
</g>
<g >
</g>
<g >
</g>
<g >
</g>
<g >
</g>
<g >
</g>
<g >
</g>
<g >
</g>
<g >
</g>
<g >
</g>
<g >
</g>
<g >
</g>
<g >
</g>
<g >
</g>
<g >
</g>
<g >
</g>
<g >
</g>
<g >
</g>
<g >
</g>
<g >
</g>
<g >
</g>
<g >
</g>
<g >
</g>
<g >
</g>
<g >
</g>
<g >
</g>
<g >
</g>
<g >
</g>
<g >
</g>
<g >
</g>
<g >
</g>
<g >
</g>
<g >
</g>
<g >
</g>
<g >
</g>
<g >
</g>
<g >
</g>
<g >
</g>
<g >
</g>
<g >
</g>
<g >
</g>
<g >
</g>
<g >
</g>
<g >
</g>
<g >
</g>
<g >
</g>
<g >
</g>
<g >
</g>
<g >
</g>
<g >
</g>
<g >
</g>
<g >
</g>
<g >
</g>
<g >
</g>
</g>
<g style="fill:#000000; fill-opacity:0.0; 
stroke:#000000; stroke-width:150000.000000; stroke-opacity:1; 
stroke-linecap:round; stroke-linejoin:round;">
</g>
<g style="fill:#D0D2CD; fill-opacity:0.0; 
stroke:#D0D2CD; stroke-width:150000.000000; stroke-opacity:1; 
stroke-linecap:round; stroke-linejoin:round;">
<path d="M75179844 75000
L89106602 1088312
" />
<path d="M746121.650199 7275743.772803 A909044.000000 909044.000000 0.0 0 0 75340.977506 8177996.000616" />
<path d="M63616406 84932451
L81102506 91207368
" />
<path d="M45075341 68122114
L45075341 80658641
" />
<path d="M37587844 75000
L66543844 75000
" />
<path d="M90106602 2088312
L90107844 10621000
" />
<path d="M132139578.057794 82907387.530872 A2539992.000000 2539992.000000 0.0 0 0 131515860.057812 79369885.917439" />
<path d="M37587844 75000
L746119 7275734
" />
<path d="M131515860 79369886
L115399655 67846087
" />
<path d="M94203274 55561000
L94203274 11612040
" />
<path d="M45962995 81636884
L63616406 84932451
" />
<path d="M90107844 10621000
L93107844 10621000
" />
<path d="M110054946 109601495
L97599634 100863229
" />
<path d="M45075397.059124 80658640.980559 A983247.000000 983247.000000 0.0 0 0 45962995.035283 81636883.639020" />
<path d="M115399655 67846087
L94203274 55561000
" />
<path d="M97599634 100863229
L81102506 91207368
" />
<path d="M75341 8177996
L75341 67122114
" />
<path d="M113633383 109288422
L132139623 82907419
" />
<path d="M110054963.671401 109601473.939814 A2540016.000000 2540016.000000 0.0 0 0 113633382.984144 109288421.986695" />
<path d="M75330.000098 67122114.000154 A1000014.000000 1000014.000000 0.0 0 0 1075341.000000 68122113.999995" />
<path d="M1075341 68122114
L45075341 68122114
" />
<path d="M66543844 75000
L75179844 75000
" />
<path d="M94203249.012318 11612042.505999 A1100900.000000 1100900.000000 0.0 0 0 93107844.000000 10621000.000000" />
<path d="M90106631.999928 2088312.000360 A999988.000000 999988.000000 0.0 0 0 89106602.000000 1088312.000882" />
<g >
</g>
<g >
</g>
<g >
</g>
<g >
</g>
<g >
</g>
<g >
</g>
<g >
</g>
<g >
</g>
<g >
</g>
<g >
</g>
<g >
</g>
<g >
</g>
<g >
</g>
<g >
</g>
<g >
</g>
<g >
</g>
<g >
</g>
<g >
</g>
<g >
</g>
<g >
</g>
<g >
</g>
<g >
</g>
<g >
</g>
<g >
</g>
<g >
</g>
<g >
</g>
<g >
</g>
<g >
</g>
<g >
</g>
<g >
</g>
<g >
</g>
<g >
</g>
<g >
</g>
<g >
</g>
<g >
</g>
<g >
</g>
<g >
</g>
<g >
</g>
<g >
</g>
<g >
</g>
<g >
</g>
<g >
</g>
<g >
</g>
<g >
</g>
<g >
</g>
<g >
</g>
<g >
</g>
<g >
</g>
<g >
</g>
<g >
</g>
<g >
</g>
<g >
</g>
<g >
</g>
<g >
</g>
<g >
</g>
<g >
</g>
<g >
</g>
<g >
</g>
<g >
</g>
<g >
</g>
<g >
</g>
<g >
</g>
<g >
</g>
<g >
</g>
<g >
</g>
<g >
</g>
<g >
</g>
<g >
</g>
<g >
</g>
<g >
</g>
<g >
</g>
<g >
</g>
<g >
</g>
<g >
</g>
<g >
</g>
<g >
</g>
<g >
</g>
<g >
</g>
<g >
</g>
<g >
</g>
<g >
</g>
<g >
</g>
<g >
</g>
<g >
</g>
<g >
</g>
<g >
</g>
<g >
</g>
<g >
</g>
<g >
</g>
<g >
</g>
<g >
</g>
<g >
</g>
<g >
</g>
<g >
</g>
<g >
</g>
<g >
</g>
<g >
</g>
<g >
</g>
<g >
</g>
<g >
</g>
<g >
</g>
<g >
</g>
<g >
</g>
<g >
</g>
<g >
</g>
<g >
</g>
<g >
</g>
<g >
</g>
<g >
</g>
<g >
</g>
</g> 
</svg>
