<?xml version="1.0" standalone="no"?>
 <!DOCTYPE svg PUBLIC "-//W3C//DTD SVG 1.1//EN" 
 "http://www.w3.org/Graphics/SVG/1.1/DTD/svg11.dtd"> 
<svg
  xmlns:svg="http://www.w3.org/2000/svg"
  xmlns="http://www.w3.org/2000/svg"
  xmlns:xlink="http://www.w3.org/1999/xlink"
  version="1.1"
  width="13.266420cm" height="11.026140cm" viewBox="0 0 132664200 110261400">
<title>SVG Picture created as ergodash-Edge_Cuts.svg date 2023/08/13 10:04:29 </title>
  <desc>Picture generated by PCBNEW </desc>
<g style="fill:#000000; fill-opacity:1.000000;stroke:#000000; stroke-opacity:1.000000;
stroke-linecap:round; stroke-linejoin:round;"
 transform="translate(0 0) scale(1 1)">
</g>
<g style="fill:#000000; fill-opacity:0.0; 
stroke:#000000; stroke-width:0.000000; stroke-opacity:1; 
stroke-linecap:round; stroke-linejoin:round;">
</g>
<g style="fill:#D0D2CD; fill-opacity:0.0; 
stroke:#D0D2CD; stroke-width:0.000000; stroke-opacity:1; 
stroke-linecap:round; stroke-linejoin:round;">
</g>
<g style="fill:#D0D2CD; fill-opacity:0.0; 
stroke:#D0D2CD; stroke-width:150000.000000; stroke-opacity:1; 
stroke-linecap:round; stroke-linejoin:round;">
<path d="M75179844 75000
L89106602 1088312
" />
<path d="M746121.650199 7275743.772803 A909044.000000 909044.000000 0.0 0 0 75340.977506 8177996.000616" />
<path d="M63616406 84932451
L81102506 91207368
" />
<path d="M45075341 68122114
L45075341 80658641
" />
<path d="M37587844 75000
L66543844 75000
" />
<path d="M90106602 2088312
L90107844 10621000
" />
<path d="M132139578.057794 82907387.530872 A2539992.000000 2539992.000000 0.0 0 0 131515860.057812 79369885.917439" />
<path d="M37587844 75000
L746119 7275734
" />
<path d="M131515860 79369886
L115399655 67846087
" />
<path d="M94203274 55561000
L94203274 11612040
" />
<path d="M45962995 81636884
L63616406 84932451
" />
<path d="M90107844 10621000
L93107844 10621000
" />
<path d="M110054946 109601495
L97599634 100863229
" />
<path d="M45075397.059124 80658640.980559 A983247.000000 983247.000000 0.0 0 0 45962995.035283 81636883.639020" />
<path d="M115399655 67846087
L94203274 55561000
" />
<path d="M97599634 100863229
L81102506 91207368
" />
<path d="M75341 8177996
L75341 67122114
" />
<path d="M113633383 109288422
L132139623 82907419
" />
<path d="M110054963.671401 109601473.939814 A2540016.000000 2540016.000000 0.0 0 0 113633382.984144 109288421.986695" />
<path d="M75330.000098 67122114.000154 A1000014.000000 1000014.000000 0.0 0 0 1075341.000000 68122113.999995" />
<path d="M1075341 68122114
L45075341 68122114
" />
<path d="M66543844 75000
L75179844 75000
" />
<path d="M94203249.012318 11612042.505999 A1100900.000000 1100900.000000 0.0 0 0 93107844.000000 10621000.000000" />
<path d="M90106631.999928 2088312.000360 A999988.000000 999988.000000 0.0 0 0 89106602.000000 1088312.000882" />
<g >
</g>
<g >
</g>
<g >
</g>
<g >
</g>
<g >
</g>
<g >
</g>
<g >
</g>
<g >
</g>
<g >
</g>
<g >
</g>
<g >
</g>
<g >
</g>
<g >
</g>
<g >
</g>
<g >
</g>
<g >
</g>
<g >
</g>
<g >
</g>
<g >
</g>
<g >
</g>
<g >
</g>
<g >
</g>
<g >
</g>
<g >
</g>
<g >
</g>
<g >
</g>
<g >
</g>
<g >
</g>
<g >
</g>
<g >
</g>
<g >
</g>
<g >
</g>
<g >
</g>
<g >
</g>
<g >
</g>
<g >
</g>
<g >
</g>
<g >
</g>
<g >
</g>
<g >
</g>
<g >
</g>
<g >
</g>
<g >
</g>
<g >
</g>
<g >
</g>
<g >
</g>
<g >
</g>
<g >
</g>
<g >
</g>
<g >
</g>
<g >
</g>
<g >
</g>
<g >
</g>
<g >
</g>
<g >
</g>
<g >
</g>
<g >
</g>
<g >
</g>
<g >
</g>
<g >
</g>
<g >
</g>
<g >
</g>
<g >
</g>
<g >
</g>
<g >
</g>
<g >
</g>
<g >
</g>
<g >
</g>
<g >
</g>
<g >
</g>
<g >
</g>
<g >
</g>
<g >
</g>
<g >
</g>
<g >
</g>
<g >
</g>
<g >
</g>
<g >
</g>
<g >
</g>
<g >
</g>
<g >
</g>
<g >
</g>
<g >
</g>
<g >
</g>
<g >
</g>
<g >
</g>
<g >
</g>
<g >
</g>
<g >
</g>
<g >
</g>
<g >
</g>
<g >
</g>
<g >
</g>
<g >
</g>
<g >
</g>
<g >
</g>
<g >
</g>
<g >
</g>
<g >
</g>
<g >
</g>
<g >
</g>
<g >
</g>
<g >
</g>
<g >
</g>
<g >
</g>
<g >
</g>
<g >
</g>
<g >
</g>
<g >
</g>
<g >
</g>
</g> 
</svg>
