<?xml version="1.0" standalone="no"?>
 <!DOCTYPE svg PUBLIC "-//W3C//DTD SVG 1.1//EN" 
 "http://www.w3.org/Graphics/SVG/1.1/DTD/svg11.dtd"> 
<svg
  xmlns:svg="http://www.w3.org/2000/svg"
  xmlns="http://www.w3.org/2000/svg"
  xmlns:xlink="http://www.w3.org/1999/xlink"
  version="1.1"
  width="13.266420cm" height="11.026140cm" viewBox="0 0 132664200 110261400">
<title>SVG Picture created as ergodash-User_Eco2.svg date 2023/08/13 10:04:29 </title>
  <desc>Picture generated by PCBNEW </desc>
<g style="fill:#000000; fill-opacity:1.000000;stroke:#000000; stroke-opacity:1.000000;
stroke-linecap:round; stroke-linejoin:round;"
 transform="translate(0 0) scale(1 1)">
</g>
<g style="fill:#000000; fill-opacity:0.0; 
stroke:#000000; stroke-width:0.000000; stroke-opacity:1; 
stroke-linecap:round; stroke-linejoin:round;">
</g>
<g style="fill:#D8C852; fill-opacity:0.0; 
stroke:#D8C852; stroke-width:0.000000; stroke-opacity:1; 
stroke-linecap:round; stroke-linejoin:round;">
</g>
<g style="fill:#D8C852; fill-opacity:0.0; 
stroke:#D8C852; stroke-width:150000.000000; stroke-opacity:1; 
stroke-linecap:round; stroke-linejoin:round;">
<path d="M16012844 27966500
L2012844 27966500
" />
<path d="M2012844 27966500
L2012844 13966500
" />
<path d="M18012844 11966500
L18012844 29966500
" />
<path d="M18012844 29966500
L12844 29966500
" />
<path d="M2012844 13966500
L16012844 13966500
" />
<path d="M16012844 13966500
L16012844 27966500
" />
<path d="M12844 29966500
L12844 11966500
" />
<path d="M12844 11966500
L18012844 11966500
" />
<path d="M16012844 47016500
L2012844 47016500
" />
<path d="M2012844 47016500
L2012844 33016500
" />
<path d="M16012844 33016500
L16012844 47016500
" />
<path d="M2012844 33016500
L16012844 33016500
" />
<path d="M18012844 49016500
L12844 49016500
" />
<path d="M12844 31016500
L18012844 31016500
" />
<path d="M18012844 31016500
L18012844 49016500
" />
<path d="M12844 49016500
L12844 31016500
" />
<path d="M12844 68066500
L12844 50066500
" />
<path d="M16012844 52066500
L16012844 66066500
" />
<path d="M2012844 52066500
L16012844 52066500
" />
<path d="M16012844 66066500
L2012844 66066500
" />
<path d="M2012844 66066500
L2012844 52066500
" />
<path d="M18012844 68066500
L12844 68066500
" />
<path d="M18012844 50066500
L18012844 68066500
" />
<path d="M12844 50066500
L18012844 50066500
" />
<path d="M19062844 26254000
L37062844 26254000
" />
<path d="M37062844 44254000
L19062844 44254000
" />
<path d="M21062844 28254000
L35062844 28254000
" />
<path d="M19062844 44254000
L19062844 26254000
" />
<path d="M35062844 28254000
L35062844 42254000
" />
<path d="M21062844 42254000
L21062844 28254000
" />
<path d="M35062844 42254000
L21062844 42254000
" />
<path d="M37062844 26254000
L37062844 44254000
" />
<path d="M35062844 47304000
L35062844 61304000
" />
<path d="M37062844 63304000
L19062844 63304000
" />
<path d="M19062844 63304000
L19062844 45304000
" />
<path d="M21062844 61304000
L21062844 47304000
" />
<path d="M21062844 47304000
L35062844 47304000
" />
<path d="M37062844 45304000
L37062844 63304000
" />
<path d="M19062844 45304000
L37062844 45304000
" />
<path d="M35062844 61304000
L21062844 61304000
" />
<path d="M40112844 6822750
L54112844 6822750
" />
<path d="M38112844 22822750
L38112844 4822750
" />
<path d="M56112844 4822750
L56112844 22822750
" />
<path d="M40112844 20822750
L40112844 6822750
" />
<path d="M54112844 6822750
L54112844 20822750
" />
<path d="M54112844 20822750
L40112844 20822750
" />
<path d="M56112844 22822750
L38112844 22822750
" />
<path d="M38112844 4822750
L56112844 4822750
" />
<path d="M56112844 41872750
L38112844 41872750
" />
<path d="M38112844 41872750
L38112844 23872750
" />
<path d="M38112844 23872750
L56112844 23872750
" />
<path d="M54112844 25872750
L54112844 39872750
" />
<path d="M40112844 39872750
L40112844 25872750
" />
<path d="M56112844 23872750
L56112844 41872750
" />
<path d="M54112844 39872750
L40112844 39872750
" />
<path d="M40112844 25872750
L54112844 25872750
" />
<path d="M40112844 58922750
L40112844 44922750
" />
<path d="M40112844 44922750
L54112844 44922750
" />
<path d="M56112844 42922750
L56112844 60922750
" />
<path d="M56112844 60922750
L38112844 60922750
" />
<path d="M38112844 42922750
L56112844 42922750
" />
<path d="M54112844 44922750
L54112844 58922750
" />
<path d="M54112844 58922750
L40112844 58922750
" />
<path d="M38112844 60922750
L38112844 42922750
" />
<path d="M57162844 25204000
L57162844 7204000
" />
<path d="M73162844 23204000
L59162844 23204000
" />
<path d="M59162844 9204000
L73162844 9204000
" />
<path d="M75162844 25204000
L57162844 25204000
" />
<path d="M57162844 7204000
L75162844 7204000
" />
<path d="M59162844 23204000
L59162844 9204000
" />
<path d="M73162844 9204000
L73162844 23204000
" />
<path d="M75162844 7204000
L75162844 25204000
" />
<path d="M75162844 26254000
L75162844 44254000
" />
<path d="M73162844 28254000
L73162844 42254000
" />
<path d="M59162844 28254000
L73162844 28254000
" />
<path d="M75162844 44254000
L57162844 44254000
" />
<path d="M57162844 26254000
L75162844 26254000
" />
<path d="M59162844 42254000
L59162844 28254000
" />
<path d="M73162844 42254000
L59162844 42254000
" />
<path d="M57162844 44254000
L57162844 26254000
" />
<path d="M75162844 45304000
L75162844 63304000
" />
<path d="M73162844 47304000
L73162844 61304000
" />
<path d="M57162844 63304000
L57162844 45304000
" />
<path d="M73162844 61304000
L59162844 61304000
" />
<path d="M59162844 61304000
L59162844 47304000
" />
<path d="M75162844 63304000
L57162844 63304000
" />
<path d="M59162844 47304000
L73162844 47304000
" />
<path d="M57162844 45304000
L75162844 45304000
" />
<path d="M100580075 61581122
L112704431 68581122
" />
<path d="M106436482 83437529
L90848024 74437529
" />
<path d="M93580075 73705478
L100580075 61581122
" />
<path d="M112704431 68581122
L105704431 80705478
" />
<path d="M115436482 67849071
L106436482 83437529
" />
<path d="M105704431 80705478
L93580075 73705478
" />
<path d="M90848024 74437529
L99848024 58849071
" />
<path d="M99848024 58849071
L115436482 67849071
" />
<path d="M79747568 85730192
L65960259 83299117
" />
<path d="M66769015 67194897
L84495554 70320564
" />
<path d="M82178643 71942883
L79747568 85730192
" />
<path d="M68391334 69511808
L82178643 71942883
" />
<path d="M84495554 70320564
L81369887 88047103
" />
<path d="M65960259 83299117
L68391334 69511808
" />
<path d="M63643348 84921436
L66769015 67194897
" />
<path d="M81369887 88047103
L63643348 84921436
" />
<path d="M84055075 90203478
L91055075 78079122
" />
<path d="M90323024 75347071
L105911482 84347071
" />
<path d="M96911482 99935529
L81323024 90935529
" />
<path d="M103179431 85079122
L96179431 97203478
" />
<path d="M91055075 78079122
L103179431 85079122
" />
<path d="M105911482 84347071
L96911482 99935529
" />
<path d="M96179431 97203478
L84055075 90203478
" />
<path d="M81323024 90935529
L90323024 75347071
" />
<path d="M47107844 65621000
L61107844 65621000
" />
<path d="M63107844 63621000
L63107844 81621000
" />
<path d="M63107844 81621000
L45107844 81621000
" />
<path d="M45107844 63621000
L63107844 63621000
" />
<path d="M47107844 79621000
L47107844 65621000
" />
<path d="M61107844 79621000
L47107844 79621000
" />
<path d="M45107844 81621000
L45107844 63621000
" />
<path d="M61107844 65621000
L61107844 79621000
" />
<path d="M111285395 84734967
L119315465 73266839
" />
<path d="M122753523 92765037
L111285395 84734967
" />
<path d="M130783593 81296909
L122753523 92765037
" />
<path d="M133569050 80805758
L123244674 95550494
" />
<path d="M119315465 73266839
L130783593 81296909
" />
<path d="M123244674 95550494
L108499938 85226118
" />
<path d="M118824314 70481382
L133569050 80805758
" />
<path d="M108499938 85226118
L118824314 70481382
" />
<path d="M107897664 86086444
L122642400 96410820
" />
<path d="M100358745 100340029
L108388815 88871901
" />
<path d="M112318024 111155556
L97573288 100831180
" />
<path d="M111826873 108370099
L100358745 100340029
" />
<path d="M119856943 96901971
L111826873 108370099
" />
<path d="M97573288 100831180
L107897664 86086444
" />
<path d="M108388815 88871901
L119856943 96901971
" />
<path d="M122642400 96410820
L112318024 111155556
" />
<path d="M19062844 7204000
L19062844 25204000
" />
<path d="M21062844 23204000
L35062844 23204000
" />
<path d="M19062844 25204000
L37062844 25204000
" />
<path d="M21062844 9204000
L21062844 23204000
" />
<path d="M35062844 9204000
L21062844 9204000
" />
<path d="M37062844 7204000
L19062844 7204000
" />
<path d="M35062844 23204000
L35062844 9204000
" />
<path d="M37062844 25204000
L37062844 7204000
" />
<path d="M92212844 11585250
L78212844 11585250
" />
<path d="M78212844 11585250
L78212844 25585250
" />
<path d="M78212844 25585250
L92212844 25585250
" />
<path d="M92212844 25585250
L92212844 11585250
" />
<path d="M94212844 27585250
L94212844 9585250
" />
<path d="M76212844 9585250
L76212844 27585250
" />
<path d="M76212844 27585250
L94212844 27585250
" />
<path d="M94212844 9585250
L76212844 9585250
" />
<path d="M92212844 44635250
L92212844 30635250
" />
<path d="M76212844 46635250
L94212844 46635250
" />
<path d="M94212844 46635250
L94212844 28635250
" />
<path d="M78212844 44635250
L92212844 44635250
" />
<path d="M76212844 28635250
L76212844 46635250
" />
<path d="M78212844 30635250
L78212844 44635250
" />
<path d="M92212844 30635250
L78212844 30635250
" />
<path d="M94212844 28635250
L76212844 28635250
" />
<path d="M94212844 65685250
L94212844 47685250
" />
<path d="M76212844 65685250
L94212844 65685250
" />
<path d="M92212844 63685250
L92212844 49685250
" />
<path d="M92212844 49685250
L78212844 49685250
" />
<path d="M94212844 47685250
L76212844 47685250
" />
<path d="M78212844 63685250
L92212844 63685250
" />
<path d="M78212844 49685250
L78212844 63685250
" />
<path d="M76212844 47685250
L76212844 65685250
" />
<g >
</g>
<g >
</g>
<g >
</g>
<g >
</g>
<g >
</g>
<g >
</g>
<g >
</g>
<g >
</g>
<g >
</g>
<g >
</g>
<g >
</g>
<g >
</g>
<g >
</g>
<g >
</g>
<g >
</g>
<g >
</g>
<g >
</g>
<g >
</g>
<g >
</g>
<g >
</g>
<g >
</g>
<g >
</g>
<g >
</g>
<g >
</g>
<g >
</g>
<g >
</g>
<g >
</g>
<g >
</g>
<g >
</g>
<g >
</g>
<g >
</g>
<g >
</g>
<g >
</g>
<g >
</g>
<g >
</g>
<g >
</g>
<g >
</g>
<g >
</g>
<g >
</g>
<g >
</g>
<g >
</g>
<g >
</g>
<g >
</g>
<g >
</g>
<g >
</g>
<g >
</g>
<g >
</g>
<g >
</g>
<g >
</g>
<g >
</g>
<g >
</g>
<g >
</g>
<g >
</g>
<g >
</g>
<g >
</g>
<g >
</g>
<g >
</g>
<g >
</g>
<g >
</g>
<g >
</g>
<g >
</g>
<g >
</g>
<g >
</g>
<g >
</g>
<g >
</g>
<g >
</g>
<g >
</g>
<g >
</g>
<g >
</g>
<g >
</g>
<g >
</g>
<g >
</g>
<g >
</g>
<g >
</g>
<g >
</g>
<g >
</g>
<g >
</g>
<g >
</g>
<g >
</g>
<g >
</g>
<g >
</g>
<g >
</g>
<g >
</g>
<g >
</g>
<g >
</g>
<g >
</g>
<g >
</g>
<g >
</g>
<g >
</g>
<g >
</g>
<g >
</g>
<g >
</g>
<g >
</g>
<g >
</g>
<g >
</g>
<g >
</g>
<g >
</g>
<g >
</g>
<g >
</g>
<g >
</g>
<g >
</g>
<g >
</g>
<g >
</g>
<g >
</g>
<g >
</g>
<g >
</g>
<g >
</g>
<g >
</g>
<g >
</g>
<g >
</g>
</g>
<g style="fill:#000000; fill-opacity:0.0; 
stroke:#000000; stroke-width:150000.000000; stroke-opacity:1; 
stroke-linecap:round; stroke-linejoin:round;">
</g>
<g style="fill:#D0D2CD; fill-opacity:0.0; 
stroke:#D0D2CD; stroke-width:150000.000000; stroke-opacity:1; 
stroke-linecap:round; stroke-linejoin:round;">
<path d="M75179844 75000
L89106602 1088312
" />
<path d="M746121.650199 7275743.772803 A909044.000000 909044.000000 0.0 0 0 75340.977506 8177996.000616" />
<path d="M63616406 84932451
L81102506 91207368
" />
<path d="M45075341 68122114
L45075341 80658641
" />
<path d="M37587844 75000
L66543844 75000
" />
<path d="M90106602 2088312
L90107844 10621000
" />
<path d="M132139578.057794 82907387.530872 A2539992.000000 2539992.000000 0.0 0 0 131515860.057812 79369885.917439" />
<path d="M37587844 75000
L746119 7275734
" />
<path d="M131515860 79369886
L115399655 67846087
" />
<path d="M94203274 55561000
L94203274 11612040
" />
<path d="M45962995 81636884
L63616406 84932451
" />
<path d="M90107844 10621000
L93107844 10621000
" />
<path d="M110054946 109601495
L97599634 100863229
" />
<path d="M45075397.059124 80658640.980559 A983247.000000 983247.000000 0.0 0 0 45962995.035283 81636883.639020" />
<path d="M115399655 67846087
L94203274 55561000
" />
<path d="M97599634 100863229
L81102506 91207368
" />
<path d="M75341 8177996
L75341 67122114
" />
<path d="M113633383 109288422
L132139623 82907419
" />
<path d="M110054963.671401 109601473.939814 A2540016.000000 2540016.000000 0.0 0 0 113633382.984144 109288421.986695" />
<path d="M75330.000098 67122114.000154 A1000014.000000 1000014.000000 0.0 0 0 1075341.000000 68122113.999995" />
<path d="M1075341 68122114
L45075341 68122114
" />
<path d="M66543844 75000
L75179844 75000
" />
<path d="M94203249.012318 11612042.505999 A1100900.000000 1100900.000000 0.0 0 0 93107844.000000 10621000.000000" />
<path d="M90106631.999928 2088312.000360 A999988.000000 999988.000000 0.0 0 0 89106602.000000 1088312.000882" />
<g >
</g>
<g >
</g>
<g >
</g>
<g >
</g>
<g >
</g>
<g >
</g>
<g >
</g>
<g >
</g>
<g >
</g>
<g >
</g>
<g >
</g>
<g >
</g>
<g >
</g>
<g >
</g>
<g >
</g>
<g >
</g>
<g >
</g>
<g >
</g>
<g >
</g>
<g >
</g>
<g >
</g>
<g >
</g>
<g >
</g>
<g >
</g>
<g >
</g>
<g >
</g>
<g >
</g>
<g >
</g>
<g >
</g>
<g >
</g>
<g >
</g>
<g >
</g>
<g >
</g>
<g >
</g>
<g >
</g>
<g >
</g>
<g >
</g>
<g >
</g>
<g >
</g>
<g >
</g>
<g >
</g>
<g >
</g>
<g >
</g>
<g >
</g>
<g >
</g>
<g >
</g>
<g >
</g>
<g >
</g>
<g >
</g>
<g >
</g>
<g >
</g>
<g >
</g>
<g >
</g>
<g >
</g>
<g >
</g>
<g >
</g>
<g >
</g>
<g >
</g>
<g >
</g>
<g >
</g>
<g >
</g>
<g >
</g>
<g >
</g>
<g >
</g>
<g >
</g>
<g >
</g>
<g >
</g>
<g >
</g>
<g >
</g>
<g >
</g>
<g >
</g>
<g >
</g>
<g >
</g>
<g >
</g>
<g >
</g>
<g >
</g>
<g >
</g>
<g >
</g>
<g >
</g>
<g >
</g>
<g >
</g>
<g >
</g>
<g >
</g>
<g >
</g>
<g >
</g>
<g >
</g>
<g >
</g>
<g >
</g>
<g >
</g>
<g >
</g>
<g >
</g>
<g >
</g>
<g >
</g>
<g >
</g>
<g >
</g>
<g >
</g>
<g >
</g>
<g >
</g>
<g >
</g>
<g >
</g>
<g >
</g>
<g >
</g>
<g >
</g>
<g >
</g>
<g >
</g>
<g >
</g>
<g >
</g>
<g >
</g>
<g >
</g>
<g >
</g>
</g> 
</svg>
